<svg width="727" height="642" viewBox="0 0 727 642" fill="none" xmlns="http://www.w3.org/2000/svg">
<path d="M181.193 79.0968C242.204 29.1409 294.412 14.6728 350.101 30.3693C405.789 46.0659 441.618 119.908 507.271 137.788C572.992 155.737 628.68 166.178 677.476 206.239C726.272 246.299 736.713 291.546 717.536 355.97C698.359 420.394 602.542 455.814 491.097 442.506C379.651 429.198 250.803 408.246 189.86 338.567C128.916 268.888 104.553 141.815 181.193 79.0968Z" fill="#E5F8FF"/>
<path d="M433.634 47.7721C436.841 79.0286 464.959 103.461 529.383 124.412C593.807 145.295 632.092 148.776 653.044 133.148C673.927 117.451 660.005 75.6846 632.161 49.5465C604.316 23.4083 552.04 2.52512 518.941 0.818974C485.91 -1.02366 428.447 -2.72981 433.634 47.7721Z" fill="#E5F8FF"/>
<path d="M503.586 127.688C505.292 133.557 506.452 136.765 507.271 137.788C508.09 138.812 507.271 141.064 505.428 141.678C503.586 142.293 497.307 144.34 497.307 144.34L494.236 122.433L496.079 118.748L501.265 114.175C501.333 114.107 502.494 123.866 503.586 127.688Z" fill="#F37E4E"/>
<path d="M423.943 168.499C423.943 168.499 435.749 158.603 438.479 155.054C442.301 150.004 444.007 147.957 443.052 143.862C442.028 139.767 440.458 137.038 442.71 137.856C444.962 138.675 481.542 165.018 481.542 165.018C481.542 165.018 473.762 168.499 468.234 173.617C462.775 178.667 458.066 189.177 458.066 189.177L423.943 168.499Z" fill="#FFA171"/>
<path d="M447.01 162.22C453.766 171.979 459.772 185.356 459.772 185.356C459.772 185.356 462.979 178.531 465.368 176.142C470.759 170.751 479.154 165.291 479.154 165.291L461.137 136.901L444.69 142.361L442.437 149.322L439.298 153.894C439.366 153.963 442.847 156.078 447.01 162.22Z" fill="#F37E4E"/>
<path d="M498.467 96.9773C498.467 96.9773 500.446 101.823 500.992 111.309C501.47 119.84 501.606 124.549 501.265 129.872C500.856 136.833 501.538 142.361 501.333 148.844C501.129 155.327 498.672 161.06 496.42 163.176C492.939 166.383 491.165 166.656 485.023 166.861C478.949 167.066 471.988 164.95 462.843 160.924C453.766 156.897 445.781 155.396 443.939 146.66C442.096 137.925 443.12 129.599 443.12 129.599L474.581 100.185L498.467 96.9773Z" fill="#FFA171"/>
<path d="M460.25 132.26C460.25 132.26 458.885 135.127 462.433 139.221C465.982 143.316 467.688 146.046 468.371 148.025C469.053 150.072 465.504 150.55 462.57 149.049C459.704 147.547 459.499 146.66 457.11 147.343C454.722 148.025 451.514 148.366 449.808 146.865C448.102 145.363 447.965 145.022 445.918 145.705C443.871 146.387 440.799 145.227 439.298 141.61C437.865 138.061 460.25 132.26 460.25 132.26Z" fill="#5E2D1E"/>
<path fill-rule="evenodd" clip-rule="evenodd" d="M472.875 71.1121C486.592 73.1595 496.898 81.7584 502.016 95.8171C507.203 109.944 507.885 129.121 507.749 128.985C504.678 134.103 497.785 137.925 491.984 140.996C486.259 144.094 481.133 141.077 475.424 137.718C475.348 137.673 475.272 137.628 475.195 137.583C469.394 134.171 465.231 133.83 460.454 135.195C457.303 136.095 452.488 139.402 448.792 141.94C446.886 143.249 445.277 144.353 444.348 144.818C441.618 146.182 438.138 146.182 435.408 142.429C435.012 141.884 434.593 141.364 434.156 140.821C431.579 137.621 428.32 133.573 424.762 118.406C420.94 102.164 424.011 92.6778 434.862 81.2807C444.144 71.5898 459.158 69.0647 472.875 71.1121ZM494.714 133.147C497.989 132.806 500.651 130.895 501.675 129.735C503.244 128.029 502.903 125.504 502.357 122.092C501.879 118.748 500.173 112.401 495.055 111.036C491.847 110.149 488.503 113.015 487.411 116.973C486.388 120.727 486.319 124.617 488.23 129.053C489.254 131.441 491.165 133.489 494.714 133.147Z" fill="#C82C2F"/>
<path d="M451.582 128.097C458.593 128.097 464.276 122.261 464.276 115.062C464.276 107.863 458.593 102.027 451.582 102.027C444.572 102.027 438.889 107.863 438.889 115.062C438.889 122.261 444.572 128.097 451.582 128.097Z" fill="#FFAA00"/>
<path d="M451.582 122.979C455.841 122.979 459.294 119.435 459.294 115.062C459.294 110.69 455.841 107.146 451.582 107.146C447.323 107.146 443.871 110.69 443.871 115.062C443.871 119.435 447.323 122.979 451.582 122.979Z" fill="#FFC648"/>
<path d="M395.621 73.9102C395.621 69.3377 402.514 68.4505 423.056 71.5216C443.666 74.5926 452.879 74.9339 457.383 79.0968C461.819 83.1916 460.796 87.6958 459.772 94.5204C458.748 101.413 454.653 112.333 453.971 114.789C453.288 117.178 449.876 117.178 448.17 116.154C446.464 115.131 446.464 110.353 446.805 108.579C447.146 106.873 441.345 100.663 441.345 100.663C441.345 100.663 434.794 99.2976 431.04 97.2502C427.287 95.2029 426.604 93.1555 426.604 93.1555C426.604 93.1555 418.005 92.1318 413.569 89.7432C409.133 87.3546 408.792 83.5328 408.792 83.5328C408.792 83.5328 395.621 80.3935 395.621 73.9102Z" fill="#FFAA00"/>
<path d="M496.01 129.121C497.744 129.121 499.15 126.616 499.15 123.525C499.15 120.434 497.744 117.929 496.01 117.929C494.276 117.929 492.871 120.434 492.871 123.525C492.871 126.616 494.276 129.121 496.01 129.121Z" fill="#5E2D1E"/>
<path d="M399.033 75.0021C400.33 78.0731 403.879 79.8475 410.84 80.3252C417.732 80.803 444.826 81.5537 448.852 81.4172C452.947 81.2807 456.564 77.8001 443.188 76.094C429.812 74.3879 413.023 71.8628 407.359 71.7263C401.695 71.5215 397.805 71.9993 399.033 75.0021Z" fill="#FFC648"/>
<path d="M413.16 84.8978C413.774 87.2864 416.163 88.0371 420.735 89.2655C425.308 90.494 428.106 90.0845 433.292 89.8797C438.479 89.7433 446.191 88.1736 448.511 87.8324C450.9 87.4911 455.268 84.6931 445.031 84.0789C434.794 83.4646 419.711 83.1234 415.958 83.1234C412.955 83.1917 412.887 83.6011 413.16 84.8978Z" fill="#FFC648"/>
<path d="M431.586 93.9745C432.474 95.6806 435.545 96.6361 437.592 97.1138C439.639 97.5915 442.642 96.0218 446.054 94.5887C449.535 93.1555 452.333 90.6304 450.627 90.4939C448.921 90.3574 442.915 91.3129 438.82 91.7224C434.726 92.1318 430.631 92.2683 431.586 93.9745Z" fill="#FFC648"/>
<path d="M444.144 99.9118C445.577 102.164 446.669 104.757 447.829 105.098C448.989 105.44 450.695 104.28 451.173 100.048C451.651 95.8853 452.538 92.6778 449.808 94.8616C447.146 97.0455 444.758 97.8644 443.939 98.4104C443.12 98.8881 443.256 98.5469 444.144 99.9118Z" fill="#FFC648"/>
<path d="M482.702 509.523C482.702 509.523 480.177 536.617 479.154 540.916C478.062 545.215 475.605 548.423 475.946 553.064C476.287 557.704 479.904 559.138 490.551 559.138C501.265 559.138 532.658 558.796 532.658 558.796C532.658 558.796 509.113 545.625 505.906 543.441C502.698 541.325 501.606 539.142 502.698 533.068C503.79 526.994 506.998 515.938 506.998 515.938L482.702 509.523Z" fill="#FFA171"/>
<path d="M488.503 533.409C495.942 533.75 502.835 531.362 502.835 531.362L508.226 512.116L482.088 512.867L480.519 531.566C480.519 531.635 483.112 533.136 488.503 533.409Z" fill="#F37E4E"/>
<path d="M508.841 541.053C513.891 543.236 522.421 547.604 528.291 550.88C534.16 554.156 536.617 555.248 536.617 558.319C536.617 561.39 526.584 560.912 513.14 560.912C501.538 560.912 475.946 560.844 475.127 560.844C474.308 560.844 471.647 555.725 472.739 548.764C473.83 541.735 479.154 540.984 479.154 540.984C479.154 540.984 479.973 548.628 486.797 549.106C496.352 549.72 501.197 547.877 503.381 546.58C505.565 545.284 505.565 543.782 505.565 543.782C505.565 543.782 502.698 540.916 505.155 539.415C507.476 537.777 508.841 541.053 508.841 541.053Z" fill="#FFC648"/>
<path d="M270.731 352.148C270.731 352.148 262.269 375.761 289.294 396.644C316.319 417.459 361.907 419.166 410.84 419.166C459.772 419.166 480.655 419.712 480.655 419.712C480.655 419.712 477.311 471.51 473.353 493.417C469.395 515.392 464.89 521.534 467.757 523.786C470.555 526.038 477.311 525.151 494.714 525.151C512.526 525.151 519.828 523.786 522.08 520.988C524.332 518.19 539.21 489.39 544.806 447.215C550.402 404.97 553.815 384.155 544.26 369.005C534.706 353.786 516.143 341.98 489.118 337.475C462.092 332.971 437.319 327.375 437.319 327.375L270.731 352.148Z" fill="#FFC648"/>
<path d="M296.255 371.735C323.758 377.877 370.165 379.583 399.238 363.068C428.311 346.552 444.417 340.205 450.49 338.567C456.564 336.929 474.035 335.291 474.035 335.291L450.013 330.583L342.184 348.258L269.434 361.225C269.434 361.293 282.81 368.732 296.255 371.735Z" fill="#FFAA00"/>
<path d="M426.809 167.134C426.809 167.134 426.058 149.117 398.828 143.384C371.667 137.652 365.524 138.812 354.81 149.526C344.095 160.241 338.363 174.777 343.686 185.492C349.077 196.207 375.488 189.314 390.366 183.581C405.38 177.917 419.507 174.846 426.809 167.134Z" fill="#FFC648"/>
<path d="M424.079 163.517C424.079 163.517 420.462 153.962 409.406 148.844C401.012 144.954 386.954 141.951 376.512 141.951C367.845 141.951 363.477 144.272 362.453 147.957C361.225 152.325 376.307 148.366 392.072 151.847C402.855 154.235 413.365 157.033 418.074 162.288C420.872 165.359 423.602 168.976 424.625 168.294C425.922 167.68 424.898 164.882 424.079 163.517Z" fill="#FFAA00"/>
<path d="M435.749 175.255C447.215 181.807 457.997 189.109 457.997 189.109C457.997 189.109 448.852 209.719 447.761 234.902C446.669 260.085 443.393 278.648 446.123 298.917C448.852 319.186 449.944 330.651 449.944 330.651C449.944 330.651 411.727 351.466 367.913 356.925C324.167 362.385 269.434 361.293 269.434 361.293C269.434 361.293 248.073 325.191 292.979 257.901C337.817 190.542 377.194 177.439 389.82 171.433C402.377 165.428 423.943 168.499 423.943 168.499L435.749 175.255Z" fill="#FFC648"/>
<path d="M285.199 640.828C317.123 640.828 343.003 614.948 343.003 583.024C343.003 551.099 317.123 525.219 285.199 525.219C253.275 525.219 227.395 551.099 227.395 583.024C227.395 614.948 253.275 640.828 285.199 640.828Z" fill="#5E2D1E"/>
<path d="M285.199 619.672C305.439 619.672 321.847 603.264 321.847 583.024C321.847 562.784 305.439 546.376 285.199 546.376C264.959 546.376 248.551 562.784 248.551 583.024C248.551 603.264 264.959 619.672 285.199 619.672Z" fill="#DBB38A"/>
<path d="M285.199 615.782C303.291 615.782 317.957 601.115 317.957 583.024C317.957 564.932 303.291 550.266 285.199 550.266C267.107 550.266 252.441 564.932 252.441 583.024C252.441 601.115 267.107 615.782 285.199 615.782Z" fill="#F9E5D0"/>
<path d="M285.199 596.127C292.436 596.127 298.302 590.26 298.302 583.024C298.302 575.787 292.436 569.921 285.199 569.921C277.962 569.921 272.096 575.787 272.096 583.024C272.096 590.26 277.962 596.127 285.199 596.127Z" fill="#5E2D1E"/>
<path d="M640.964 640.828C672.889 640.828 698.769 614.948 698.769 583.024C698.769 551.099 672.889 525.219 640.964 525.219C609.04 525.219 583.16 551.099 583.16 583.024C583.16 614.948 609.04 640.828 640.964 640.828Z" fill="#5E2D1E"/>
<path d="M640.964 619.672C661.205 619.672 677.612 603.264 677.612 583.024C677.612 562.784 661.205 546.376 640.964 546.376C620.724 546.376 604.316 562.784 604.316 583.024C604.316 603.264 620.724 619.672 640.964 619.672Z" fill="#DBB38A"/>
<path d="M640.964 615.782C659.056 615.782 673.722 601.115 673.722 583.024C673.722 564.932 659.056 550.266 640.964 550.266C622.873 550.266 608.206 564.932 608.206 583.024C608.206 601.115 622.873 615.782 640.964 615.782Z" fill="#F9E5D0"/>
<path d="M640.964 596.127C648.201 596.127 654.068 590.26 654.068 583.024C654.068 575.787 648.201 569.921 640.964 569.921C633.728 569.921 627.861 575.787 627.861 583.024C627.861 590.26 633.728 596.127 640.964 596.127Z" fill="#5E2D1E"/>
<path d="M205.215 529.928C212.376 529.928 218.182 522.87 218.182 514.164C218.182 505.457 212.376 498.399 205.215 498.399C198.054 498.399 192.248 505.457 192.248 514.164C192.248 522.87 198.054 529.928 205.215 529.928Z" fill="#C82C2F"/>
<path d="M244.32 493.076C244.32 493.076 227.873 492.393 219.956 493.076C212.108 493.758 204.942 496.625 204.942 496.625V530.406C204.942 530.406 206.375 532.454 212.79 532.454C219.205 532.454 244.32 493.076 244.32 493.076Z" fill="#F9E5D0"/>
<path d="M341.843 201.12C341.843 201.12 349.964 203.441 364.228 196.48C375.693 190.883 387.704 186.789 398.624 182.011C409.543 177.234 423.943 168.499 423.943 168.499C423.943 168.499 374.601 183.581 372.485 184.127C370.37 184.673 354.332 190.815 354.332 190.815L341.843 201.12Z" fill="#FFAA00"/>
<path d="M270.867 467.552C270.867 465.368 269.571 463.525 267.796 462.638V393.846C267.796 391.253 265.681 389.137 263.087 389.137H253.533C250.94 389.137 248.824 391.253 248.824 393.846V462.092H90.8351C87.8323 462.092 85.3755 464.549 85.3755 467.552C85.3755 470.555 87.8323 473.012 90.8351 473.012H202.622L261.04 502.971C262.951 503.927 265.271 503.176 266.227 501.334L268.82 496.283C269.776 494.372 269.025 492.052 267.182 491.097L232.172 473.08H265.476C268.411 472.943 270.867 470.486 270.867 467.552Z" fill="#9E9E9F"/>
<path d="M415.276 193.682C415.276 193.682 430.494 194.091 432.61 220.57C433.634 233.128 434.589 242.409 435.272 248.756C436.022 255.307 439.639 261.177 445.099 264.794L445.577 274.348L421.281 276.941L408.792 266.568L415.276 193.682Z" fill="#FFAA00"/>
<path d="M355.492 308.334C358.427 325.805 372.554 333.381 399.511 333.176C428.311 332.971 449.535 327.239 449.535 327.239L445.781 303.967C445.781 303.967 393.369 304.513 384.156 291.546C374.942 278.579 366.343 205.079 366.343 205.079C366.343 205.079 344.709 244.047 355.492 308.334Z" fill="#FFAA00"/>
<path d="M404.288 463.662C404.288 463.662 396.098 448.238 339.591 450.286C283.083 452.333 255.376 464.959 234.561 492.393C216.68 516.006 206.102 538.596 199.892 558.114C193.75 577.632 190.679 578.656 196.821 583.774C202.963 588.893 356.721 590.053 356.721 590.053L372.349 595.035L507.885 594.011L580.772 583.774L710.166 546.785C710.166 546.785 705.593 516.279 670.242 502.425C649.359 494.236 633.184 496.488 633.184 496.488L564.393 294.208C564.393 294.208 558.933 287.792 550.402 282.469C541.871 277.146 526.448 279.808 516.825 286.223C507.271 292.638 527.472 309.631 538.118 329.354C548.764 349.077 563.232 374.26 563.232 438.07C563.232 501.811 563.232 508.909 563.232 520.715C563.232 532.522 558.046 547.195 543.578 558.455C538.596 562.345 435.408 561.595 426.741 561.595C415.822 561.595 388.523 544.328 383.746 519.146C379.174 493.963 404.288 463.662 404.288 463.662Z" fill="#E84C4F"/>
<path d="M331.06 474.581C361.088 482.634 370.165 501.47 371.598 528.086C373.031 553.337 372.349 554.77 373.509 562.482C374.942 572.309 374.192 569.716 421.895 570.739C471.988 571.831 501.538 570.944 523.65 566.372C539.619 563.096 548.287 558.319 555.589 547.672C564.939 533.887 562.686 509.659 563.505 475.195C564.529 431.109 556.271 369.346 545.898 342.935C539.346 326.147 551.085 295.368 564.461 294.276C577.905 293.184 587.733 471.305 587.733 471.305L609.776 488.299C609.776 488.299 636.187 495.533 640.896 496.01C661.165 498.262 665.942 501.47 665.874 501.538C665.874 501.538 648.676 501.538 626.769 548.56C624.381 553.678 619.808 572.377 619.808 572.377C619.808 572.377 591.691 580.84 589.029 581.454C571.968 585.276 566.03 591.896 566.03 591.896L478.403 596.127L372.554 595.103L356.925 590.121L345.938 528.836L297.552 505.701L257.56 521.807L223.232 553.337L206.17 586.914C206.17 586.914 201.666 587.664 197.026 583.843C192.385 580.021 192.385 581.932 200.097 558.182C207.808 534.433 223.027 515.256 243.91 495.464C264.657 475.605 309.153 468.712 331.06 474.581Z" fill="#C82C2F"/>
<path d="M302.875 486.115C337.748 485.159 356.379 503.449 359.519 530.201C362.658 556.954 356.789 590.121 356.789 590.121L206.034 586.914C206.034 586.845 213.882 488.435 302.875 486.115Z" fill="#E84C4F"/>
<path d="M278.443 386.135C278.443 386.135 263.497 382.995 261.108 394.802C258.72 406.608 261.108 446.737 261.108 454.653C261.108 462.502 280.9 457.11 298.985 455.541C317.07 453.971 345.938 450.968 367.162 454.926C388.387 458.885 404.22 463.73 404.22 463.73C404.22 463.73 412.204 463.321 419.302 463.321C426.4 463.321 427.969 449.125 429.539 436.568C431.109 424.011 427.492 419.234 410.84 419.234C394.188 419.166 305.195 424.693 278.443 386.135Z" fill="#C82C2F"/>
<path d="M532.59 297.074C530.201 305.059 530.474 307.106 525.765 305.741C520.988 304.444 518.941 306.014 516.825 309.972C514.71 313.931 500.515 300.759 500.515 300.759C500.515 300.759 505.019 294.685 514.505 291.273C523.991 287.861 527.676 289.43 530.816 290.454C533.887 291.546 533.341 294.412 532.59 297.074Z" fill="#E84C4F"/>
<path d="M508.431 265.749C514.462 265.749 519.35 257.408 519.35 247.118C519.35 236.828 514.462 228.487 508.431 228.487C502.4 228.487 497.512 236.828 497.512 247.118C497.512 257.408 502.4 265.749 508.431 265.749Z" fill="#E84C4F"/>
<path d="M536.412 249.984C541.802 249.984 546.171 242.529 546.171 233.332C546.171 224.136 541.802 216.68 536.412 216.68C531.022 216.68 526.653 224.136 526.653 233.332C526.653 242.529 531.022 249.984 536.412 249.984Z" fill="#E84C4F"/>
<path d="M514.095 245.48C514.095 245.48 519.76 248.756 520.988 260.904C522.217 273.051 533.545 283.629 533.545 283.629L523.718 289.43C523.718 289.43 518.531 275.508 517.371 267.387C516.143 259.266 513.345 247.118 513.345 247.118L514.095 245.48Z" fill="#E84C4F"/>
<path d="M528.291 236.13C528.291 236.13 526.584 245.48 528.7 256.399C532.727 277.078 541.462 283.493 541.462 283.493L553.814 285.95C553.814 285.95 540.029 272.574 536.412 264.452C532.795 256.331 533.545 243.774 533.545 243.774L528.291 236.13Z" fill="#E84C4F"/>
<path d="M631.137 353.24H630.045C641.169 353.24 650.178 343.549 650.178 330.583V327.443C650.178 314.067 641.169 304.035 630.045 304.035H631.137V353.24Z" fill="#FFC648"/>
<path d="M635.914 355.288H628.612C616.532 355.288 606.773 345.528 606.773 333.449V323.758C606.773 311.678 616.532 301.919 628.612 301.919H635.914V355.288Z" fill="#C82C2F"/>
<path d="M464.617 277.897C464.617 277.897 472.67 278.102 486.592 278.102C500.515 278.102 510.82 277.078 518.054 274.689C525.288 272.301 525.288 270.867 532.59 275.508C539.824 280.149 541.053 281.173 541.462 283.561C541.872 285.95 539.415 296.664 538.254 300.691C537.026 304.717 534.842 304.513 533.614 303.898C532.385 303.284 533.204 297.21 533.409 294.822C533.614 292.433 533.204 291 533.204 291C533.204 291 526.311 289.157 523.718 289.362C521.125 289.567 515.051 289.567 510.41 292.979C506.861 295.641 504.951 297.825 499.696 298.848C495.737 299.599 490.414 299.872 485.569 298.234C481.201 296.801 460.932 298.029 460.932 298.029L464.617 277.897Z" fill="#FFA171"/>
<path d="M364.501 222.959C363.272 243.91 358.836 279.057 365.183 296.869C368.527 306.287 373.509 309.836 381.835 314.477C393.915 321.233 416.504 317.07 434.589 316.592C461.819 315.91 459.977 303.762 459.977 303.762C459.977 303.762 455.882 299.053 458.68 287.588C461.478 276.122 463.662 276.395 463.662 276.395C463.662 276.395 464.685 265.749 449.876 267.933C435.135 270.117 425.785 269.025 425.785 269.025C425.785 269.025 431.791 234.561 425.239 209.378C418.688 184.195 402.241 178.19 390.98 180.783C376.921 183.922 366.139 195.046 364.501 222.959Z" fill="#FFC648"/>
<path d="M473.216 285.677C474.854 291.478 480.519 293.73 483.931 294.89C487.343 296.118 493.144 297.825 498.262 295.845C503.381 293.866 514.368 291.205 514.368 291.205C514.368 291.205 505.838 296.118 503.859 297.552C501.879 298.985 496.829 300.486 493.144 300.008C489.527 299.531 484.886 298.029 482.702 297.552C480.519 297.074 463.73 297.825 463.73 297.825L465.436 281.036L469.326 277.897L472.943 278.17C473.012 278.17 472.056 281.309 473.216 285.677Z" fill="#F37E4E"/>
<path d="M463.525 276.259L471.237 277.487C471.237 277.487 467.757 279.535 467.757 287.246C467.757 297.483 469.94 299.053 469.94 299.053L459.635 301.988C459.635 301.988 454.244 302.738 454.244 291.819C454.244 280.9 456.291 276.941 463.525 276.259Z" fill="#FFC648"/>
<path d="M460.523 273.597C459.021 275.849 454.722 275.781 453.63 287.861C452.538 299.94 453.016 304.376 451.105 307.993C449.194 311.61 448.102 312.088 447.01 313.18C445.918 314.272 443.052 315.978 443.052 315.978C443.052 315.978 450.149 315.364 454.039 312.497C457.997 309.699 458.407 308.88 459.226 307.174C460.045 305.468 459.704 302.602 459.704 302.602C459.704 302.602 457.315 298.644 458.748 288.953C460.181 279.193 463.457 276.259 463.457 276.259C463.457 276.259 463.594 275.303 463.457 273.597C463.321 271.891 461.546 270.185 460.591 269.707C459.772 269.23 461.819 271.686 460.523 273.597Z" fill="#FFAA00"/>
<path d="M507.612 317.616C513.228 317.616 517.781 313.063 517.781 307.447C517.781 301.831 513.228 297.279 507.612 297.279C501.996 297.279 497.443 301.831 497.443 307.447C497.443 313.063 501.996 317.616 507.612 317.616Z" fill="#C82C2F"/>
<path d="M569.716 286.155C556.34 294.344 550.607 305.946 560.161 363.204C569.716 420.462 582.887 485.773 576.336 522.49C569.784 559.206 559.479 564.324 540.37 576.063C521.261 587.801 445.781 589.029 421.554 589.029C397.327 589.029 356.789 590.053 356.789 590.053C356.789 590.053 358.29 596.673 362.658 599.607C367.094 602.542 544.738 599.607 557.909 599.607C571.149 599.607 594.625 581.249 617.351 546.785C640.077 512.253 651.884 475.605 649.632 426.4C647.379 377.194 626.155 336.861 612.165 317.002C598.311 297.142 582.887 278.033 569.716 286.155Z" fill="#E84C4F"/>
<path d="M466.733 520.374C466.733 520.374 483.794 459.499 491.097 442.437C498.399 425.376 503.244 415.685 496.352 413.638C489.459 411.59 452.947 418.893 452.947 418.893L480.655 419.643C480.655 419.712 465.914 510.615 466.733 520.374Z" fill="#FFAA00"/>
<path d="M208.559 587.869L356.721 590.189C359.382 590.258 361.634 588.756 362.044 586.709L362.59 583.774C362.999 581.659 360.884 580.157 358.154 579.816C347.371 578.519 324.713 577.632 282.879 577.359C240.225 577.086 217.022 576.813 207.535 577.905C205.42 578.178 204.396 578.861 204.123 580.499L203.782 583.57C203.441 585.89 205.625 587.801 208.559 587.869Z" fill="#FFC648"/>
<path d="M588.961 581.454L710.234 546.785C712.213 546.171 713.441 544.124 712.827 542.076C712.349 540.507 711.667 539.619 709.961 537.367C708.186 534.979 705.866 536.002 705.866 536.002L600.495 569.17C600.495 569.238 594.216 578.042 588.961 581.454Z" fill="#FFC648"/>
<path d="M283.493 352.626C307.993 353.581 334.131 353.308 370.575 347.303C417.732 339.591 449.467 325.669 449.467 325.669L449.944 330.651C449.944 330.651 422.919 346.347 386.612 353.923C350.306 361.498 303.557 362.112 294.754 362.112C285.95 362.112 269.366 361.293 269.366 361.293L264.93 349.282C264.998 349.282 271.482 352.148 283.493 352.626Z" fill="white"/>
<path fill-rule="evenodd" clip-rule="evenodd" d="M464.754 192.726H466.05C469.872 192.726 481.065 192.248 484.272 186.789C485.705 184.332 485.364 181.329 483.248 177.985C481.542 175.255 479.222 173.822 476.492 173.754C467.757 173.549 457.315 187.676 456.906 188.29L456.018 189.45L457.178 190.338C457.189 190.343 457.216 190.36 457.259 190.387C457.77 190.713 460.536 192.474 464.754 192.726ZM464.959 189.792C462.911 189.655 461.273 189.109 460.25 188.631C463.594 184.4 470.828 176.62 476.219 176.688H476.424C478.13 176.757 479.631 177.644 480.792 179.555C482.361 181.875 482.634 183.854 481.815 185.287C479.495 189.246 469.258 189.996 464.959 189.792Z" fill="#FFAA00"/>
<path fill-rule="evenodd" clip-rule="evenodd" d="M460.727 212.108C461.546 212.586 462.502 212.79 463.457 212.79C464.959 212.79 466.665 212.176 468.576 210.948C470.964 209.31 472.193 207.262 472.193 204.806C472.261 197.23 460.386 188.836 459.021 187.881L457.793 187.062L456.974 188.29C456.969 188.3 456.954 188.324 456.931 188.362C456.649 188.823 455.121 191.321 454.995 195.046C454.995 195.048 454.995 195.053 454.995 195.06C454.99 195.563 454.873 208.878 460.727 212.108ZM457.861 195.115C457.929 193.545 458.339 192.18 458.68 191.293C462.502 194.227 469.258 200.301 469.19 204.806C469.19 206.307 468.439 207.535 466.869 208.559C464.89 209.856 463.321 210.197 462.092 209.515C458.816 207.74 457.724 199.278 457.861 195.115Z" fill="#FFAA00"/>
<path d="M482.907 197.094C470.418 197.094 459.977 191.566 459.499 191.361C458.816 190.952 458.543 190.133 458.885 189.382C459.294 188.7 460.113 188.427 460.864 188.768C460.932 188.836 471.169 194.159 482.907 194.159C494.031 194.159 497.17 189.792 497.239 189.723C497.716 189.041 498.604 188.904 499.218 189.314C499.9 189.723 500.105 190.611 499.627 191.293C499.491 191.566 495.874 197.094 482.907 197.094Z" fill="#FFAA00"/>
<path d="M479.222 214.701C479.085 214.701 478.881 214.701 478.744 214.633C477.993 214.36 477.584 213.609 477.857 212.859C477.925 212.722 477.993 212.586 478.13 212.313C478.812 210.879 480.792 206.648 477.72 203.441C473.762 199.278 463.457 194.296 463.321 194.227C462.57 193.886 462.297 192.999 462.638 192.317C462.979 191.566 463.867 191.293 464.549 191.634C465.027 191.839 475.468 196.889 479.836 201.462C482.771 204.533 483.044 208.627 480.723 213.541C480.655 213.678 480.655 213.746 480.587 213.814C480.382 214.36 479.768 214.701 479.222 214.701Z" fill="#FFAA00"/>
<path d="M223.095 553.269C223.095 553.269 231.217 518.804 266.159 501.197C301.169 483.59 323.212 494.645 331.06 499.013C340.342 504.2 345.187 518.531 345.801 528.7C346.416 538.869 223.095 553.269 223.095 553.269Z" fill="#F25A62"/>
<path d="M571.627 294.958C563.574 301.169 561.731 314.75 563.164 333.176C564.597 351.602 575.517 408.246 578.997 432.883C582.546 457.52 583.911 487.889 583.911 500.583C583.911 513.277 582.478 520.306 582.478 520.306C582.478 520.306 590.258 506.179 588.142 477.993C586.026 449.808 586.709 429.334 581.795 400.466C576.882 371.598 572.65 344.095 571.9 329.286C571.217 314.477 571.217 303.898 577.564 299.667C583.911 295.436 580.499 288.134 571.627 294.958Z" fill="#F25A62"/>
<path d="M157.034 507.407C166.383 501.538 173.003 501.06 178.94 507.407C184.878 513.754 183.922 520.647 178.463 525.629C173.003 530.611 169.318 530.201 166.178 534.296C162.971 538.391 151.574 538.391 148.435 533.409C145.295 528.427 144.749 515.119 157.034 507.407Z" fill="#C1E5F2"/>
<path d="M93.7015 504.2C107.282 497.989 116.018 496.01 123.32 499.627C130.622 503.244 136.082 507.407 137.447 514.641C138.812 521.944 139.699 527.881 134.717 534.228C129.735 540.575 125.572 544.738 119.703 546.103C113.834 547.468 107.828 543.373 106.054 541.53C104.211 539.688 101.072 540.643 99.7071 543.373C98.3422 546.103 91.9271 548.355 87.4228 546.103C82.8504 543.851 82.4409 541.53 81.9632 539.278C81.4855 537.026 79.2333 537.913 77.8684 534.706C76.367 531.566 73.6372 513.277 93.7015 504.2Z" fill="#C1E5F2"/>
<path d="M0.272982 498.74C-0.614213 513.481 2.11562 519.692 8.46248 523.786C14.8093 527.881 14.8093 529.724 15.7648 534.296C16.652 538.869 23.0671 544.806 34.8736 542.486C46.7484 540.234 56.3028 528.837 57.19 523.786C58.0772 518.804 59.0326 517.44 63.1273 516.484C67.2221 515.597 79.0969 510.137 79.9841 496.42C80.8712 482.771 75.4116 479.085 71.3168 477.311C67.2221 475.468 66.3349 476.424 67.2221 472.329C68.1093 468.234 62.6496 458.68 53.0952 457.315C43.5408 455.95 33.5087 457.315 27.0936 466.46C22.5211 473.012 23.886 476.97 21.1562 479.222C18.4946 481.406 1.16018 484.136 0.272982 498.74Z" fill="#C1E5F2"/>
<path d="M635.914 356.175C634.754 356.175 633.799 355.219 633.799 354.059V303.421C633.799 302.261 634.754 301.305 635.914 301.305C637.074 301.305 638.03 302.261 638.03 303.421V354.059C638.03 355.219 637.074 356.175 635.914 356.175Z" fill="white"/>
<path d="M472.807 555.725L536.207 555.93" stroke="#FFDDA1" stroke-width="1.5"/>
<path d="M249.029 372.69H242.887L143.726 372.076L84.3518 371.735L83.8058 464.413L248.483 465.436L249.029 372.69Z" fill="#FFC866"/>
<path d="M199.3 436.43C217.662 430.494 227.735 410.796 221.799 392.434C215.863 374.072 196.166 363.999 177.804 369.935C159.442 375.871 149.369 395.569 155.305 413.931C161.241 432.292 180.938 442.366 199.3 436.43Z" fill="#EA8B00"/>
<path d="M207.331 416.504L178.258 422.919C175.938 423.397 173.617 421.759 173.071 419.166L172.798 418.074C172.525 416.845 172.116 415.89 173.276 415.617L208.832 407.768C209.924 407.495 209.992 408.587 210.265 409.816L210.538 410.908C211.016 413.501 209.583 416.026 207.331 416.504Z" fill="white"/>
<path fill-rule="evenodd" clip-rule="evenodd" d="M185.151 381.835L184.537 381.972C174.777 384.155 167.27 393.096 169.113 401.695C169.25 402.241 169.727 402.582 170.205 402.445L206.58 394.461C207.058 394.324 207.399 393.846 207.262 393.3C205.352 384.701 194.773 379.72 185.151 381.835ZM177.03 392.004C176.279 392.345 175.392 392.072 175.119 391.458C174.846 390.844 175.187 390.025 176.006 389.683C176.757 389.342 177.644 389.615 177.917 390.229C178.19 390.844 177.848 391.663 177.03 392.004ZM181.875 386.408C182.08 387.09 182.899 387.431 183.718 387.158C184.537 386.885 185.014 386.135 184.81 385.452C184.605 384.77 183.786 384.428 182.967 384.701C182.148 384.974 181.67 385.725 181.875 386.408ZM189.928 390.775C189.109 391.048 188.29 390.707 188.085 390.025C187.881 389.342 188.358 388.591 189.177 388.318C189.996 388.046 190.815 388.387 191.02 389.069C191.225 389.82 190.747 390.571 189.928 390.775ZM195.797 387.227C196.616 387.363 197.435 386.885 197.503 386.203C197.64 385.52 197.026 384.838 196.138 384.701C195.319 384.565 194.5 385.043 194.432 385.725C194.364 386.408 194.978 387.09 195.797 387.227Z" fill="white"/>
<path d="M204.396 404.356C202.895 404.834 201.393 404.902 199.892 404.288C197.913 403.401 195.661 403.742 194.159 405.175C191.225 407.837 187.471 408.656 184.195 407.427C181.875 406.54 180.851 407.154 178.258 409.406C175.528 411.727 171.57 410.567 169.659 409.475C168.772 408.997 168.499 407.905 168.977 407.018C169.454 406.131 170.546 405.858 171.365 406.335C172.116 406.745 174.641 407.768 175.869 406.677C178.326 404.561 180.92 402.309 185.424 404.015C188.427 405.175 191.02 403.128 191.702 402.445C194.296 400.125 198.049 399.511 201.257 400.944C202.69 401.558 204.942 400.261 206.102 398.624C206.716 397.805 207.808 397.668 208.627 398.214C209.446 398.76 209.583 399.92 209.037 400.739C207.945 402.377 206.239 403.742 204.396 404.356Z" fill="white"/>
<path d="M84.3548 371.745L131.444 372.021L130.9 464.767L83.8105 464.491L84.3548 371.745Z" fill="#EFAA3A"/>
<path d="M256.126 294.344L110.558 293.525L111.582 168.908L256.741 175.596L256.126 294.344Z" fill="#FFC866"/>
<path d="M72.6291 293.385L250.205 294.366L249.773 372.575L72.1973 371.595L72.6291 293.385Z" fill="#EFAA3A"/>
<path d="M88.1735 293.389L110.558 293.525L111.582 168.908L88.856 174.709L88.1735 293.389Z" fill="#EFAA3A"/>
<path d="M178.615 294.019L250.273 294.415L249.842 372.624L178.183 372.229L178.615 294.019Z" fill="#FFC866"/>
<path d="M84.3518 371.735L248.892 372.622V378.013L84.5565 377.126L84.3518 371.735Z" fill="#EA8B00"/>
<path d="M88.2418 287.997L255.99 289.021V294.481L88.4465 293.389L88.2418 287.997Z" fill="#EA8B00"/>
<path d="M139.358 475.537C138.539 475.537 137.925 474.854 137.925 474.035L141.61 168.977C141.61 168.158 142.292 167.475 143.111 167.543C143.93 167.543 144.545 168.226 144.545 169.045L140.859 474.103C140.791 474.922 140.177 475.537 139.358 475.537Z" fill="#C82C2F"/>
<path d="M230.602 475.059C229.784 475.059 229.169 474.376 229.169 473.558L232.855 173.959C232.855 173.14 233.537 172.525 234.288 172.525C235.107 172.525 235.721 173.208 235.721 174.027L232.036 473.626C232.104 474.445 231.421 475.059 230.602 475.059Z" fill="#C82C2F"/>
<path fill-rule="evenodd" clip-rule="evenodd" d="M168.908 172.321H169.25C169.591 172.321 169.864 172.184 170.137 171.979C170.478 171.706 170.683 171.297 170.683 170.819C170.683 170.273 170.205 157.716 165.632 148.093C162.561 141.678 156.897 137.106 151.506 136.628C148.708 136.355 144.613 137.106 141.269 141.883C138.198 146.251 137.447 150.55 139.017 154.577C143.657 166.656 167.885 172.116 168.908 172.321ZM143.657 143.589C145.568 140.859 147.889 139.494 150.55 139.494C150.755 139.494 151.028 139.494 151.301 139.563C155.669 139.904 160.446 143.862 163.039 149.39C166.315 156.351 167.339 165.155 167.68 169.045C162.015 167.543 145.159 162.357 141.746 153.553C140.518 150.414 141.132 147.138 143.657 143.589Z" fill="#C82C2F"/>
<path fill-rule="evenodd" clip-rule="evenodd" d="M168.089 172.525C168.362 172.867 168.772 173.071 169.181 173.071C169.181 173.071 169.25 173.071 169.318 173.003C169.795 173.003 181.739 171.979 191.156 167.612C197.026 164.882 201.53 159.559 202.69 154.099C203.372 150.755 202.758 147.616 200.847 145.432C197.435 141.474 193.272 139.972 188.836 140.996C180.169 143.043 172.116 154.577 167.816 171.229C167.68 171.706 167.816 172.184 168.089 172.525ZM189.45 143.794C190.133 143.657 190.747 143.589 191.429 143.589C194.023 143.589 196.48 144.886 198.663 147.274C199.96 148.776 200.37 151.028 199.824 153.485C198.8 158.125 194.91 162.63 189.928 164.95C183.24 168.089 174.982 169.386 171.16 169.864C175.255 155.6 182.284 145.432 189.45 143.794Z" fill="#C82C2F"/>
<path d="M161.538 172.662C148.844 172.662 136.082 167.953 123.73 163.38C112.333 159.217 101.55 155.259 90.9716 154.645C67.2221 153.348 63.6733 169.932 63.6733 170.069C63.5368 170.888 62.7861 171.365 61.9672 171.229C61.1482 171.092 60.6705 170.342 60.807 169.523C60.8752 169.318 64.9017 150.277 91.1081 151.71C102.096 152.325 113.561 156.556 124.685 160.582C139.29 165.974 154.44 171.502 168.908 169.045C169.727 168.908 170.478 169.454 170.614 170.205C170.751 171.024 170.205 171.775 169.454 171.911C166.793 172.457 164.131 172.662 161.538 172.662Z" fill="#C82C2F"/>
<path d="M63.9463 218.182C41.1522 218.182 29.8916 197.981 29.8234 197.708C29.4139 197.026 29.6869 196.138 30.4376 195.729C31.1201 195.319 32.0072 195.592 32.4167 196.343C32.5532 196.548 44.3597 217.704 68.1093 215.042C83.9423 213.268 92.3365 206.716 102.096 199.209C107.555 194.978 113.151 190.61 120.59 186.584C147.07 172.252 168.431 170.069 169.318 169.932C170.137 169.864 170.819 170.41 170.887 171.229C170.956 172.048 170.41 172.73 169.591 172.798C169.386 172.798 147.82 175.119 121.955 189.109C114.721 192.999 109.193 197.299 103.802 201.462C94.1109 208.969 85.0342 216.066 68.3822 217.909C66.8126 218.114 65.3794 218.182 63.9463 218.182Z" fill="#C82C2F"/>
<path d="M222.236 231.832C223.674 212.588 209.239 195.823 189.995 194.385C170.751 192.948 153.986 207.383 152.548 226.627C151.111 245.87 165.546 262.636 184.79 264.073C204.034 265.511 220.799 251.076 222.236 231.832Z" fill="#EA8B00"/>
<path d="M199.755 248.619L170.41 243.569C168.089 243.16 166.588 240.703 166.997 238.178L167.202 237.086C167.407 235.857 167.407 234.834 168.567 234.97L204.396 241.112C205.488 241.317 205.147 242.273 204.942 243.501L204.737 244.593C204.328 247.254 202.076 249.029 199.755 248.619Z" fill="white"/>
<path fill-rule="evenodd" clip-rule="evenodd" d="M192.385 208.15L191.771 208.013C181.875 206.307 171.57 211.767 170.068 220.434C170 220.98 170.273 221.458 170.751 221.526L207.467 227.873C207.945 227.941 208.423 227.6 208.559 227.054C209.992 218.455 202.007 209.856 192.385 208.15ZM180.988 214.496C180.169 214.496 179.418 213.95 179.418 213.268C179.418 212.586 180.032 211.971 180.92 211.971C181.738 211.971 182.489 212.517 182.489 213.2C182.489 213.882 181.875 214.496 180.988 214.496ZM187.608 211.084C187.539 211.835 188.222 212.449 189.041 212.517C189.86 212.586 190.61 212.108 190.679 211.357C190.747 210.606 190.064 209.992 189.246 209.924C188.358 209.856 187.676 210.402 187.608 211.084ZM193.409 218.25C192.59 218.182 191.907 217.568 191.975 216.817C192.044 216.134 192.726 215.588 193.613 215.657C194.432 215.725 195.115 216.339 195.046 217.09C194.978 217.772 194.227 218.318 193.409 218.25ZM200.165 217.226C200.916 217.636 201.803 217.499 202.144 216.885C202.485 216.271 202.212 215.384 201.462 214.974C200.711 214.565 199.824 214.701 199.482 215.315C199.141 215.93 199.414 216.817 200.165 217.226Z" fill="white"/>
<path d="M201.666 236.267C200.097 236.199 198.663 235.653 197.572 234.561C196.07 232.991 193.886 232.513 191.907 233.196C188.154 234.561 184.4 233.946 181.807 231.49C179.964 229.783 178.804 229.988 175.528 231.08C172.116 232.24 168.908 229.647 167.543 227.873C166.929 227.122 167.066 225.962 167.816 225.348C168.567 224.733 169.727 224.87 170.341 225.62C170.887 226.303 172.867 228.146 174.436 227.668C177.575 226.644 180.783 225.552 184.264 228.828C186.652 231.012 189.791 230.125 190.679 229.783C193.954 228.555 197.64 229.442 200.097 231.967C201.189 233.059 203.782 232.718 205.488 231.694C206.307 231.148 207.399 231.421 207.945 232.24C208.491 233.059 208.218 234.151 207.399 234.697C205.693 235.789 203.645 236.403 201.666 236.267Z" fill="white"/>
<path d="M496.079 525.492L493.212 524.946C503.244 474.991 517.781 393.71 513.959 388.387C509.796 383.814 491.233 383.405 454.176 382.586C442.642 382.313 429.539 382.04 414.388 381.63C373.031 380.402 356.994 372.281 350.783 365.729C347.166 361.839 347.166 358.768 347.166 358.427L350.101 358.495C350.101 358.7 350.92 376.853 414.457 378.764C429.675 379.242 442.71 379.515 454.244 379.719C494.509 380.538 511.161 380.948 516.143 386.476C517.371 387.841 520.306 391.116 508.499 459.089C502.767 492.325 496.147 525.151 496.079 525.492Z" fill="#FFDDA1"/>
</svg>
