<svg width="632" height="700" viewBox="0 0 632 700" fill="none" xmlns="http://www.w3.org/2000/svg">
<path d="M4.64985 426C-9.37515 343.2 14.5499 280.875 58.9499 243.825C103.35 206.85 162.225 206.325 214.125 162.375C266.025 118.425 306.225 78.525 366.75 61.05C427.275 43.575 522.9 61.95 573.075 106.5C654.75 179.1 648.375 404.7 568.275 492.3C470.775 598.875 336.3 596.25 217.35 585.45C100.875 574.95 21.1499 523.5 4.64985 426Z" fill="#E5F8FF"/>
<path d="M98.475 172.05C126 187.05 162.075 177.75 215.7 136.575C269.325 95.325 293.85 65.775 292.8 39.75C291.75 13.725 249.45 1.5 212.175 9.675C174.9 17.85 128.175 49.05 108.075 75.3C87.9 101.55 53.925 147.825 98.475 172.05Z" fill="#E5F8FF"/>
<path d="M536.025 698.25H122.925C90.3001 698.25 63.6001 670.875 63.6001 637.425V623.1C63.6001 607.05 61.3501 594 76.9501 594H431.25L451.575 598.875C456.675 600.075 462.075 600.225 467.25 599.25L495.15 594H582C597.6 594 595.35 607.125 595.35 623.1V637.425C595.35 670.875 568.65 698.25 536.025 698.25Z" fill="#F49D3D"/>
<path d="M565.5 594.975H489.3C489.225 594.975 489.15 594.975 489 594.975L471 599.025C464.475 600.525 457.65 600.45 451.125 598.8L435.675 594.975C435.6 594.975 435.45 594.975 435.375 594.975H352.5L333.975 597C327.375 598.35 319.35 597.675 312.75 596.325L295.125 594.975H235.425L231.075 596.475C223.5 599.1 207.975 598.575 200.775 594.975H94.3502C71.3252 594.975 52.5752 576.15 52.5752 553.2C52.5752 530.175 71.4002 511.425 94.3502 511.425H565.5C586.125 511.425 602.925 528.3 602.925 548.85V557.55C602.925 578.1 586.125 594.975 565.5 594.975Z" fill="#75342C"/>
<path d="M78.0752 523.2C78.0752 523.2 109.05 555.075 118.425 566.4C127.8 577.65 128.775 588.9 169.125 575.775C209.475 562.65 323.925 543.9 323.925 543.9C323.925 543.9 358.65 563.625 409.35 573C460.05 582.375 497.55 583.35 519.15 574.875C540.75 566.4 558.075 559.725 572.625 558C588.6 556.125 600.675 569.7 600.675 569.7C600.675 569.7 616.725 514.8 564.15 507.3C525.675 501.75 78.0752 523.2 78.0752 523.2Z" fill="#5E241F"/>
<path d="M588.375 490.875H69.6002C65.1752 490.875 61.5752 487.275 61.5752 482.85V450.6C61.5752 446.175 65.1752 442.575 69.6002 442.575H588.375C592.8 442.575 596.4 446.175 596.4 450.6V482.85C596.4 487.275 592.8 490.875 588.375 490.875Z" fill="#EF0000"/>
<path d="M305.775 522.3C305.775 522.3 366.3 566.025 474.6 567.75C553.575 569.025 592.875 510.825 592.875 510.825L553.2 510.75C553.2 510.75 532.575 546.825 471.975 543C420.525 539.7 380.475 504.375 380.475 504.375L305.775 522.3Z" fill="#C663A3"/>
<path d="M385.05 526.5C385.05 526.5 409.425 543.225 454.05 548.7C497.625 554.1 521.925 542.85 539.025 532.8C558.975 520.95 570.225 506.625 570.225 506.625L553.65 504C553.65 504 552.3 511.275 534.375 523.875C516.45 536.475 494.55 544.425 466.725 540.45C438.825 536.475 430.875 534.45 414.975 523.875C399 513.225 385.05 526.5 385.05 526.5Z" fill="#F4B8DA"/>
<path d="M349.275 529.8C310.35 534.45 205.875 555.375 159.075 565.65C145.2 568.65 121.425 574.275 104.775 555C101.25 550.95 98.3999 548.1 98.3999 548.025C87.3749 536.625 75.2249 523.65 72.5999 522.6C64.7999 519.45 56.9249 518.175 57.9749 505.8C58.7249 496.8 64.6499 491.025 71.0249 491.025H589.425C595.8 491.025 600.975 496.275 600.975 502.575C600.975 504.825 598.65 526.05 596.55 523.95C571.425 498.9 403.8 523.275 349.275 529.8Z" fill="#FFBB12"/>
<path d="M409.725 486.225H82.7248C79.6498 486.225 77.1748 483.75 77.1748 480.675V452.625C77.1748 449.55 79.6498 447.075 82.7248 447.075H409.725C420.525 447.075 429.3 455.85 429.3 466.65C429.3 477.45 420.45 486.225 409.725 486.225Z" fill="#F43B49"/>
<path d="M250.575 486.525H159.825C157.35 486.525 155.4 484.5 155.4 482.1V448.95C155.4 446.475 157.425 444.525 159.825 444.525H250.575C253.05 444.525 255 446.55 255 448.95V482.1C255.075 484.5 253.05 486.525 250.575 486.525Z" fill="#FF979B"/>
<path d="M63.9752 455.7C63.9752 455.7 57.0002 467.625 78.7502 463.725C100.5 459.75 108.375 451.875 121.2 457.8C134.025 463.725 155.775 486.45 194.25 471.6C232.725 456.825 239.7 449.85 253.5 457.8C267.3 465.675 285.075 479.55 303.825 472.575C322.575 465.675 324.525 454.8 341.325 460.725C358.125 466.65 371.325 482.1 409.65 486.225C447.975 490.35 497.325 491.325 525.975 477.525C554.625 463.725 567.45 462.75 578.325 468.675C589.2 474.6 594.15 475.575 594.15 475.575V456.825L534.9 444L69.6002 442.65L63.9752 455.7Z" fill="#C10017"/>
<path d="M57.0749 405.9C45.2999 415.575 35.6249 422.475 41.1749 438.375C46.7249 454.275 55.7249 455.625 63.9749 455.625C72.2999 455.625 88.1999 452.175 98.5499 448.05C108.9 443.925 124.8 446.7 136.575 454.275C148.35 461.85 175.95 475.05 214.05 456.375C252.075 437.7 262.425 448.8 272.1 454.275C281.775 459.825 304.575 466.05 316.35 454.95C328.125 443.85 341.4 448.425 358.5 455.625C506.775 518.325 525.45 440.025 573.15 455.325C594.15 462.075 612.9 473.625 619.125 452.85C625.35 432.075 612.225 420.375 598.35 412.725C584.55 405.15 572.775 399.6 572.775 399.6L57.0749 405.9Z" fill="#71BC06"/>
<path d="M75.1498 389.55C75.1498 389.55 72.8248 394.35 56.9248 408.975C36.5998 427.725 47.3998 442.725 69.5998 442.575C91.8748 442.35 104.775 428.175 118.95 424.35C133.125 420.45 144.75 433.35 156.3 441.075C167.925 448.8 185.925 455.25 218.175 429.45C250.425 403.65 261.975 426.9 277.425 434.625C292.875 442.35 307.05 438.525 319.95 424.35C332.85 410.175 357.675 422.775 384.375 432.075C414 442.35 433.65 461.85 482.325 451.425C518.4 443.7 528.75 425.625 549.375 426.975C570 428.25 584.175 446.325 598.35 435.975C612.525 425.7 586.725 403.725 586.725 403.725L75.1498 389.55Z" fill="#6B9E1A"/>
<path d="M332.775 200.475H323.775C184.8 200.475 55.9502 291.825 55.9502 403.425C55.9502 410.25 61.4252 415.725 68.2502 415.725C68.2502 415.725 114.75 420.75 204.675 420.75C298.575 420.75 404.4 415.725 404.4 415.725L441.45 415.5C447.9 414.975 485.1 415.725 485.1 415.725C485.1 415.725 507.6 419.475 535.35 419.475C564.45 419.475 585.225 415.725 585.225 415.725C592.275 415.725 598.05 409.95 598.05 402.9C598.05 291.6 468.975 200.475 332.775 200.475Z" fill="#F49D3D"/>
<path d="M94.4251 519.675C109.65 541.425 118.875 553.2 133.05 554.475C147.225 555.75 191.025 542.85 225.825 533.85C260.625 524.85 307.05 505.5 220.65 504.225C134.4 502.95 76.4251 493.95 94.4251 519.675Z" fill="#FFE576"/>
<path d="M309.375 212.175C249.75 207.6 181.2 228.9 124.35 281.55C82.6499 320.175 64.5749 396.225 69.5249 403.725C71.6249 406.875 139.5 413.4 222 411.525C337.05 408.9 426.6 410.925 440.55 407.55C454.275 404.175 449.85 222.9 309.375 212.175Z" fill="#FFAE4D"/>
<path d="M395.475 686.7H302.625C302.625 686.7 280.05 683.625 248.4 683.625C230.325 683.625 205.125 686.7 205.125 686.7H127.125C96.4502 686.7 71.3252 661.575 71.3252 630.9V608.4C71.3252 604.875 74.1752 602.025 77.7002 602.025C77.7002 602.025 184.725 608.55 266.7 608.55C355.65 608.55 435.75 602.025 435.75 602.025C439.275 602.025 442.125 604.875 442.125 608.4V640.125C442.125 665.7 421.125 686.7 395.475 686.7Z" fill="#FFAE4D"/>
<path d="M182.25 573.525C181.275 582.9 207.6 583.275 222.6 578.55C237.6 573.825 261.075 581.4 269.55 583.275C278.025 585.15 293.025 584.25 305.175 578.55C317.4 572.925 331.425 576.675 339.9 580.425C348.375 584.175 397.125 580.425 386.85 574.8C376.125 568.95 339 552.525 328.65 553.125C318.3 553.725 306.15 546.225 293.025 552.75C279.9 559.275 265.8 558.825 258.3 556.95C250.725 555.15 182.25 573.525 182.25 573.525Z" fill="#8E4640"/>
<path d="M441.15 648.975C445.334 648.975 448.725 645.046 448.725 640.2C448.725 635.354 445.334 631.425 441.15 631.425C436.967 631.425 433.575 635.354 433.575 640.2C433.575 645.046 436.967 648.975 441.15 648.975Z" fill="#F49D3D"/>
<path d="M441.171 616.811C443.623 616.404 445.291 614.153 444.898 611.783C444.505 609.413 442.199 607.821 439.747 608.228C437.295 608.635 435.626 610.886 436.02 613.256C436.413 615.626 438.719 617.218 441.171 616.811Z" fill="#F49D3D"/>
<path d="M80.8515 648.115C83.0218 644.783 82.0802 640.323 78.7484 638.153C75.4165 635.982 70.9561 636.924 68.7857 640.256C66.6154 643.588 67.557 648.048 70.8888 650.218C74.2207 652.389 78.6811 651.447 80.8515 648.115Z" fill="#F49D3D"/>
<path d="M100.35 685.425C103.415 685.425 105.9 682.94 105.9 679.875C105.9 676.81 103.415 674.325 100.35 674.325C97.2846 674.325 94.7998 676.81 94.7998 679.875C94.7998 682.94 97.2846 685.425 100.35 685.425Z" fill="#F49D3D"/>
<path d="M76.7248 662.7C79.79 662.7 82.2748 660.215 82.2748 657.15C82.2748 654.085 79.79 651.6 76.7248 651.6C73.6596 651.6 71.1748 654.085 71.1748 657.15C71.1748 660.215 73.6596 662.7 76.7248 662.7Z" fill="#F49D3D"/>
<path d="M127.65 607.8C130.715 607.8 133.2 605.315 133.2 602.25C133.2 599.185 130.715 596.7 127.65 596.7C124.585 596.7 122.1 599.185 122.1 602.25C122.1 605.315 124.585 607.8 127.65 607.8Z" fill="#F49D3D"/>
<path d="M431.25 660.225C434.315 660.225 436.8 657.74 436.8 654.675C436.8 651.61 434.315 649.125 431.25 649.125C428.185 649.125 425.7 651.61 425.7 654.675C425.7 657.74 428.185 660.225 431.25 660.225Z" fill="#F49D3D"/>
<path d="M357.15 692.475C360.215 692.475 362.7 689.99 362.7 686.925C362.7 683.86 360.215 681.375 357.15 681.375C354.085 681.375 351.6 683.86 351.6 686.925C351.6 689.99 354.085 692.475 357.15 692.475Z" fill="#F49D3D"/>
<path d="M121.994 317.22C126.586 314.569 128.646 309.541 126.596 305.99C124.545 302.439 119.161 301.709 114.569 304.36C109.978 307.011 107.918 312.039 109.968 315.59C112.019 319.141 117.403 319.871 121.994 317.22Z" fill="white"/>
<path d="M236.155 304.232C236.411 300.14 232.329 296.554 227.038 296.223C221.746 295.892 217.249 298.941 216.993 303.034C216.737 307.126 220.819 310.712 226.111 311.043C231.402 311.374 235.899 308.325 236.155 304.232Z" fill="white"/>
<path d="M270.023 337.293C275.321 337.076 279.479 333.578 279.311 329.48C279.143 325.383 274.712 322.237 269.415 322.455C264.117 322.672 259.959 326.17 260.127 330.267C260.295 334.365 264.725 337.51 270.023 337.293Z" fill="white"/>
<path d="M526.402 293.462C528.452 289.911 526.392 284.883 521.801 282.232C517.209 279.581 511.825 280.311 509.775 283.862C507.724 287.413 509.784 292.441 514.376 295.092C518.967 297.743 524.351 297.013 526.402 293.462Z" fill="white"/>
<path d="M564.425 320.685C566.476 317.134 564.416 312.106 559.824 309.455C555.233 306.804 549.848 307.534 547.798 311.085C545.748 314.636 547.808 319.664 552.399 322.315C556.991 324.966 562.375 324.236 564.425 320.685Z" fill="white"/>
<path d="M465.232 292.177C465.419 288.08 461.278 284.562 455.981 284.32C450.684 284.077 446.239 287.201 446.051 291.298C445.863 295.394 450.005 298.912 455.301 299.155C460.598 299.398 465.044 296.273 465.232 292.177Z" fill="white"/>
<path d="M402.231 286.99C402.669 282.913 398.751 279.148 393.479 278.582C388.207 278.016 383.579 280.862 383.141 284.94C382.703 289.017 386.621 292.781 391.893 293.348C397.165 293.914 401.793 291.068 402.231 286.99Z" fill="white"/>
<path d="M423.784 336.546C423.971 332.449 419.829 328.932 414.532 328.691C409.235 328.449 404.79 331.574 404.603 335.67C404.416 339.767 408.558 343.284 413.855 343.526C419.151 343.768 423.597 340.643 423.784 336.546Z" fill="white"/>
<path d="M436.507 235.953C437.27 231.924 433.666 227.858 428.457 226.872C423.248 225.885 418.406 228.351 417.643 232.38C416.88 236.409 420.484 240.475 425.693 241.462C430.902 242.449 435.744 239.982 436.507 235.953Z" fill="white"/>
<path d="M156.634 276.903C161.836 275.884 165.415 271.796 164.627 267.772C163.839 263.747 158.982 261.311 153.779 262.33C148.577 263.35 144.998 267.438 145.786 271.462C146.574 275.486 151.431 277.922 156.634 276.903Z" fill="white"/>
<path d="M266.369 238.234C271.542 237.075 275.01 232.892 274.113 228.89C273.217 224.889 268.296 222.585 263.123 223.744C257.949 224.903 254.482 229.086 255.378 233.087C256.274 237.089 261.195 239.393 266.369 238.234Z" fill="white"/>
<path d="M187.35 253.8C187.35 253.8 187.65 266.325 218.625 252.675C254.775 236.7 258.225 229.425 253.125 223.275C248.025 217.125 286.275 209.325 305.85 209.325C317.25 209.325 331.725 210.975 337.425 212.85C343.125 214.725 341.4 206.625 340.125 200.775L339.15 201.15C339.15 201.15 308.925 199.05 276.975 204.525C248.1 209.55 233.1 213.9 233.1 213.9L187.35 253.8Z" fill="#DD853C"/>
<path d="M299.775 389.7C299.775 389.7 311.475 401.925 323.775 394.95C334.875 388.725 337.425 361.725 339 349.2C339.9 342 337.275 339.6 337.275 339.6L340.125 317.625C340.125 317.625 345.375 319.8 347.1 314.025C348.75 308.25 355.05 271.65 356.475 265.5C357.9 259.35 382.35 230.55 382.35 230.55L386.925 214.65L346.125 242.85L325.2 302.325L312.6 369.375L299.775 389.7Z" fill="#DD853C"/>
<path d="M381.45 86.475L418.05 75.225L404.775 89.475L388.5 97.2L382.575 96.975C382.575 96.9 375.975 90.15 381.45 86.475Z" fill="#D67500"/>
<path d="M277.125 63.75C278.175 61.575 280.875 65.775 284.1 70.875C287.325 75.975 289.2 78.15 290.325 79.425C291.375 80.7 291.75 84.675 291.6 88.725C291.45 92.775 292.05 98.025 292.05 98.025L283.575 102.3C283.575 102.3 278.1 99 274.425 96.45C270.675 93.975 268.05 86.025 266.7 82.05C265.275 78 265.275 77.1 265.275 77.1L267.45 69.525L269.475 68.775L273.075 72.45L275.175 74.4C275.175 74.4 283.425 82.725 281.4 77.775C279.3 72.75 274.8 68.55 277.125 63.75Z" fill="#FFA171"/>
<path d="M275.1 74.4C275.1 74.4 280.35 81.15 283.2 84.975C286.05 88.8 285.9 90.975 284.025 91.8C281.85 92.775 280.5 94.275 278.025 91.575C276.3 89.625 273.525 83.175 273 79.725C272.25 75.3 275.1 74.4 275.1 74.4Z" fill="#F37E4E"/>
<path d="M280.35 92.55C279.375 92.925 278.325 92.475 277.95 91.5L264.6 57.375C264.225 56.4 264.675 55.35 265.65 54.975C266.625 54.6 267.675 55.05 268.05 56.025L281.4 90.15C281.775 91.125 281.325 92.175 280.35 92.55Z" fill="#333333"/>
<path d="M271.2 67.35C272.4 70.125 268.125 70.95 265.275 71.4C262.5 71.85 260.925 72.45 260.475 69.525C260.025 66.6 263.4 66.45 266.25 66.3C269.025 66.075 270.6 65.925 271.2 67.35Z" fill="#FFA171"/>
<path d="M287.7 109.575C287.1 109.95 286.275 109.8 285.9 109.2L282.9 104.475C282.525 103.875 282.675 103.05 283.275 102.675C283.875 102.3 284.7 102.45 285.075 103.05L288.075 107.775C288.525 108.375 288.3 109.2 287.7 109.575Z" fill="#333333"/>
<path d="M262.35 75.225C263.025 77.85 265.125 77.4 268.575 75.975C272.025 74.55 272.625 73.8 272.025 71.925C271.425 70.05 268.95 71.025 266.925 71.625C264.9 72.3 261.75 72.75 262.35 75.225Z" fill="#FFA171"/>
<path d="M264.9 80.25C265.575 82.875 267.675 82.425 271.125 81C274.575 79.575 275.175 78.825 274.575 76.95C273.975 75.075 271.5 76.05 269.475 76.65C267.375 77.25 264.225 77.775 264.9 80.25Z" fill="#FFA171"/>
<path d="M351.15 128.775L345.225 105.975C345.225 105.975 340.425 108.3 335.175 110.85L342.525 132.375C347.7 130.125 351.15 128.775 351.15 128.775Z" fill="#FFA171"/>
<path d="M329.325 113.55C326.55 114.825 324.15 115.95 322.8 116.55C318.075 118.5 316.125 120.9 312.15 116.925C308.25 113.025 289.05 90.675 289.05 90.675L279.975 95.775C279.975 95.775 286.875 109.425 296.325 123.975C305.775 138.525 306.15 138.9 310.125 140.925C314.025 142.875 316.425 144.825 328.2 138.975C328.35 138.9 328.5 138.825 328.575 138.75C328.35 136.875 328.2 134.55 327.975 131.7C327.75 125.925 328.425 119.25 329.325 113.55Z" fill="#FFA171"/>
<path d="M335.175 110.775C333.225 111.75 331.2 112.65 329.325 113.55C328.425 119.175 327.75 125.85 328.125 131.7C328.35 134.55 328.5 136.8 328.725 138.75C333.75 136.275 338.625 134.025 342.525 132.3L335.175 110.775Z" fill="#F37E4E"/>
<path d="M374.775 87.825C374.775 87.825 353.925 98.025 346.05 102.375C338.175 106.725 333.825 107.1 333.45 109.05C333.075 111 332.25 120.825 337.35 131.1C342.45 141.3 344.4 145.275 347.175 148.05C349.95 150.825 365.7 125.25 369.225 113.4C372.825 101.625 374.775 87.825 374.775 87.825Z" fill="#FFC648"/>
<path d="M429.525 152.475C429.525 152.475 432.3 168.6 439.35 191.475C446.4 214.275 448.8 222.15 450.75 226.125C452.7 230.025 459.9 232.875 464.4 227.925C466.125 226.05 462.975 216.675 460.95 210.75C459 204.825 453.075 159.6 452.325 153.675C451.575 147.75 429.525 152.475 429.525 152.475Z" fill="#FFA171"/>
<path d="M373.875 93.525C370.05 99.6 363.975 109.05 357.9 118.125C351.3 128.025 344.025 133.35 339.825 135.9C343.125 142.425 344.85 145.5 346.95 147.75L356.7 138.15C361.8 130.35 367.35 119.85 369.3 113.4C371.4 106.35 372.9 98.625 373.875 93.525Z" fill="#EDA320"/>
<path d="M458.4 215.1C458.4 215.1 459.075 218.175 464.55 220.35C470.025 222.525 473.775 222.45 476.55 225.375C479.325 228.3 487.425 235.425 489.3 237.225C491.175 239.1 488.025 241.35 480.45 237.75C472.95 234.15 470.025 230.325 466.275 230.4C462.525 230.475 458.4 230.4 454.425 228.75C450.525 227.1 445.95 219.45 458.4 215.1Z" fill="#FFA171"/>
<path d="M226.875 188.025L220.275 205.05C219.975 205.725 217.2 211.575 216.825 212.25L210.15 224.025L211.65 229.725H233.85L236.775 221.925C236.775 221.925 234.45 222.225 235.275 216.75C236.025 211.275 243.975 191.55 243.975 191.55L226.875 188.025Z" fill="#FFA171"/>
<path d="M228.525 181.95L224.475 194.025L221.025 202.65C221.025 202.65 224.7 206.1 229.875 206.625C235.2 207.15 238.425 206.4 238.425 206.4L244.2 191.925L228.525 181.95Z" fill="#F37E4E"/>
<path d="M316.5 306.15C316.5 306.15 316.425 316.2 316.125 323.85C315.825 331.725 314.55 338.1 314.55 338.1L308.7 353.325L319.575 366.975L325.8 358.05L330.9 340.125L333.6 322.2L337.5 303L316.5 306.15Z" fill="#FFA171"/>
<path d="M322.35 322.575C328.05 323.175 333.6 322.125 333.6 322.125L335.1 312.75L336.975 301.275L316.5 298.8V309.9L316.05 320.1C316.125 320.1 318.225 322.125 322.35 322.575Z" fill="#F37E4E"/>
<path d="M386.175 67.35C386.175 67.35 386.175 67.425 386.175 67.5C386.25 67.35 386.4 67.2 386.475 67.05L386.175 67.35Z" fill="#FFA171"/>
<path d="M411 68.55C410.775 64.95 410.325 58.8 409.95 54.15C409.725 56.1 408.45 65.1 405.825 68.85C402.9 73.125 397.35 79.2 390.45 80.775C388.65 81.15 387.3 81.15 386.175 80.775C386.1 81.675 385.95 82.575 385.8 83.475C384.225 92.55 379.5 95.25 379.5 95.25C391.725 104.7 412.2 86.175 412.2 86.175C412.2 86.175 411.375 74.85 411 68.55Z" fill="#FFA171"/>
<path d="M409.95 53.7H409.875C409.875 53.85 409.875 54 409.875 54.15C409.95 53.925 409.95 53.7 409.95 53.7Z" fill="#F37E4E"/>
<path d="M390.45 80.7C397.35 79.125 404.4 73.35 407.25 69.075C411.3 62.925 409.8 56.1 410.1 54.15C410.1 54 409.95 53.85 409.95 53.7L404.1 52.5L386.55 67.05C386.475 67.2 386.325 67.35 386.25 67.5C386.4 68.475 387.075 73.8 386.25 80.7C387.3 81.075 388.65 81.15 390.45 80.7Z" fill="#F37E4E"/>
<path d="M371.7 212.85C382.2 190.5 362.475 181.275 362.475 181.275C372 180.525 380.925 181.875 388.875 184.125L330.675 151.95C330.675 151.95 321.9 147.6 306.75 139.8C291.525 132 272.025 119.025 261.525 121.35C251.025 123.675 244.2 129.15 238.35 145.125C232.5 161.1 219.825 191.475 219.825 191.475C219.825 191.475 219.825 191.475 229.575 196.575C233.775 198.75 237.75 200.325 240.825 201.375C244.05 194.85 258.075 166.125 260.775 160.05C263.85 153.225 266.85 152.4 279.825 161.55C292.8 170.7 331.65 196.725 331.275 203.925C331.275 203.925 331.125 207.6 325.05 220.35C319.125 232.8 314.175 240.3 312.975 261.675C312.45 270.225 312.6 306.45 312.6 306.45C312.6 306.45 314.4 311.025 323.925 312.3C328.725 312.975 332.4 312.975 335.175 312.675C337.575 297.75 342.225 268.95 344.1 257.475C346.725 241.8 361.2 235.2 371.7 212.85Z" fill="#E82A2A"/>
<path d="M343.35 309.225L342.9 309.825C343.275 309.45 343.35 309.225 343.35 309.225Z" fill="#FF7415"/>
<path d="M407.25 194.325L388.875 184.125C381 181.875 372.075 180.525 362.475 181.275C362.475 181.275 382.2 190.5 371.7 212.85C361.2 235.2 346.725 241.8 344.1 257.55C342.225 269.025 337.575 297.825 335.175 312.75C340.05 312.225 342.15 310.65 342.975 309.825L343.425 309.225C343.425 309.225 352.8 270.675 354.3 264C355.875 257.4 373.425 238.275 382.35 230.475C391.275 222.675 407.175 214.575 407.925 207.975C408.75 201.45 407.25 194.325 407.25 194.325Z" fill="#CC1B1B"/>
<path d="M279.825 161.625C266.85 152.475 263.85 153.225 260.775 160.125C258.075 166.2 244.05 194.925 240.825 201.45C244.875 202.8 247.5 203.325 247.5 203.325C247.5 203.325 250.2 199.05 251.775 194.775C253.35 190.5 268.95 168.675 268.95 168.675C268.95 168.675 279.525 176.1 295.8 185.4C316.5 197.25 331.275 204 331.275 204C331.65 196.8 292.8 170.775 279.825 161.625Z" fill="#CC1B1B"/>
<path d="M426.375 75.975C426.375 75.975 422.025 73.2 418.125 75.225C414.225 77.175 410.625 81.525 404.775 85.875C398.85 90.225 391.8 93.375 386.25 92.925C380.775 92.55 381.525 86.475 381.525 86.475L374.85 87.825C374.85 87.825 360.675 118.95 354 131.1C347.325 143.325 342.225 148.8 338.25 150.375C334.35 151.95 332.775 152.325 330.75 151.95C328.8 151.575 326.4 150 326.4 150C326.4 150 333.45 156.3 337.8 166.95C342.15 177.6 340.575 182.7 351.6 189C362.625 195.3 370.125 196.05 381.9 195.675C393.675 195.3 397.65 193.725 402.375 195.675C407.1 197.625 408.675 200.4 408.675 200.4C408.675 200.4 409.425 173.25 413.025 160.65C416.55 148.05 420.525 141.375 422.475 139.425C424.35 137.4 426.375 75.975 426.375 75.975Z" fill="#FFC648"/>
<path d="M187.35 253.8C189.75 257.7 194.7 257.55 215.7 246.675C236.775 235.8 243.6 233.925 243.825 228.825C243.975 223.65 239.625 218.85 238.05 217.275C236.475 215.7 233.7 213.975 233.25 216.15C232.8 218.325 232.275 223.65 225.9 227.175C219.525 230.775 216.525 229.05 216.525 229.05L215.55 224.55C215.1 222.3 212.475 221.25 210.6 222.525C209.55 223.275 208.425 224.325 207.375 225.75C204.3 230.025 192.825 242.7 190.425 245.1C188.1 247.575 185.175 250.2 187.35 253.8Z" fill="white"/>
<path d="M368.325 27.3C368.325 27.3 366.075 43.125 370.425 57.675C373.95 69.525 376.725 74.85 387.15 72.375C397.575 69.9 402.15 66.15 404.1 61.65C406.05 57.225 405.45 55.05 405.45 55.05C406.125 55.35 408 54.6 410.85 53.625C415.2 52.125 417.9 47.625 415.65 42.375C410.4 30.15 397.5 39.75 397.5 39.75L388.125 26.85L368.325 27.3Z" fill="#FFA171"/>
<path d="M365.775 8.775C364.65 9.225 360.075 13.65 361.575 22.2C363.075 30.75 367.725 32.1 372.9 32.85C378.6 33.6 386.475 28.95 387.675 28.275C388.95 27.6 390.45 31.875 392.25 37.8C394.05 43.65 394.875 46.125 395.775 46.05C398.25 45.9 398.25 42.9 400.5 40.8C402.75 38.7 406.875 37.575 409.8 38.85C412.725 40.125 414.825 40.125 415.275 44.625C415.725 49.125 414.675 48.6 413.25 50.4C411.825 52.2 409.95 53.85 409.95 53.85L410.7 64.2C410.7 64.2 422.925 54.225 427.425 44.55C431.925 34.875 428.1 29.175 427.125 27.225C426.15 25.275 423.075 23.325 422.625 22.65C422.175 21.975 427.05 16.125 421.2 9.9C417 5.4 411.525 7.65 410.7 7.35C409.875 7.05 406.5 -0.300001 394.35 0.0749986C384.45 0.449999 381.225 4.275 378.3 8.475C375.9 11.85 373.2 12.825 371.175 12.375C368.175 11.55 365.775 8.775 365.775 8.775Z" fill="#5E2D1E"/>
<path d="M406.725 54.45C411.779 54.45 415.875 50.3534 415.875 45.3C415.875 40.2466 411.779 36.15 406.725 36.15C401.672 36.15 397.575 40.2466 397.575 45.3C397.575 50.3534 401.672 54.45 406.725 54.45Z" fill="#FFA171"/>
<path d="M410.635 47.3743C411.428 45.1505 410.268 42.705 408.044 41.9121C405.82 41.1193 403.375 42.2794 402.582 44.5032C401.789 46.7271 402.949 49.1726 405.173 49.9654C407.397 50.7582 409.842 49.5982 410.635 47.3743Z" fill="#F37E4E"/>
<path d="M313.425 339.375C313.425 339.375 310.725 336.075 306.375 348.375C302.025 360.675 296.4 373.35 295.05 377.7C293.7 382.05 294.15 387.6 299.7 389.7C307.275 392.55 315.6 388.8 320.7 378.675C326.7 366.75 330.375 357.675 331.725 351.675C333.075 345.675 333 340.95 331.2 340.275C331.05 340.2 329.775 342.525 328.425 346.95C324.825 358.65 322.2 355.575 321.6 356.85C321.45 357.225 320.925 357.075 320.925 356.7C321.075 354.075 320.475 350.55 316.05 349.875C310.2 348.975 308.7 353.85 308.7 353.85L313.425 339.375Z" fill="white"/>
<path d="M382.65 46.95C383.851 46.95 384.825 45.7747 384.825 44.325C384.825 42.8752 383.851 41.7 382.65 41.7C381.449 41.7 380.475 42.8752 380.475 44.325C380.475 45.7747 381.449 46.95 382.65 46.95Z" fill="#5E2D1E"/>
<path d="M369.9 47.1C370.894 47.1 371.7 45.9583 371.7 44.55C371.7 43.1417 370.894 42 369.9 42C368.906 42 368.1 43.1417 368.1 44.55C368.1 45.9583 368.906 47.1 369.9 47.1Z" fill="#5E2D1E"/>
<path d="M370.725 54.75C371.25 56.175 373.425 56.025 375.525 56.025C377.625 56.025 379.05 55.575 378.9 54.3C378.75 53.025 376.575 47.625 376.05 46.125C375.525 44.625 374.85 42.3 373.575 46.65C372.6 50.175 370.35 53.85 370.725 54.75Z" fill="#F37E4E"/>
<path d="M375.45 62.025C373.275 62.025 372.075 61.125 372 61.125C371.7 60.9 371.625 60.45 371.85 60.075C372.075 59.775 372.525 59.7 372.825 59.925C372.9 60 375.225 61.575 379.275 59.625C382.5 58.05 384.375 54.9 384.45 54.9C384.675 54.525 385.125 54.45 385.425 54.675C385.8 54.9 385.875 55.35 385.65 55.65C385.575 55.8 383.55 59.25 379.875 60.975C378.15 61.8 376.65 62.025 375.45 62.025Z" fill="#D36E4A"/>
<path d="M376.425 65.175C376.725 66.525 379.425 66.525 381.075 65.925C382.725 65.4 383.1 63.75 382.275 63C381.45 62.25 380.325 62.775 378.9 63.225C377.55 63.6 376.2 64.05 376.425 65.175Z" fill="#F37E4E"/>
<path d="M418.65 95.55C417.45 82.5 410.325 107.4 406.8 125.25C403.275 143.025 399.675 159.675 400.875 175.05C402.075 190.5 402.075 190.5 402.075 190.5C402.075 190.5 386.625 194.025 372.375 192.9C366.075 192.375 359.625 191.4 354.3 190.425C363.9 195.375 371.1 195.975 381.9 195.675C393.675 195.3 397.65 193.725 402.375 195.675C407.1 197.625 408.675 200.4 408.675 200.4C408.675 200.4 409.425 173.25 413.025 160.65C414.975 153.825 417 148.725 418.725 145.2C418.875 138.15 419.7 107.1 418.65 95.55Z" fill="#EDA320"/>
<path d="M429.9 156.975L433.425 170.325C433.425 170.325 437.4 172.425 444.525 171.375C451.65 170.325 454.35 167.175 454.35 167.175L451.65 150.675L429.9 156.975Z" fill="#F37E4E"/>
<path d="M416.475 78.75C421.2 73.65 428.25 73.275 435.375 78.375C443.625 84.3 444 96.075 449.55 114.975C455.025 133.875 462.15 144.9 462.15 144.9C462.15 144.9 458.625 156.3 443.25 158.25C427.875 160.2 424.35 158.25 422.025 156.3C419.7 154.35 414.975 119.325 414.15 107.475C414.15 107.475 411.225 84.525 416.475 78.75Z" fill="#FFC648"/>
<path d="M283.65 103.575C283.65 103.575 286.725 101.4 289.275 99.675C290.325 98.925 291 98.025 291.525 97.65C292.05 97.275 292.8 97.2 293.4 96.825C294.075 96.375 294.675 95.925 294.675 95.925L297.975 100.125C297.975 100.125 297.3 100.575 296.55 101.175C295.875 101.625 295.5 102.525 295.125 102.75C294.525 103.2 293.25 103.5 292.2 104.25C289.65 106.05 286.575 108.225 286.575 108.225L283.65 103.575Z" fill="#333333"/>
<path d="M403.376 114.645C404.433 110.512 402.751 106.512 399.621 105.712C396.491 104.912 393.097 107.615 392.04 111.748C390.984 115.882 392.665 119.882 395.796 120.682C398.926 121.482 402.32 118.779 403.376 114.645Z" fill="#FFF9EE"/>
<path d="M400.876 114.17C401.532 111.601 400.47 109.112 398.504 108.609C396.537 108.107 394.411 109.781 393.754 112.35C393.098 114.918 394.16 117.408 396.127 117.911C398.093 118.413 400.219 116.738 400.876 114.17Z" fill="#CC9340"/>
</svg>
