<svg width="817" height="542" viewBox="0 0 817 542" fill="none" xmlns="http://www.w3.org/2000/svg">
<rect x="552.51" y="133.573" width="106.045" height="96.8545" fill="#E5F8FF"/>
<path d="M605.245 189.891C609.431 189.891 612.824 186.501 612.824 182.318C612.824 178.136 609.431 174.745 605.245 174.745C601.059 174.745 597.666 178.136 597.666 182.318C597.666 186.501 601.059 189.891 605.245 189.891Z" fill="white"/>
<rect x="552.51" y="236.063" width="106.045" height="96.4928" fill="#E5F8FF"/>
<path d="M605.245 292.171C609.431 292.171 612.824 288.794 612.824 284.627C612.824 280.46 609.431 277.082 605.245 277.082C601.059 277.082 597.666 280.46 597.666 284.627C597.666 288.794 601.059 292.171 605.245 292.171Z" fill="white"/>
<rect x="552.51" y="31.3804" width="106.045" height="96.4928" fill="#E5F8FF"/>
<path d="M605.245 87.4882C609.431 87.4882 612.824 84.1104 612.824 79.9437C612.824 75.7771 609.431 72.3993 605.245 72.3993C601.059 72.3993 597.666 75.7771 597.666 79.9437C597.666 84.1104 601.059 87.4882 605.245 87.4882Z" fill="white"/>
<rect x="664.254" y="237.254" width="105.683" height="96.4928" fill="#E5F8FF"/>
<path d="M716.873 293.361C721.045 293.361 724.426 289.984 724.426 285.817C724.426 281.65 721.045 278.273 716.873 278.273C712.702 278.273 709.32 281.65 709.32 285.817C709.32 289.984 712.702 293.361 716.873 293.361Z" fill="white"/>
<rect x="664.254" y="133.573" width="105.683" height="96.8545" fill="#E5F8FF"/>
<path d="M716.873 189.891C721.045 189.891 724.426 186.501 724.426 182.318C724.426 178.136 721.045 174.745 716.873 174.745C712.702 174.745 709.32 178.136 709.32 182.318C709.32 186.501 712.702 189.891 716.873 189.891Z" fill="white"/>
<path d="M421.316 217.349C421.316 217.349 438.957 221.203 462.793 219.497C486.567 217.791 504.523 214 504.523 214C504.523 214 507.874 221.203 496.809 230.555C485.745 239.906 475.122 247.552 460.264 247.994C445.406 248.436 421 224.805 421 224.805L421.316 217.349Z" fill="#BC0F31"/>
<path d="M415.751 221.735C415.751 221.735 358.309 236.299 326.474 267.463C294.639 298.627 338.928 395.617 341.025 424.046C343.122 452.476 340.326 537 340.326 537H602.631C602.631 537 604.728 453.875 600.534 424.746C596.404 395.617 617.119 354.086 621.312 331.89C625.443 309.694 609.557 283.363 610.955 269.562C612.353 255.697 605.427 242.532 573.592 232.865C541.757 223.134 510.621 219 510.621 219L492.13 231.529C473.575 244.058 449.302 244.186 430.684 231.72L415.751 221.735Z" fill="#FFC648"/>
<path d="M432.415 200.076C432.415 200.076 434.19 208.173 432.034 214.198C429.878 220.161 421 225.81 421 225.81L445.922 238.866L463.741 241L499 225.873C499 225.873 485.81 221.981 482.639 216.709C479.405 211.437 479.785 197 479.785 197L432.415 200.076Z" fill="#FFA171"/>
<path d="M454.931 227.966C470.916 228.736 484 216.099 484 216.099C484 216.099 480.713 213.79 481.1 195.957C481.486 178.124 446.23 192.428 446.23 192.428L432.952 199.228C432.952 199.228 433.339 204.552 433.21 207.952C433.145 211.288 432.114 215.522 430.18 218.152C428.311 220.653 441.267 227.325 454.931 227.966Z" fill="#F37E4E"/>
<path d="M486.437 113.109C486.437 113.109 493.415 114.955 496.713 122.718C500.012 130.482 500.773 132.709 504.452 131.945C508.131 131.182 511.43 128.255 509.971 131.945C508.512 135.636 508.893 141.936 502.613 145.245C496.333 148.555 504.833 172.545 509.971 174.773C515.109 177 516.568 175.855 518.09 175.855C519.549 175.855 519.549 178.464 515.87 184.7C512.191 191 505.911 193.927 502.613 195.773C499.314 197.618 497.855 197.618 496.713 196.155C495.635 194.691 491.956 192.082 492.654 195.073C493.415 198 491.893 200.227 487.135 201.691C482.378 203.155 470.198 205 464.68 205C459.161 205 425.668 195.391 425.668 195.391C425.668 195.391 416.851 195.009 413.172 193.545C409.493 192.082 409.112 192.464 408.732 189.473C408.351 186.545 408.732 182.855 406.892 185.018C405.053 187.245 402.833 186.482 400.612 185.782C398.392 185.018 394.333 181.327 395.094 177.318C395.855 173.245 395.855 171.018 398.773 173.627C401.691 176.236 405.75 176.555 406.512 173.245C407.273 169.936 407.59 160.327 407.59 160.327C407.59 160.327 407.971 150.336 409.049 143.718C410.127 137.1 410.889 129.718 413.489 125.264C414.377 123.736 420.974 112.791 431.885 108.655C441.019 105.218 453.769 108.4 463.284 107.191C475.083 105.791 486.437 113.109 486.437 113.109Z" fill="#5E2D1E"/>
<path d="M418.232 128.563C418.232 128.563 411.693 145.088 417.217 169.177C422.74 193.265 424.2 200.765 432.707 207.248C441.214 213.794 448.706 215.765 459.244 214.748C469.783 213.731 478.798 204.706 483.305 197.714C487.813 190.723 491.812 184.176 491.812 171.147C491.812 158.118 494.796 149.601 491.305 139.559C487.813 129.516 468.767 106 468.767 106L418.232 128.563Z" fill="#FFA171"/>
<path d="M418 130.827C418 130.827 430.789 137.232 444.596 131.842C458.404 126.452 465.148 113.707 465.148 113.707L473.547 114.024L485 126.452L474.247 108.698L447.969 108L418 130.827Z" fill="#F37E4E"/>
<path d="M411.5 168C418.404 168 424 161.956 424 154.5C424 147.044 418.404 141 411.5 141C404.596 141 399 147.044 399 154.5C399 161.956 404.596 168 411.5 168Z" fill="#FFA171"/>
<path d="M411 161C414.866 161 418 157.866 418 154C418 150.134 414.866 147 411 147C407.134 147 404 150.134 404 154C404 157.866 407.134 161 411 161Z" fill="#F37E4E"/>
<path d="M502 174C509.732 174 516 167.06 516 158.5C516 149.94 509.732 143 502 143C494.268 143 488 149.94 488 158.5C488 167.06 494.268 174 502 174Z" fill="#FFA171"/>
<path d="M500 167C503.866 167 507 163.642 507 159.5C507 155.358 503.866 152 500 152C496.134 152 493 155.358 493 159.5C493 163.642 496.134 167 500 167Z" fill="#F37E4E"/>
<path d="M435.5 161C437.985 161 440 158.314 440 155C440 151.686 437.985 149 435.5 149C433.015 149 431 151.686 431 155C431 158.314 433.015 161 435.5 161Z" fill="#5E2D1E"/>
<path d="M467.5 160C469.985 160 472 157.314 472 154C472 150.686 469.985 148 467.5 148C465.015 148 463 150.686 463 154C463 157.314 465.015 160 467.5 160Z" fill="#5E2D1E"/>
<path d="M431.246 139.5C432.661 138.825 434.815 138.211 436.354 138.518C437.892 138.886 440.538 139.009 440.907 136.615C441.277 134.222 440.538 133.608 438.754 134.222C436.969 134.836 435.061 135.265 433.4 135.511C431.738 135.756 431 136.554 430.508 138.272C430.077 139.991 429.338 140.481 431.246 139.5Z" fill="#5E2D1E"/>
<path d="M461.657 134.419C460.674 135.946 460.429 137.169 463.56 137.841C466.631 138.574 468.105 136.496 469.763 137.23C471.421 137.963 472.833 138.207 471.421 136.374C470.009 134.602 468.228 133.747 466.324 134.113C464.359 134.541 462.209 133.441 461.657 134.419Z" fill="#5E2D1E"/>
<path d="M462.969 109.084C462.969 109.084 451.98 131.454 433.368 132.828C414.756 134.203 411.262 127.017 409.801 122.206C408.404 117.332 408.404 110.396 413.359 105.523C418.313 100.649 419.711 101.149 419.266 105.085C418.821 109.022 419.965 112.958 424.919 114.583C429.874 116.207 429.811 108.834 429.811 108.834C429.811 108.834 464.176 105.898 462.969 109.084Z" fill="#5E2D1E"/>
<path d="M451.619 161.048C454.344 160.615 455.075 163.088 456.272 170.013C457.535 176.876 458 178.237 458 179.659C458 181.019 455.275 181.699 452.35 181.946C449.425 182.194 443.775 181.699 445.238 178.051C446.899 173.661 448.628 161.481 451.619 161.048Z" fill="#F37E4E"/>
<path d="M448.036 193.269C447.656 194.884 450.378 196.37 453.226 195.918C456.075 195.466 458.797 194.626 457.784 193.076C456.771 191.525 454.935 191.978 452.403 192.43C449.871 192.817 448.542 191.073 448.036 193.269Z" fill="#F37E4E"/>
<path d="M471.317 184.223C469.432 186.223 465.287 184.489 463.403 182.822C461.518 181.089 458.503 180.822 456.431 181.089C454.609 181.356 452.976 182.689 452.536 183.023C452.159 182.689 450.526 181.356 448.642 181.089C446.569 180.822 443.492 181.089 441.67 182.822C439.786 184.556 435.64 186.223 433.756 184.223C431.872 182.222 430.49 181.689 431.181 186.49C431.872 191.291 436.331 193.291 441.859 193.891C446.381 194.358 451.029 193.224 452.599 192.358C454.169 193.158 458.566 194.291 463.089 193.891C468.679 193.291 473.075 191.357 473.766 186.49C474.583 181.689 473.138 182.222 471.317 184.223Z" fill="#5E2D1E"/>
<path fill-rule="evenodd" clip-rule="evenodd" d="M412 160C412 170.507 420.556 179 431 179C441.444 179 449.937 170.507 450 160C450 149.493 441.444 141 431 141C420.493 141 412 149.556 412 160ZM413.95 160.063C413.95 150.626 421.626 143.013 431 143.013C440.374 143.013 447.987 150.626 448.05 160.063C448.05 169.5 440.374 177.113 431 177.113C421.563 177.113 413.95 169.437 413.95 160.063Z" fill="white"/>
<path fill-rule="evenodd" clip-rule="evenodd" d="M455 159C455 169.507 463.556 178 474 178C484.444 178 493 169.507 493 159C493 148.493 484.444 140 474 140C463.493 140 455 148.556 455 159ZM456.95 159.063C456.95 149.626 464.626 142.013 474 142.013C483.374 142.013 491.05 149.626 491.05 159.063C491.05 168.5 483.374 176.113 474 176.113C464.563 176.113 456.95 168.437 456.95 159.063Z" fill="white"/>
<path d="M453.625 161C452.875 160.299 452.125 159.981 451.438 159.981C450.312 160.044 449.438 160.936 449.438 160.936L448 159.598C448.062 159.535 449.375 158.069 451.375 158.005C452.625 157.942 453.875 158.451 455 159.535L453.625 161Z" fill="white"/>
<path d="M453.5 203C456.538 203 459 201.881 459 200.5C459 199.119 456.538 198 453.5 198C450.462 198 448 199.119 448 200.5C448 201.881 450.462 203 453.5 203Z" fill="#F37E4E"/>
<path d="M339.067 257.091C339.067 257.091 305.707 275.795 279.3 312.504C252.893 349.212 250.087 356.846 245.941 370.015C241.795 383.184 241.093 386.62 250.087 398.453C259.144 410.222 289.697 419.256 307.748 417.857C325.799 416.457 327.904 411.622 330.647 401.252C333.454 390.882 354.949 331.271 368.153 313.903C381.42 296.599 377.274 236.988 339.067 257.091Z" fill="#FFC648"/>
<path d="M573.03 233C573.03 233 606.99 240.614 654.114 271.007C701.238 301.4 705.372 313.836 710.205 324.94C715.038 335.98 697.041 368.467 677.644 371.259C658.248 374.051 629.82 375.383 618.055 371.957C606.29 368.53 583.396 334.648 577.163 326.336C570.931 318.024 537.671 237.124 573.03 233Z" fill="#FFC648"/>
<path d="M652.933 406L605 368.745C605 368.745 626.544 341.12 646.686 322.492C666.828 303.865 677.919 288.658 700.865 311.468C723.748 334.214 714.06 347.329 705.009 360.445C695.957 373.56 670.27 399.094 652.933 406Z" fill="#FFC648"/>
<path d="M421.283 218L407.02 222.782C407.02 222.782 405.997 229.633 418.532 241.976C431.068 254.32 442.325 258.456 449.807 251.929C457.29 245.402 461 240.619 461 240.619C461 240.619 444.371 238.228 432.859 230.667C423.585 224.657 421.283 218 421.283 218Z" fill="#FFC648"/>
<path d="M485.053 536L482.667 489.948C482.667 488.8 481.473 380.558 480.845 309.247C480.343 248.078 475.507 244.251 474.942 243.996C474.942 243.996 475.13 244.06 475.319 243.869L474 242.402C474.314 242.083 475.005 241.828 475.758 242.147C481.159 244.57 482.604 279.907 482.792 309.184C483.357 380.494 484.551 488.736 484.614 489.82L487 535.872L485.053 536Z" fill="white"/>
<path d="M538.324 361C520.686 361 510.413 352.628 510.09 337.992C509.767 322.974 510.413 310.447 510.413 310.32L512.416 310.447C512.416 310.575 511.77 323.102 512.093 337.992C512.416 351.35 521.978 359.083 538.324 359.083C551.44 359.083 556.673 346.301 556.931 337.673C557.254 327.639 556.285 310.32 556.285 310.128L558.288 310C558.288 310.192 559.257 327.575 558.934 337.737C558.546 349.241 551.375 361 538.324 361Z" fill="white"/>
<path d="M461 240.256C461 240.256 470.089 250.508 480.195 252.509C490.301 254.509 496.021 250.508 506.508 238.568C516.932 226.628 521 220.001 521 220.001L505.492 215C505.492 215 491.318 230.003 477.144 235.88C466.085 240.568 461 240.256 461 240.256Z" fill="#FFC648"/>
<path d="M509.191 312.829L509 304.526C509 303.568 509.701 302.738 510.721 302.674C513.781 302.482 521.048 301.844 534.052 302.035C546.674 302.227 555.216 302.993 558.02 303.504C558.785 303.632 559.359 304.335 559.423 305.101L559.997 313.084C560.06 314.106 559.232 315 558.212 315L510.912 314.489C509.956 314.553 509.191 313.787 509.191 312.829Z" fill="#C82C2F"/>
<path d="M348.919 411.694C348.919 411.694 340.564 384.756 307.397 355.079C296.49 345.335 290.048 338.839 317.219 357.69C332.272 368.134 338.842 376.031 338.842 376.031C338.842 376.031 341.202 340.622 352.619 317.76C364.036 294.897 367.034 287 367.034 287C367.034 287 353.32 321.008 358.997 370.108C360.209 380.871 366.077 410.867 367.735 434.239C371.371 485.059 370.988 539 370.988 539H340.819L348.919 411.694Z" fill="#EDA320"/>
<path d="M464 159.341C464 159.341 465.736 158 468.629 158C471.521 158 473 159.192 473 159.192C473 159.192 471.971 160.906 468.886 160.981C465.736 161.13 464 160.385 464 159.341Z" fill="#FFA171"/>
<path d="M431 161.341C431 161.341 432.736 160 435.629 160C438.521 160 440 161.192 440 161.192C440 161.192 438.971 162.906 435.886 162.981C432.736 163.13 431 162.385 431 161.341Z" fill="#FFA171"/>
<path d="M461 287C464.866 287 468 283.866 468 280C468 276.134 464.866 273 461 273C457.134 273 454 276.134 454 280C454 283.866 457.134 287 461 287Z" fill="white"/>
<path d="M460 355C463.866 355 467 351.866 467 348C467 344.134 463.866 341 460 341C456.134 341 453 344.134 453 348C453 351.866 456.134 355 460 355Z" fill="white"/>
<path d="M463 438C466.866 438 470 434.866 470 431C470 427.134 466.866 424 463 424C459.134 424 456 427.134 456 431C456 434.866 459.134 438 463 438Z" fill="white"/>
<path d="M575 281C575 281 584.045 310.688 586.322 354.137C588.6 397.523 578.036 522.774 578.036 522.774L601.756 538L599.922 395.293L609.347 358.278C609.347 358.278 616.558 334.77 633.953 316.486C639.709 310.433 632.877 311.07 619.088 324.513C607.702 335.598 600.808 338.338 600.808 338.338C600.808 338.338 590.244 298.52 575 281Z" fill="#EDA320"/>
<path d="M502.203 440C502.203 440 416.49 386.697 415.155 385.795C413.885 384.893 420.302 374 438.41 374C456.519 374 528 423.822 528 423.822L521.964 434.715C521.964 434.715 518.978 431.234 512.497 431.686C506.079 432.137 502.203 440 502.203 440Z" fill="white"/>
<path d="M594.942 462.159C589.11 468.451 582.317 469.836 578.024 468.577C573.666 467.319 561.939 454.041 550.212 447.685C539.062 441.581 529.642 438.12 525.733 437.24C521.824 436.359 517.659 434.848 521.568 427.612C525.477 420.375 526.246 419.683 531.885 422.64C537.524 425.598 589.751 449.384 592.827 451.083C595.839 452.782 599.299 457.502 594.942 462.159Z" fill="#5E2D1E"/>
<path d="M605.962 375C605.962 375 569.473 424.064 567.252 425.585C565.031 427.043 560.208 422.606 553.101 421.465C546.057 420.324 534.888 417.725 530.002 415.886C525.179 414.048 521.435 413.288 523.656 417.725C525.877 422.162 528.479 423.683 532.604 425.141C536.729 426.599 541.171 432.178 541.171 432.178C541.171 432.178 535.206 436.995 533.365 442.193C531.525 447.391 530.763 449.23 534.127 450.751C537.49 452.209 537.871 454.491 538.252 457.47C538.632 460.45 540.092 461.908 543.074 462.668C546.057 463.429 546.438 463.809 548.278 466.789C550.118 469.768 555.703 472.367 562.81 466.408C569.854 460.45 579.944 453.033 585.147 449.293C590.351 445.553 654 398.327 654 398.327L605.962 375Z" fill="#FFA171"/>
<path d="M609.004 406.766C611.418 423.565 600.239 438 600.239 438L644 404.978L606.019 374L597 386.455C596.937 386.455 606.845 391.82 609.004 406.766Z" fill="#F37E4E"/>
<path d="M598.941 372.861C597.362 375.082 597.804 378.191 600.014 379.84C605.129 383.774 614.285 391.197 621.546 398.937C628.808 406.741 633.796 411.182 636.132 413.212C637.143 414.037 638.469 414.228 639.668 413.72L658.422 405.726C659.875 405.091 660.443 403.378 659.622 401.983C656.339 396.526 647.625 383.457 634.238 372.608C617.821 359.284 610.18 357 610.18 357L598.941 372.861Z" fill="#FFC648"/>
<path d="M664.284 507.29C662.567 505.24 658.053 503.575 650.742 502.294C644.702 501.205 637.008 500.5 628.616 500.18C622.767 499.988 616.79 499.924 610.75 500.116C595.173 500.564 576.544 502.614 570.758 507.034C568.851 508.507 568.469 510.108 569.741 511.71C570.377 512.478 571.394 513.375 574.446 514.592L576.417 515.361L576.735 515.233C579.469 516.001 582.966 516.706 586.971 517.282C596.826 518.691 609.923 519.268 623.275 518.884C631.477 518.627 639.234 517.987 645.655 517.09C652.14 516.129 660.533 514.464 663.712 511.646C665.174 510.172 665.429 508.635 664.284 507.29Z" fill="#8C1D1E"/>
<path d="M665.446 533.987C665.7 531.074 667.608 508.031 662.458 507.125C656.418 506.089 637.661 511.85 629.205 511.526C623.356 511.332 616.552 513.015 610.512 513.144C594.935 513.598 574.589 505.248 568.867 509.649C566.959 511.138 568.613 533.534 569.884 535.087C570.202 535.476 579.866 538 617.188 538C649.742 538 665.382 534.764 665.446 533.987Z" fill="#8C1D1E"/>
<path d="M660.553 508.24C659.223 506.661 655.044 505.272 649.029 504.198C643.331 503.188 635.922 502.493 627.754 502.178C622.246 501.988 616.357 501.925 610.342 502.114C591.473 502.683 577.036 505.146 573.111 508.113C571.971 508.998 571.654 509.882 572.414 510.829C572.731 511.208 573.301 511.902 576.087 512.976C576.15 512.976 576.15 512.913 576.213 512.913C584.255 515.754 602.87 517.459 622.689 516.891C630.92 516.639 638.265 516.007 644.344 515.186C652.512 514.049 658.21 512.408 660.236 510.639C661.123 509.945 661.25 509.124 660.553 508.24Z" fill="#F37E4E"/>
<path d="M612.643 507.038C620.036 506.817 626.862 507.591 627.873 508.641C628.884 509.746 623.765 510.796 616.371 510.962C608.977 511.183 602.152 510.409 601.141 509.359C600.067 508.309 605.249 507.259 612.643 507.038Z" fill="#FCC4C0"/>
<path d="M654.638 516.518C639.276 519.999 626 519.683 626 519.683L626.19 537.972C626.19 537.972 640.666 538.225 650.023 537.212C658.747 536.263 664.626 534.175 664.626 534.175C664.626 534.175 665.258 522.594 664.879 518.733C664.499 514.873 663.931 510 663.931 510C663.931 510 663.804 514.43 654.638 516.518Z" fill="#721217"/>
<path d="M587.485 488.526C584.866 485.449 579.565 483.691 571.837 483.251C565.45 482.874 557.594 483.502 549.226 484.947C543.414 485.951 537.538 487.333 531.79 489.091C516.844 493.612 499.599 501.523 496.15 510.314C495 513.265 495.447 516.153 497.427 518.414C498.385 519.544 499.854 520.863 503.431 522.181L505.73 522.998L505.986 522.684C509.052 523.374 512.82 523.688 516.972 523.688C527.319 523.688 540.348 521.616 553.186 517.723C561.043 515.337 568.324 512.449 574.136 509.309C580.012 506.17 587.357 501.272 589.082 495.747C589.848 493.172 589.274 490.535 587.485 488.526Z" fill="#8C1D1E"/>
<path d="M592.659 500.707C591.509 495.809 589.21 487.27 583.845 486.956C577.458 486.642 561.937 496.374 553.57 497.819C547.758 498.823 541.881 500.205 536.133 501.963C521.187 506.484 499.471 503.972 496.022 512.763C494.872 515.714 499.79 529.026 501.77 531.286C502.729 532.416 504.198 533.735 507.774 535.053L510.265 535.619C513.331 536.309 517.099 536.623 521.251 536.623C531.598 536.623 544.628 534.551 557.466 530.658C565.322 528.272 572.603 525.384 578.416 522.244C584.292 519.105 591.637 514.207 593.361 508.681C594.128 506.107 593.298 503.344 592.659 500.707Z" fill="#8C1D1E"/>
<path d="M584.931 490.598C582.887 488.212 578.096 486.83 571.645 486.453C565.578 486.14 557.977 486.642 549.801 488.086C544.309 489.028 538.496 490.409 532.748 492.167C514.545 497.63 501.643 505.353 499.216 511.444C498.513 513.202 498.705 514.835 499.918 516.279C500.365 516.844 501.323 517.912 504.581 519.167C504.581 519.105 504.645 519.105 504.645 519.042C513.97 522.056 533.003 520.486 552.101 514.709C560.021 512.323 566.983 509.498 572.476 506.546C579.949 502.591 584.739 498.446 585.825 494.93C586.272 493.36 586.08 491.853 584.931 490.598Z" fill="#F37E4E"/>
<path d="M537.729 499.64C544.883 497.505 551.973 497.253 553.633 499.137C555.23 501.021 550.759 504.286 543.606 506.484C536.452 508.619 529.362 508.87 527.702 506.986C526.105 505.04 530.576 501.774 537.729 499.64Z" fill="#FCC4C0"/>
<path d="M561.937 514.019L566.344 527.079C566.344 527.079 578.16 523.688 584.292 518.602C590.423 513.516 592.34 511.381 593.234 508.681C594.128 505.981 593.425 504.286 593.425 504.286C593.425 504.286 592.403 499.954 592.148 498.447C591.062 493.109 588.763 490.221 588.763 490.221C588.763 490.221 591.062 497.63 581.354 504.474C572.22 511.13 561.937 514.019 561.937 514.019Z" fill="#721217"/>
<path d="M423 114.592L425.422 57.5083C425.422 57.5083 438.423 45.0293 458.243 47.2691C477.999 49.5089 483.097 57.5083 483.097 57.5083L491 116C491 116 464.679 108.257 423 114.592Z" fill="#C1E5F2"/>
<path d="M447.211 68.0259C454.593 68.1529 468.972 72.215 474.172 80.7202C478.152 87.2578 489 99 489 99L484.378 50L425.899 51.206L425 82.8782C424.936 82.8782 432.447 67.7085 447.211 68.0259Z" fill="#9DD4E0"/>
<path d="M411.404 36.008C413.747 21.8303 424.322 20.381 429.388 19.2468C434.454 18.1125 443.446 18.6797 443.446 18.6797C443.446 18.6797 458.074 -7.02926 484.48 3.55677C510.886 14.2058 507.529 38.2134 507.529 38.2134C507.529 38.2134 533.936 54.4075 519.878 76.7767C505.82 99.146 485.049 85.1573 479.984 78.9822C474.918 72.807 472.701 61.0868 472.701 61.0868C472.701 61.0868 465.419 63.8593 455.287 61.6539C445.155 59.4484 442.369 55.4787 442.369 55.4787C442.369 55.4787 424.955 61.6539 417.673 54.9116C410.327 48.2953 410.581 40.9229 411.404 36.008Z" fill="#C1E5F2"/>
<path d="M89.2015 385.915C89.2015 385.915 69.1878 375.513 65.1344 374.939C61.1443 374.365 57.7243 379.534 58.2943 387.639C58.8643 395.743 60.0043 400.338 62.2844 406.081C64.5644 411.825 65.7044 412.399 62.2844 418.206C58.8643 423.95 53.1009 437.224 57.7243 451.646C62.2844 466.069 77.168 468.94 88.6315 472.386C100.095 475.833 114.979 480.491 130.432 476.407C145.886 472.386 155.639 466.579 161.909 457.964C168.18 449.285 173.69 441.117 172.93 427.651C172.233 415.845 166.913 404.486 159.059 398.679C151.143 392.808 147.026 389.872 146.456 386.426C145.886 382.98 143.606 366.834 141.896 361.601C140.186 356.432 137.336 355.284 133.282 359.878C129.292 364.473 123.529 369.132 121.249 374.301C118.969 379.47 118.969 379.47 118.969 379.47C118.969 379.47 98.385 381.321 89.2015 385.915Z" fill="#FF8533"/>
<path d="M74.1673 464.101C74.1673 464.101 64.3248 462.242 59.2448 474.485C54.1648 486.727 42.8619 509.418 37.7184 515.507C32.5749 521.661 30.7334 523.968 30.7334 523.968C30.7334 523.968 25.5899 521.596 21.399 521.596C17.208 521.596 16.2555 525.378 14.8585 529.609C13.4615 533.839 13.4615 534.352 17.208 534.801C20.9545 535.249 34.0354 534.801 37.2739 534.801C40.5124 534.801 51.3073 526.788 58.2923 521.148C65.3408 515.507 78.4217 479.677 74.1673 464.101Z" fill="#FF8533"/>
<path d="M74.7758 457.781C74.7758 457.781 67.7924 475.211 63.0945 494.564C58.3967 513.917 57 535 57 535H192.985C192.985 535 193.937 501.165 180.859 481.363C167.781 461.562 154.259 454 154.259 454L74.7758 457.781Z" fill="#FF8533"/>
<path d="M63.8492 380.382C64.5054 379.196 70.1489 380.711 75.5299 385.781C80.9109 390.917 81.239 392.695 80.9109 394.209C80.5828 395.724 74.9393 399.016 72.2488 402.638C69.5583 406.259 66.8678 407.774 64.7679 402.967C62.668 398.094 60.24 386.703 63.8492 380.382Z" fill="#FCC4C0"/>
<path d="M128.046 379.526C127.92 380.108 128.046 380.69 128.487 381.078C130.315 382.889 134.032 383.73 136.804 384.765C139.955 385.929 141.719 386.834 141.971 384.765C142.286 382.695 139.955 371.184 139.388 367.628C138.821 364.071 137.434 361.937 136.489 362.001C135.166 362.195 132.772 365.558 130.756 370.861C129.243 374.806 128.424 378.039 128.046 379.526Z" fill="#FCC4C0"/>
<path d="M118.205 414.006C121.399 413.815 124.402 418.456 128.555 419.537C132.772 420.554 135.967 420.618 143.058 417.948C148.617 415.85 150.917 415.595 154.048 420.554C157.178 425.514 152.067 430.536 146.317 435.75C140.567 440.963 137.053 445.732 133.73 449.801C131.814 452.153 122.869 456.286 115.266 452.408C107.663 448.466 101.657 446.686 95.5875 446.431C90.8596 446.241 86.1317 445.923 84.3427 438.611C82.4899 431.299 88.5595 429.71 92.7124 429.201C96.9292 428.693 106.321 430.219 110.282 424.496C114.308 418.711 113.477 414.26 118.205 414.006Z" fill="#FFC9A4"/>
<path d="M121.56 425.648C123.954 425.119 125.809 424.59 125.989 425.472C126.168 426.412 124.193 428.646 123.356 429.528C122.518 430.468 121.919 429.763 120.663 429.469C119.406 429.116 117.252 428.881 117.012 427.823C116.773 426.706 120.064 426.001 121.56 425.648Z" fill="#5E2D1E"/>
<path d="M118.66 438C118.407 438 118.216 437.866 118.089 437.664C117.899 437.329 118.026 436.926 118.343 436.725C119.992 435.786 120.944 434.578 121.578 432.9C121.959 431.826 122.276 431.088 122.974 431.021C123.608 430.887 124.052 431.424 124.242 431.692C124.813 432.363 126.272 433.37 127.224 433.705C128.048 433.974 128.366 434.041 128.366 434.041C128.746 434.041 129 434.376 129 434.712C129 435.115 128.746 435.383 128.366 435.383C128.239 435.383 127.858 435.383 126.78 434.98C125.638 434.578 123.989 433.437 123.228 432.565L123.164 432.497C123.101 432.632 122.974 432.9 122.784 433.37C122.086 435.383 120.944 436.792 118.977 437.933C118.851 437.933 118.724 438 118.66 438Z" fill="#7C411E"/>
<path d="M180.248 505C180.248 505 206.64 498.74 222.349 486.6C238.121 474.459 241.618 467.44 241.618 467.44L242 451C242 451 215.226 461.939 193.539 459.6C171.853 457.26 157.735 452.138 157.735 452.138L155 462.319L180.248 505Z" fill="#FF7415"/>
<path d="M80.0142 513.044C79.5037 494.545 92.7755 478.734 124.232 477.134C155.689 475.534 167.301 488.4 171.64 509.268C174.193 521.494 162.325 535 162.325 535H90.7975C90.7975 534.936 80.4608 530.135 80.0142 513.044Z" fill="#FFC9A4"/>
<path d="M116.921 478.717C116.921 478.717 100.797 474.948 94.9567 484.695C89.1164 494.441 89.8147 500.419 89.1164 504.902C88.3546 509.386 91.3383 507.891 97.8769 507.176C104.479 506.397 113.24 504.902 117.62 498.924C122 492.947 122 480.211 122 480.211L116.921 478.717Z" fill="#C82C2F"/>
<path d="M130.367 477C130.367 477 125.061 490.578 135.354 497.146C145.646 503.713 156.003 500.051 160.414 499.356C164.825 498.598 158.944 494.998 156.003 489.883C153.062 484.768 151.592 479.716 144.943 478.958C138.295 478.2 130.367 477 130.367 477Z" fill="#C82C2F"/>
<path d="M125 487C129.418 487 133 483.418 133 479C133 474.582 129.418 471 125 471C120.582 471 117 474.582 117 479C117 483.418 120.582 487 125 487Z" fill="#C82C2F"/>
<path d="M74.0638 464.537C74.0638 464.537 84.9681 473.371 100.91 475.984C116.852 478.597 124.377 477.29 124.377 477.29C124.377 477.29 138.725 474.553 147.014 469.452C156.388 463.666 161.362 459 161.362 459L162 461.053C162 461.053 153.391 475.3 144.209 478.908C135.026 482.516 128.394 486 118.701 486C109.009 486 100.974 484.258 91.2812 480.401C81.5884 476.544 74 469.141 74 469.141L74.0638 464.537Z" fill="#C82C2F"/>
<path d="M103.026 425.548C105.567 424.849 106.736 421.041 105.636 417.044C104.535 413.047 101.584 410.373 99.0423 411.072C96.501 411.771 95.3327 415.578 96.4329 419.576C97.533 423.573 100.485 426.247 103.026 425.548Z" fill="#5E2D1E"/>
<path d="M134.142 416.034C136.479 415.391 137.559 411.905 136.554 408.246C135.548 404.587 132.837 402.142 130.499 402.785C128.161 403.427 127.081 406.914 128.087 410.572C129.093 414.231 131.804 416.676 134.142 416.034Z" fill="#5E2D1E"/>
<path d="M106.567 396.902C106.883 397.662 107.643 398.105 108.465 397.979C110.3 397.662 112.261 397.092 112.893 396.078C113.399 395.318 112.008 392.594 110.742 389.553C109.098 385.498 107.263 381 107.263 381L101 382.33L106.567 396.902Z" fill="#FFC9A4"/>
<path d="M97.2812 396.191C97.4701 396.689 97.9738 397 98.4775 397C100.24 396.876 102.255 396.502 102.885 395.569C103.829 394.076 98.6663 383 98.6663 383L93 383.747L97.2812 396.191Z" fill="#FFC9A4"/>
<path d="M115.47 391.852C115.772 392.605 116.557 393.106 117.342 392.981C118.852 392.73 120.363 392.291 120.906 391.476C121.329 390.849 120.242 388.718 119.275 386.273C117.886 382.887 116.376 379 116.376 379L111 380.003L115.47 391.852Z" fill="#FFC9A4"/>
<path d="M87.7929 318.379C97.6514 316.118 102.581 324.709 102.581 324.709C102.581 324.709 116.92 321.996 118.713 336.918C120.505 351.84 113.783 350.483 102.132 354.553C90.4816 358.622 83.3118 359.074 83.3118 359.074C83.3118 359.074 70.3165 364.048 66.7316 350.935C63.1467 337.822 73.9014 332.849 73.9014 332.849C73.9014 332.849 71.8529 322.061 87.7929 318.379Z" fill="#AFD7E2"/>
<path d="M91.4741 387.98C89.5916 388.17 87.9039 386.967 87.4495 385.193L81.2827 361.062C81.2827 361.062 78.2967 348.648 91.7338 345.102C103.548 341.998 106.729 345.988 109.455 350.422C111.597 353.905 116.141 371.513 117.894 378.797C118.348 380.633 117.31 382.533 115.427 383.103C112.636 384.053 108.092 385.384 102.574 386.397C97.6409 387.284 93.8759 387.79 91.4741 387.98Z" fill="#C1E5F2"/>
<path d="M208 422.503C220.968 422.503 231.481 418.475 231.481 413.507C231.481 408.538 220.968 404.51 208 404.51C195.032 404.51 184.519 408.538 184.519 413.507C184.519 418.475 195.032 422.503 208 422.503Z" fill="#C82C2F"/>
<path d="M208 507.49C225.384 507.49 239.477 502.948 239.477 497.345C239.477 491.742 225.384 487.2 208 487.2C190.616 487.2 176.523 491.742 176.523 497.345C176.523 502.948 190.616 507.49 208 507.49Z" fill="#C82C2F"/>
<path d="M208 460.211C225.384 460.211 239.477 455.669 239.477 450.066C239.477 444.463 225.384 439.922 208 439.922C190.616 439.922 176.523 444.463 176.523 450.066C176.523 455.669 190.616 460.211 208 460.211Z" fill="#5E2D1E"/>
<path d="M176.523 497.345C176.523 497.345 175.127 485.988 175.127 473.801C175.127 456.829 176.523 450.066 176.523 450.066H239.477C239.477 450.066 241 454.852 240.619 473.163C240.365 487.455 239.477 497.281 239.477 497.281H176.523V497.345Z" fill="#C82C2F"/>
<path d="M184.646 412.677C184.646 412.677 183.694 415.357 184.265 422.12C184.519 425.119 185.09 427.033 185.09 427.033C185.09 427.033 183.25 428.054 183.44 431.372C183.631 434.115 185.661 434.945 185.661 434.945C185.661 434.945 183.631 438.39 180.838 441.325C176.586 445.728 176.396 450.704 176.396 450.704L208.888 450.13L207.936 413.507L184.646 412.677Z" fill="#C82C2F"/>
<path d="M206.096 499.068C219.905 499.068 231.1 489.041 231.1 476.672C231.1 464.304 219.905 454.277 206.096 454.277C192.287 454.277 181.092 464.304 181.092 476.672C181.092 489.041 192.287 499.068 206.096 499.068Z" fill="white"/>
<path d="M231.227 412.677C231.227 412.677 232.179 415.357 231.607 422.12C231.354 425.119 230.782 427.033 230.782 427.033C230.782 427.033 232.623 428.054 232.432 431.372C232.242 434.115 230.211 434.945 230.211 434.945C230.211 434.945 232.242 438.39 235.034 441.325C239.286 445.728 239.477 450.704 239.477 450.704L206.984 450.13L207.936 413.507L231.227 412.677Z" fill="#C82C2F"/>
<path d="M208 420.717C219.531 420.717 228.879 417.489 228.879 413.507C228.879 409.525 219.531 406.297 208 406.297C196.469 406.297 187.121 409.525 187.121 413.507C187.121 417.489 196.469 420.717 208 420.717Z" fill="white"/>
<path d="M209.967 417.143C212.105 417.143 213.838 416.544 213.838 415.804C213.838 415.064 212.105 414.464 209.967 414.464C207.829 414.464 206.096 415.064 206.096 415.804C206.096 416.544 207.829 417.143 209.967 417.143Z" fill="#C82C2F"/>
<path d="M199.75 412.869C201.888 412.869 203.621 412.269 203.621 411.529C203.621 410.789 201.888 410.189 199.75 410.189C197.612 410.189 195.879 410.789 195.879 411.529C195.879 412.269 197.612 412.869 199.75 412.869Z" fill="#C82C2F"/>
<path d="M215.171 411.784C217.309 411.784 219.042 411.184 219.042 410.444C219.042 409.704 217.309 409.104 215.171 409.104C213.033 409.104 211.3 409.704 211.3 410.444C211.3 411.184 213.033 411.784 215.171 411.784Z" fill="#C82C2F"/>
<path d="M192.135 490.518C192.706 492.942 201.083 493.325 209.65 486.115C217.139 479.799 218.979 474.567 216.187 471.632C211.935 467.102 203.05 465.188 202.035 471.568C201.21 476.8 200.702 480.118 197.656 484.074C194.61 487.966 191.754 488.731 192.135 490.518Z" fill="#C82C2F"/>
<path d="M213.394 462.061C213.521 461.679 213.775 461.423 214.156 461.36C215.679 460.977 218.471 461.551 217.202 464.358C215.742 467.549 212.316 470.93 212.316 470.93L210.666 470.228C210.666 470.228 212.633 466.91 212.95 464.996C213.014 463.593 213.204 462.636 213.394 462.061Z" fill="#C82C2F"/>
<path d="M242.227 451.116C242.227 451.116 238.311 450.039 232.854 459.923C227.462 469.808 230.351 474.306 236.193 476.778C242.034 479.249 242.869 477.601 246.207 475.13C249.545 472.659 249.61 464.802 247.876 457.832C246.657 452.89 245.373 450.419 242.227 451.116Z" fill="#FF8533"/>
<path d="M756.796 463.609H710.33C710.33 463.609 704.173 476.659 700.047 496.682C697.952 506.725 697.317 517.984 697.19 525.596C697.063 530.65 701.126 534.808 706.141 534.808H760.923C766.001 534.808 770.063 530.586 769.81 525.468C769.556 518.432 769.302 508.964 767.143 497.449C764.223 481.712 756.796 463.609 756.796 463.609Z" fill="#FFC648"/>
<path d="M721.122 469.558C730.199 469.558 742.387 469.174 749.877 473.14C757.368 477.107 763.271 484.655 763.271 484.655C763.271 484.655 758.129 463.225 754.638 458.491C751.083 453.757 710.902 458.491 710.902 458.491L710.394 463.673L707.791 471.605C707.728 471.541 712.425 469.558 721.122 469.558Z" fill="#EDA320"/>
<path d="M759.526 464.185H707.664C706.141 464.185 704.871 462.905 704.871 461.37L706.204 454.205C706.204 450.815 708.934 448.128 712.362 448.128H754.892C758.256 448.128 761.049 450.879 761.049 454.205L762.382 461.37C762.319 462.969 761.049 464.185 759.526 464.185Z" fill="#FFC648"/>
<path d="M698.333 507.876C702.015 515.297 709.632 520.351 718.392 520.351C730.77 520.351 740.863 510.243 740.863 497.705C740.863 485.231 730.834 475.06 718.392 475.06C713.06 475.06 708.172 476.915 704.3 480.049C702.84 484.783 701.38 490.349 700.047 496.618C699.285 500.328 698.714 504.166 698.333 507.876Z" fill="white"/>
<path d="M731.786 493.611C731.786 493.611 731.786 493.611 724.867 491.756C723.153 491.308 722.328 490.988 720.868 491.372C722.455 485.679 719.09 479.857 719.09 479.857C719.09 479.857 717.377 480.881 714.837 484.847C713.568 486.83 712.616 487.534 712.235 489.325C711.854 489.133 711.219 489.069 710.775 489.005C704.808 488.11 702.903 489.581 702.903 489.581C702.903 489.581 702.586 490.796 705.633 494.826C706.522 495.978 707.791 497.129 708.807 497.641C707.982 498.409 707.41 499.24 706.585 500.648C702.967 506.981 705.189 509.923 705.189 509.923C705.189 509.923 707.093 509.348 711.156 506.981C712.806 506.021 713.822 505.062 714.71 503.974C715.282 504.934 715.472 505.637 716.615 506.661C721.312 510.947 726.073 510.371 726.073 510.371C726.073 510.371 726.073 510.371 724.042 503.462C723.534 501.799 722.518 500.648 721.503 499.624C722.01 499.56 722.709 499.304 723.28 499.112C730.961 497.321 731.786 493.611 731.786 493.611Z" fill="#FFC648"/>
<path d="M205.436 253.681C245.3 253.681 277.617 221.364 277.617 181.5C277.617 141.636 245.3 109.319 205.436 109.319C165.572 109.319 133.255 141.636 133.255 181.5C133.255 221.364 165.572 253.681 205.436 253.681Z" fill="#E5F8FF"/>
<path d="M206.267 182.33C205.947 182.33 205.692 182.203 205.436 182.011C204.861 181.564 204.797 180.733 205.308 180.159L232.52 148.029C232.967 147.454 233.797 147.39 234.372 147.901C234.947 148.348 235.011 149.178 234.5 149.753L207.289 181.819C207.033 182.139 206.65 182.33 206.267 182.33Z" fill="white"/>
<path d="M205.436 189.101C209.634 189.101 213.037 185.698 213.037 181.5C213.037 177.302 209.634 173.899 205.436 173.899C201.238 173.899 197.834 177.302 197.834 181.5C197.834 185.698 201.238 189.101 205.436 189.101Z" fill="white"/>
<path fill-rule="evenodd" clip-rule="evenodd" d="M196.493 181.436C196.493 186.355 200.517 190.379 205.436 190.379C210.354 190.379 214.379 186.419 214.379 181.436C214.379 176.518 210.354 172.493 205.436 172.493C200.517 172.493 196.493 176.518 196.493 181.436ZM199.176 181.5C199.176 178.051 201.987 175.24 205.436 175.24C208.949 175.24 211.76 178.051 211.696 181.5C211.696 184.949 208.885 187.76 205.436 187.76C201.987 187.76 199.176 184.949 199.176 181.5Z" fill="white"/>
<path d="M158.04 183.544H145.073C144.37 183.544 143.731 182.969 143.731 182.203C143.731 181.5 144.306 180.861 145.073 180.861H158.04C158.742 180.861 159.381 181.436 159.381 182.203C159.317 182.969 158.742 183.544 158.04 183.544Z" fill="white"/>
<path d="M266.886 183.544H253.919C253.216 183.544 252.577 182.969 252.577 182.203C252.577 181.5 253.152 180.861 253.919 180.861H266.886C267.588 180.861 268.227 181.436 268.227 182.203C268.163 182.969 267.588 183.544 266.886 183.544Z" fill="white"/>
<path d="M205.947 175.496C205.245 175.496 204.606 174.921 204.606 174.154V121.264C204.606 120.562 205.181 119.923 205.947 119.923C206.65 119.923 207.289 120.498 207.289 121.264V174.154C207.289 174.921 206.65 175.496 205.947 175.496Z" fill="white"/>
<path d="M205.947 244.482C205.245 244.482 204.606 243.908 204.606 243.141V230.174C204.606 229.471 205.181 228.833 205.947 228.833C206.65 228.833 207.289 229.408 207.289 230.174V243.141C207.289 243.908 206.65 244.482 205.947 244.482Z" fill="white"/>
<path d="M626.973 386.574C625.446 385.171 623.918 383.897 622.264 382.558C619.146 380.073 616.218 377.905 613.546 376.057L606.482 385.809C610.046 388.804 614.055 392.31 617.809 396.007L626.973 386.574Z" fill="#C82C2F"/>
<path d="M628.945 388.358L619.782 397.919C620.227 398.365 620.673 398.875 621.118 399.321C624.809 403.273 627.864 406.332 630.345 408.69L640.845 401.233C637.473 397.09 633.4 392.565 628.945 388.358Z" fill="#C82C2F"/>
<path d="M623.982 380.519C625.637 381.857 627.291 383.259 628.818 384.662L637.346 375.802C636.264 374.846 635.118 373.89 633.973 372.934C629.391 369.237 625.446 366.369 622.2 364.138L615.2 373.89C617.873 375.802 620.8 377.969 623.982 380.519Z" fill="#C82C2F"/>
<path d="M601.582 368.664L598.4 373.061C596.809 375.292 597.255 378.415 599.482 380.072C600.882 381.156 602.664 382.494 604.573 384.088L611.509 374.527C607.5 371.914 604.191 370.066 601.582 368.664Z" fill="#C82C2F"/>
<path d="M612.973 372.424L619.973 362.672C613.036 358.211 609.727 357.191 609.727 357.191L603.109 366.497C605.782 367.899 609.091 369.811 612.973 372.424Z" fill="#C82C2F"/>
<path d="M642.564 403.273L632.318 410.539C633.846 411.941 634.991 412.96 635.882 413.662C636.9 414.49 638.237 414.681 639.446 414.171L648.1 410.475C646.573 408.371 644.727 405.95 642.564 403.273Z" fill="#C82C2F"/>
<path d="M658.282 406.141C659.745 405.503 660.318 403.782 659.491 402.38C658.409 400.596 656.691 397.919 654.463 394.796L644.727 401.679C647.018 404.547 648.991 407.16 650.582 409.391L658.282 406.141Z" fill="#C82C2F"/>
<path d="M652.873 392.692C649.373 388.103 644.854 382.749 639.254 377.523L630.727 386.382C635.373 390.78 639.509 395.369 643.009 399.64L652.873 392.692Z" fill="#C82C2F"/>
<path d="M503.063 226.084C503.126 226.02 503.19 225.956 503.253 225.892C506.411 222.375 509 218.987 511.084 215.982L505.59 214.192C505.59 214.192 502.369 217.708 497.505 221.992L503.063 226.084Z" fill="#C82C2F"/>
<path d="M511.463 232.285C518.221 223.846 520.937 219.243 520.937 219.243L513.674 216.813C511.463 220.138 508.684 223.782 505.21 227.682L511.463 232.285Z" fill="#C82C2F"/>
<path d="M501.231 228.066L495.358 223.782C491.758 226.787 487.526 230.048 483.042 232.669L488.347 238.551C492.831 235.546 497.253 232.093 501.231 228.066Z" fill="#C82C2F"/>
<path d="M470.6 248.077C474.705 246.287 480.326 243.602 486.137 239.957L480.705 233.948C479.631 234.523 478.495 235.098 477.358 235.546C466.305 240.277 461.252 239.957 461.252 239.957C461.252 239.957 465.168 244.369 470.6 248.077Z" fill="#C82C2F"/>
<path d="M480.39 252.489C486.137 253.639 490.432 252.808 494.979 249.611L487.969 241.939C482.6 245.328 477.421 247.949 473.316 249.803C475.59 250.954 477.99 251.977 480.39 252.489Z" fill="#C82C2F"/>
<path d="M503.379 229.6C499.274 233.82 494.726 237.4 490.242 240.405L497.126 247.949C499.969 245.584 503 242.387 506.537 238.167C507.674 236.825 508.747 235.546 509.758 234.267L503.379 229.6Z" fill="#C82C2F"/>
<path d="M425.932 224.89C422.565 221.19 421.548 218.319 421.548 218.319L414.624 220.616C416.339 223.231 418.245 226.038 420.532 228.781L425.932 224.89Z" fill="#C82C2F"/>
<path d="M437.304 243.135L443.466 236.053C439.908 234.714 436.287 232.991 433.047 230.886C430.951 229.547 429.235 228.143 427.838 226.803L422.247 230.886C422.755 231.46 423.264 232.035 423.772 232.672C427.965 237.202 432.666 240.583 437.304 243.135Z" fill="#C82C2F"/>
<path d="M412.082 221.509L407.445 223.04C407.445 223.04 406.809 227.122 412.464 234.714L418.435 230.376C415.958 227.378 413.861 224.379 412.082 221.509Z" fill="#C82C2F"/>
<path d="M430.315 251.109L435.461 245.176C430.76 242.56 426.059 239.116 421.802 234.395C421.231 233.757 420.659 233.055 420.087 232.417L414.052 236.819C415.386 238.414 416.974 240.136 418.816 241.986C422.882 245.941 426.694 249.003 430.315 251.109Z" fill="#C82C2F"/>
<path d="M449.882 251.874C450.2 251.619 450.454 251.364 450.708 251.109C446.96 250.216 442.45 248.748 437.875 246.452L432.666 252.448C439.464 255.766 445.372 255.766 449.882 251.874Z" fill="#C82C2F"/>
<path d="M439.718 244.347C444.673 246.707 449.374 248.11 453.186 248.94C458.395 244.091 461 240.71 461 240.71C461 240.71 454.075 239.69 446.071 237.01L439.718 244.347Z" fill="#C82C2F"/>
<rect y="534" width="816" height="7" fill="#C1E5F2"/>
<path d="M333.602 490.526C333.602 490.526 317.085 495.717 310.835 495.133C304.585 494.549 299.993 489.941 298.271 487.605C296.549 485.269 290.873 481.83 286.855 485.853C282.838 489.941 279.457 492.797 283.411 498.637C287.429 504.413 287.429 507.333 283.985 510.838C280.542 514.342 279.968 518.366 282.838 521.87C287.302 527.321 289.47 527.581 294.253 526.477C299.355 525.309 302.735 514.082 307.391 513.109C321.613 510.189 341 511.941 341 511.941L333.602 490.526Z" fill="#FCC4C0"/>
<path d="M326.643 493.34C320.089 497.322 327.789 510.278 327.789 510.278C327.789 510.278 333.643 512.237 343.698 516.471C359.607 523.233 373.161 533.535 395.561 534.357C439.915 536 461.997 533.977 461.997 533.977C461.997 533.977 496.106 535.684 491.588 488.221C487.451 445.245 466.133 441.517 466.133 441.517C466.133 441.517 425.534 434.565 389.261 450.428C366.288 460.477 350.57 474.128 339.37 483.86C333.707 488.663 326.643 493.34 326.643 493.34Z" fill="#8C1D1E"/>
<path d="M358.99 484.078C358.99 484.078 367.587 495.582 375.419 506.328C383.251 517.073 389.236 523.015 397.451 526.744C405.665 530.473 406.047 530.853 407.894 530.853C409.74 530.853 407.894 526.428 407.894 526.428C407.894 526.428 413.115 531.99 416.49 530.157C419.865 528.324 405.283 513.85 405.665 512.333C406.047 510.879 410.122 514.166 419.483 522.699C428.843 531.232 430.307 534.961 434.446 531.99C438.585 529.02 425.85 517.516 419.865 508.603C413.879 499.691 408.658 491.537 410.122 489.704C411.587 487.871 414.58 493.813 423.176 496.404C431.772 498.996 434.001 497.542 436.611 495.266C439.222 493.054 428.015 488.946 422.794 485.279C417.572 481.55 408.212 473.396 402.608 470.426C397.005 467.455 381.659 466.001 381.659 466.001C381.659 466.001 352.304 465.558 358.99 484.078Z" fill="#FFA171"/>
<path d="M297 446.524C297 446.524 308.412 460.762 330.146 472.522C351.943 484.281 363.291 489.684 363.291 489.684C363.291 489.684 380.601 499.982 388.038 484.281C395.475 468.581 386.563 465.593 386.563 465.593C386.563 465.593 377.652 459.682 366.24 450.401C354.828 441.057 336.044 419 336.044 419L297 446.524Z" fill="#FFA171"/>
<path d="M304.139 462L350 423.196C350 423.196 334.692 392.026 320.787 376.759C306.882 361.492 288.129 343.489 272.119 349.024C256.109 354.558 249.22 362.191 245.712 370.525C242.268 378.858 235.315 390.626 249.858 409.329C264.528 428.031 304.139 462 304.139 462Z" fill="#FFC648"/>
<path d="M342.157 462.144C345.529 452.054 358 443.856 358 443.856L339.994 425L305 455.333C305 455.333 313.78 463.595 323.579 469.396C333.377 475.198 345.084 481 345.084 481C345.084 481 338.721 472.297 342.157 462.144Z" fill="#F37E4E"/>
<path d="M294.117 458.064L308.479 468.199C309.896 469.212 311.828 469.275 313.373 468.325C319.234 464.715 334.11 455.213 345.445 445.775L357.745 435.45C358.969 434.437 359.355 432.727 358.647 431.27L348.987 411C348.987 411 328.636 422.212 313.502 434.944C302.876 443.875 296.436 450.779 293.538 454.136C292.636 455.403 292.894 457.177 294.117 458.064Z" fill="#FFC648"/>
<path d="M317.67 447.49C319.272 446.015 320.874 444.668 322.54 443.322L315.427 433.895C314.787 434.408 314.21 434.921 313.633 435.434C308.571 439.73 304.534 443.642 301.266 446.849L309.788 455.25C312.031 452.877 314.658 450.248 317.67 447.49Z" fill="#C82C2F"/>
<path d="M339.649 431.458L334.074 420.235C328.883 423.634 322.988 427.802 317.414 432.227L324.59 441.654C329.716 437.742 334.907 434.279 339.649 431.458Z" fill="#C82C2F"/>
<path d="M326.256 443.771L334.651 454.801C338.303 452.108 341.955 449.222 345.351 446.4L346.569 445.374L340.866 433.895C336.252 436.588 331.126 439.923 326.256 443.771Z" fill="#C82C2F"/>
<path d="M332.472 456.34L324.142 445.438C322.54 446.721 321.002 448.067 319.464 449.478C316.452 452.236 313.889 454.801 311.646 457.11L319.72 465.126C323.373 462.689 327.858 459.675 332.472 456.34Z" fill="#C82C2F"/>
<path d="M309.852 459.034C307.546 461.599 305.623 463.843 304.085 465.832L308.507 469.038C309.917 470.064 311.839 470.128 313.377 469.166C314.466 468.461 315.876 467.627 317.478 466.537L309.852 459.034Z" fill="#C82C2F"/>
<path d="M348.876 411.192C348.876 411.192 343.557 414.207 336.316 418.824L341.955 430.111C347.274 427.097 351.759 424.788 354.643 423.441L348.876 411.192Z" fill="#C82C2F"/>
<path d="M355.796 425.878C352.977 427.225 348.427 429.47 343.173 432.484L348.619 443.514L357.526 435.883C358.744 434.857 359.128 433.125 358.423 431.65L355.796 425.878Z" fill="#C82C2F"/>
<path d="M307.93 457.174L299.408 448.709C296.844 451.338 294.986 453.454 293.769 454.865C292.743 456.084 293 457.815 294.217 458.777L301.907 464.292C303.509 462.24 305.495 459.867 307.93 457.174Z" fill="#C82C2F"/>
<path d="M473.834 524.841C483.522 523.888 489.674 505.852 487.577 484.559C485.479 463.265 475.925 446.776 466.238 447.73C456.55 448.684 450.397 466.72 452.495 488.013C454.593 509.307 464.147 525.795 473.834 524.841Z" fill="#F37E4E"/>
<path d="M473.664 499.375C477.462 498.88 479.85 493.17 478.997 486.621C478.144 480.071 474.373 475.162 470.575 475.657C466.777 476.151 464.389 481.861 465.242 488.411C466.095 494.961 469.866 499.869 473.664 499.375Z" fill="#FCC4C0"/>
</svg>
