<svg width="750" height="693" viewBox="0 0 750 693" fill="none" xmlns="http://www.w3.org/2000/svg">
<g opacity="0.52">
<path fill-rule="evenodd" clip-rule="evenodd" d="M748.871 297.836V334.666L769.529 344.305V691.53H532.471L537.027 340.935L650.843 290.235L715.409 318.994V297.836H748.871ZM578.657 401.118H601.75V366.56H578.657V401.118ZM669.851 401.118H646.758V366.56H669.851V401.118ZM714.309 401.118H737.403V366.56H714.309V401.118Z" fill="#C1E5F2"/>
</g>
<g opacity="0.52">
<path fill-rule="evenodd" clip-rule="evenodd" d="M204.316 237.886V188.208H175.912V211.046L130.685 170H66.4435L-36.2958 250.208V582.496L-28.2363 659.015L222 665.765V254.524L204.316 237.886ZM42.0302 385.273H19.0254V350.663H42.0302V385.273ZM19.0254 301.691H42.0302V267.081H19.0254V301.691ZM109.871 385.273H86.8662V350.663H109.871V385.273ZM86.8662 301.691H109.871V267.081H86.8662V301.691ZM177.242 385.273H154.237V350.663H177.242V385.273ZM154.237 301.691H177.242V267.081H154.237V301.691Z" fill="#C1E5F2"/>
</g>
<path d="M483.912 142L483.366 138.685C486.72 138.133 496.157 135.529 495.689 130.873C495.221 125.427 480.012 121.324 465.27 117.378L460.59 116.115C443.431 111.459 428.611 107.434 415.04 96.2277C401.858 85.2582 401 72.6313 401 72.1578L404.354 72L402.716 72.0789L404.354 72C404.354 72.0789 405.212 83.6798 417.146 93.6234C429.235 103.646 441.949 107.592 461.37 112.879L466.05 114.142C484.068 118.956 498.263 122.744 498.965 130.636C499.823 139.396 484.536 141.921 483.912 142Z" fill="#E84C4F"/>
<path d="M434.905 39.6549C434.905 39.6549 433.428 42.3362 436.226 44.2288C439.025 46.0426 441.512 45.8849 441.512 45.8849C441.512 45.8849 460.636 41.2321 467.788 40.0492C474.94 38.8663 480.693 40.3647 480.693 40.3647C480.693 40.3647 472.53 44.3865 468.099 46.5946C463.59 48.8027 460.325 50.4588 460.325 50.4588C460.325 50.4588 462.813 51.484 468.488 48.4084C474.163 45.4117 483.88 39.4972 483.88 39.4972L488 40.1281C488 40.1281 481.392 45.5694 475.251 48.2507C469.11 50.9319 455.972 53.4555 455.972 53.4555C455.972 53.4555 454.339 72.1453 456.671 80.7411C459.004 89.3368 458.148 92.0969 457.915 97.0651C457.76 101.56 456.516 103.611 452.862 104.951C449.208 106.292 447.187 106.292 447.187 105.267C447.187 104.241 449.675 100.693 448.82 95.8822C447.965 90.9929 446.332 87.8385 441.357 84.6052C436.382 81.372 433.428 78.8484 432.572 73.6437C431.717 68.4389 433.039 65.3633 434.905 63.7073C436.693 62.0512 438.558 60.7106 437.859 60.1586C437.159 59.6854 432.184 57.9505 430.551 53.9286C428.919 49.9068 428.219 46.0426 430.24 42.3362C432.262 38.6298 435.449 38.472 434.905 39.6549Z" fill="#5E2D1E"/>
<path d="M443 125.42C443 125.42 452.869 112.824 455.768 106.841C458.666 100.858 457.491 97 457.491 97L503 100.149C503 100.149 498.222 113.375 489.919 125.184C481.616 136.993 477.7 144 477.7 144C477.7 144 455.219 144.236 443 125.42Z" fill="#FFA171"/>
<path d="M464.526 122.348C481.786 129.427 492.545 120.092 492.545 120.092C492.545 120.092 493.706 118.303 496.647 113.402C499.588 108.502 504 98 504 98L457.947 98.1556C457.947 98.1556 458.334 102.045 456.167 106.168C454 110.291 454 110.135 454 110.135C454 110.135 456.399 119.003 464.526 122.348Z" fill="#F37E4E"/>
<path d="M494 41C494 41 499.311 44.8432 503.294 52.6864C507.278 60.5297 507.278 62.0199 507.824 64.5297C508.293 67.0395 508.293 69.3925 508.684 75.7455C508.996 82.0985 509.543 85.628 507.043 90.3339C504.544 95.0399 503.06 99.5105 503.06 99.5105C503.06 99.5105 502.904 102.334 505.872 104.06C508.84 105.707 514.385 105.079 516.182 103.04C517.978 101.001 516.885 96.5301 516.885 96.5301C516.885 96.5301 527.194 93.0006 531.881 85.0005C536.567 77.0004 536.879 71.4318 534.692 66.5689C532.505 61.7061 530.162 60.8434 530.162 60.8434C530.162 60.8434 535.864 53.6276 528.835 46.804C521.805 39.9804 517.822 42.9608 517.822 42.9608L494 41Z" fill="#5E2D1E"/>
<path d="M455.8 52.3663C455.8 52.3663 453.196 55.9578 452.407 60.0959C451.618 64.156 451.145 65.4052 451.145 65.4052C451.145 65.4052 449.015 60.174 444.359 61.7356C440.73 62.9067 440.256 68.6845 441.913 73.3691C443.57 78.0538 446.411 78.6784 447.673 78.9126C449.488 79.2249 450.987 78.1319 450.987 78.1319C450.987 78.1319 453.039 88.5942 456.747 98.1978C460.455 107.801 466.373 116.078 479.944 115.999C494.226 115.921 497.698 108.816 500.854 103.897C503.931 98.9786 506.061 94.4501 507.087 92.2639C508.113 89.9996 509.375 86.0958 509.375 86.0958C509.375 86.0958 524.761 90.0777 524.998 73.0568C525.077 67.3572 523.025 64.3902 520.895 62.9067C517.739 60.7206 514.03 61.3452 512.294 62.2821C509.849 63.5314 508.034 67.0448 508.034 67.0448C508.034 67.0448 507.639 59.0809 500.459 48.6185C493.2 38.1562 492.253 38 492.253 38L472.606 39.5616L455.8 52.3663Z" fill="#FFA171"/>
<path d="M466 78C467.657 78 469 76.2091 469 74C469 71.7909 467.657 70 466 70C464.343 70 463 71.7909 463 74C463 76.2091 464.343 78 466 78Z" fill="#5E2D1E"/>
<path d="M490 75C491.657 75 493 73.2091 493 71C493 68.7909 491.657 67 490 67C488.343 67 487 68.7909 487 71C487 73.2091 488.343 75 490 75Z" fill="#5E2D1E"/>
<path d="M477.421 75C478.182 75 481.23 86.252 481.763 88.2191C482.373 90.1863 482.068 91.9173 477.649 91.996C473.23 92.0747 471.859 90.9731 472.011 89.7142C472.164 88.5339 474.983 81.3735 475.592 79.4064C476.354 77.5179 476.735 75 477.421 75Z" fill="#F37E4E"/>
<path d="M476.005 100.381C475.844 101.421 479.396 102.301 483.029 101.901C486.662 101.421 490.295 98.6212 491.587 96.941C492.798 95.2609 491.102 96.1409 489.649 97.181C488.115 98.2211 484.886 99.5812 482.302 99.8213C479.638 100.141 476.167 99.3412 476.005 100.381Z" fill="#8E5C3A"/>
<path d="M480 5.14286C480 5.14286 480.643 0 483.786 0C487 0 487.429 1.97143 487.714 3.08571C488 4.2 488 6 488 6L480 5.14286Z" fill="#C82C2F"/>
<path d="M482.185 108.154C484.334 107.883 485.976 106.862 485.852 105.872C485.728 104.883 483.884 104.3 481.735 104.57C479.585 104.84 477.943 105.861 478.068 106.851C478.192 107.84 480.035 108.424 482.185 108.154Z" fill="#F37E4E"/>
<path d="M-31.1917 692H58C58 692 36.6034 598.823 -11.5977 545.073C-59.7989 491.323 -108 477 -108 477C-108 477 -106.432 499.429 -99.6138 520.047C-94.3626 535.787 -87.8574 541.217 -87.8574 541.217C-87.8574 541.217 -78.8442 546.489 -67.95 554.516C-64.0312 557.428 -56.5071 566.164 -56.5071 566.164C-56.5071 566.164 -60.8178 565.298 -72.1822 561.521C-83.5467 557.743 -90.1303 556.877 -90.1303 556.877L-78.3739 586.861C-78.3739 586.861 -66.0689 595.439 -55.6449 602.994C-45.221 610.627 -42.3994 616.294 -45.221 616.294C-48.0425 616.294 -75.474 602.049 -75.474 602.049C-75.474 602.049 -59.407 637.227 -49.9235 655.249C-40.44 673.27 -31.1917 692 -31.1917 692Z" fill="#C1E5F2"/>
<path d="M12.4507 363C12.4507 363 57.125 388.895 79.0288 462.959C100.933 537.102 111.412 595.976 113.303 626.436C115.194 656.817 120 692 120 692H24.8208C24.8208 692 -6.53785 610.301 -15.126 562.761C-23.7142 515.222 -21.8232 473.428 -21.8232 473.428C-21.8232 473.428 -4.72567 489.563 4.80801 501.92C14.3417 514.277 11.5052 499.086 -0.864922 477.206C-13.2351 455.325 -19.8535 442.967 -19.8535 442.967C-19.8535 442.967 -19.8535 427.777 -17.017 418.253C-14.1805 408.729 -15.126 401.173 -9.37432 409.674C-3.70139 418.253 9.61424 444.463 16.3115 447.69C23.0087 450.917 12.5295 425.809 4.8868 408.729C-2.7559 391.65 -2.7559 391.65 -2.7559 391.65C-2.7559 391.65 2.05033 371.579 12.4507 363Z" fill="#C1E5F2"/>
<path d="M176.948 513.005C239.573 512.454 280.225 557.649 296.313 590.956C312.401 624.262 331 693 331 693H32C32 693 68.0213 513.95 176.948 513.005Z" fill="#C1E5F2"/>
<path d="M411.97 527.248C480.963 523.484 517.028 563.241 549.251 604.88C581.474 646.519 589 692 589 692H234C234 692 290.762 533.835 411.97 527.248Z" fill="#C1E5F2"/>
<path d="M600.627 423C600.627 423 569.345 435.316 535.154 486.465C500.963 537.613 483.907 591.586 468.737 619.043C453.567 646.5 445 692 445 692H677.498C677.498 692 687.952 648.461 684.179 612.453C680.406 576.445 669.952 548.988 669.952 548.988L626.172 585.545C624.6 586.801 622.478 584.996 623.579 583.27C630.26 572.837 641.342 556.049 650.067 546.164C663.35 531.024 663.35 531.024 663.35 531.024C663.35 531.024 655.726 510.156 651.01 502.625C646.294 495.016 646.294 495.016 646.294 495.016C646.294 495.016 608.566 549.302 600.706 548.988C594.811 548.753 611.16 520.59 616.819 505.449C622.478 490.309 633.875 460.969 633.875 460.969C633.875 460.969 610.138 426.844 600.627 423Z" fill="#C1E5F2"/>
<path d="M775.515 526C775.515 526 730.796 547.99 712.378 588.906C686.234 646.785 686 691 686 691H750.073C750.073 691 762.325 662.571 763.262 640.738C763.964 625.346 763.652 616.55 763.418 612.78C763.34 611.916 762.325 611.602 761.857 612.309L741.332 639.325C739.615 641.602 735.947 640.11 736.415 637.204C737.43 630.215 740.395 619.927 748.2 609.482C762.325 590.555 768.022 583.88 768.022 583.88C768.022 583.88 778.324 539.272 775.515 526Z" fill="#C1E5F2"/>
<path d="M461.5 95C465.09 95 468 92.0899 468 88.5C468 84.9101 465.09 82 461.5 82C457.91 82 455 84.9101 455 88.5C455 92.0899 457.91 95 461.5 95Z" fill="#FF8080"/>
<path d="M496.5 92C500.09 92 503 89.0899 503 85.5C503 81.9101 500.09 79 496.5 79C492.91 79 490 81.9101 490 85.5C490 89.0899 492.91 92 496.5 92Z" fill="#FF8080"/>
<path d="M488 40.0812C488 40.0812 483.313 46.092 473.534 49.1787C463.756 52.1841 457.21 53.6462 450.179 53.9711C443.148 54.296 449.452 51.7779 453.089 51.7779C456.725 51.7779 464.483 50.3971 469.979 47.7166C476.201 44.7112 480.404 40 480.404 40L488 40.0812Z" fill="#5E2D1E"/>
<path d="M478 42C478 42 474.301 44.448 467.224 47.256C461.997 49.344 455 51 455 51L458.136 47.112L464.49 43.008L478 42Z" fill="#5E2D1E"/>
<path d="M483.084 4.00942C492.054 3.69043 501.498 11.5058 508.029 22.2718C514.561 33.0378 517 44.2025 517 44.2025L502.285 45C502.285 45 465.929 39.5771 458.925 39.5771C452 39.5771 452 39.5771 452 39.5771C452 39.5771 452.315 36.0682 454.833 28.8111C458.531 18.5236 471.201 4.40816 483.084 4.00942Z" fill="#C82C2F"/>
<path d="M436.922 609.934C436.922 609.934 435.291 616.234 435.524 619.811C435.835 623.389 438.01 629.922 438.01 629.922L444.845 641.434L436.379 649.911L420.301 649.056L413.777 644.934L409.66 632.878C409.66 632.878 411.602 626.578 411.835 621.134C412.146 615.689 412.379 595.156 412.379 595.156L436.922 609.934Z" fill="#FFA171"/>
<path d="M436.223 600.445L435.602 619.734C435.602 619.734 436.223 626.189 425.427 625.878C414.631 625.567 411.913 621.134 411.913 621.134L412.456 595.156L436.223 600.445Z" fill="#F37E4E"/>
<path d="M437.388 626.812C437.388 626.812 436.767 631.789 428.379 632.412C419.99 633.034 410.748 627.589 410.748 627.589L408.573 635.056C408.573 635.056 412.301 643.223 422.864 645.4C433.349 647.578 445.155 638.556 445.155 638.556L437.388 626.812Z" fill="white"/>
<path d="M439.408 624.945C437.233 626.578 435.835 627.434 437.466 632.023C439.097 636.689 440.728 636.378 438.01 638.011C435.291 639.645 429.854 643.223 422.165 638.867C414.553 634.511 410.437 630.934 409.35 630.389C408.262 629.845 405.777 636.378 405.544 643.223C405.233 650.067 405.233 656.6 406.398 657.456C407.485 658.311 475.757 657.767 479.33 657.767C482.903 657.767 485.078 653.956 484.534 650.923C483.99 647.889 476.689 646.1 468.379 641.667C462.01 638.245 450.126 630.7 446.01 628.289C441.816 625.723 439.408 624.945 439.408 624.945Z" fill="#E84C4F"/>
<path d="M451.602 631.867C451.602 631.867 448.65 637.311 447.33 639.567C446.01 641.822 442.515 639.878 444.068 637.389C445.621 634.9 448.184 629.611 448.184 629.611L451.602 631.867Z" fill="white"/>
<path d="M459.136 636.3C459.136 636.3 456.961 640.5 455.563 642.756C454.165 645.011 450.748 643.067 452.301 640.578C453.854 638.089 455.796 634.2 455.796 634.2L459.136 636.3Z" fill="white"/>
<path d="M415.33 652.556H484.612L484.146 657.456L405.544 657.3L405.466 652.556H415.33Z" fill="white"/>
<path d="M480.879 7.05001C485.899 6.65216 490.213 8.64142 494.057 12.5404C497.194 15.6436 500.253 20.3382 502.606 24.7942C506.999 33.0695 507.626 39.0373 506.528 40.1512C504.724 42.0609 486.997 40.1512 486.997 40.1512L456.015 38.8781C456.015 38.8781 455.231 27.3404 464.957 16.9963C474.761 6.65216 480.879 7.05001 480.879 7.05001Z" fill="#FFC648"/>
<path d="M186.507 447.187C186.507 447.187 166.943 439.469 163.407 438.981C159.871 438.494 152.879 439.306 152.879 439.306L140.071 443.937L133.471 433.456L137.636 417.125L143.057 411.275L155.786 409.65C155.786 409.65 161.6 412.981 166.943 414.362C172.286 415.825 192.479 420.456 192.479 420.456L186.507 447.187Z" fill="#FFA171"/>
<path d="M187.686 446.538L163.329 439.063C163.329 439.063 160.343 434.025 163.564 425.738C166.786 417.45 169.3 415.256 169.3 415.256L198.607 421.35L187.686 446.538Z" fill="#F37E4E"/>
<path d="M479 36C484.523 36 489 31.5228 489 26C489 20.4772 484.523 16 479 16C473.477 16 469 20.4772 469 26C469 31.5228 473.477 36 479 36Z" fill="white"/>
<path d="M440.262 46C440.262 46 420.612 27.4254 441.919 21.752C463.227 16.0786 503 44.3679 503 44.3679C503 44.3679 479.246 41.9587 460.78 43.5907C442.314 45.1451 440.262 46 440.262 46Z" fill="#C82C2F"/>
<path d="M372 423.446L402.415 483.231C402.415 483.231 401.55 519.822 403.279 551.947C405.008 584.073 410.431 618 410.431 618C410.431 618 430.158 617.138 436.366 617.138C442.654 617.138 444.461 609.068 447.134 591.281C449.806 573.416 460.573 513.632 463.245 493.965C465.917 474.298 465.917 451.105 460.573 429.715C455.228 408.324 428.35 319 428.35 319L372 423.446Z" fill="#1949B7"/>
<path d="M325.377 324C325.377 324 318.23 352.615 313.753 390.088C309.276 427.561 311.083 430.305 306.606 434.773C302.129 439.242 287.835 433.911 261.839 429.443C235.922 424.974 177.725 413.371 177.725 413.371C177.725 413.371 172.385 415.174 168.772 430.305C165.159 445.514 158.955 444.573 171.442 449.982C183.93 455.392 309.198 506.271 320.821 510.739C332.445 515.208 351.216 515.208 366.452 490.199C381.688 465.191 438 337.484 438 337.484L325.377 324Z" fill="#2D63D9"/>
<path d="M308.419 470C303.477 470 297.829 468.818 291.004 466.927C267.392 460.307 169.02 431.781 168 431.465L168.941 428.235C169.961 428.55 268.333 457.076 291.946 463.617C315.401 470.158 323.56 467.557 336.346 436.666C349.447 405.145 366.627 341.63 366.784 341L370 341.867C369.843 342.497 352.585 406.249 339.406 437.927C329.522 461.883 321.52 470 308.419 470Z" fill="#74A0D6"/>
<path d="M518.825 75.8959C519.279 72.7193 517.49 69.8359 514.831 69.4558C512.172 69.0756 509.649 71.3426 509.195 74.5192C508.742 77.6958 510.53 80.5792 513.189 80.9594C515.849 81.3396 518.372 79.0726 518.825 75.8959Z" fill="#F37E4E"/>
<path d="M448.777 74.9053C450.469 74.3615 451.281 72.1801 450.592 70.0331C449.903 67.8861 447.973 66.5865 446.281 67.1304C444.59 67.6743 443.777 69.8557 444.467 72.0027C445.156 74.1497 447.086 75.4492 448.777 74.9053Z" fill="#F37E4E"/>
<path d="M326.156 293.331C326.156 293.331 307.209 298.419 291.394 290.827C275.579 283.235 272.76 267.424 276.44 245.117C280.12 222.81 293.116 196.824 313.159 173.734C333.202 150.566 367.103 129.12 367.103 129.12C367.103 129.12 373.601 126.303 387.146 127.164C400.69 128.025 414 138.435 414 138.435L326.156 293.331Z" fill="#FFC648"/>
<path d="M443.279 122.245C443.279 122.245 436.204 112.206 418.595 108.223C400.986 104.24 373.237 104.957 361.209 115.791C349.182 126.706 350.125 135.31 352.405 141.604C354.684 147.898 364.432 152.837 376.224 151.881C387.937 150.925 396.741 146.623 409.162 139.692C421.582 132.761 433.217 128.14 438.484 127.503C443.043 126.786 445.244 124.874 443.279 122.245Z" fill="#E84C4F"/>
<path d="M482.276 135.878C482.276 135.878 486.328 136.429 486.951 140.205C487.575 143.902 482.042 174.031 479.237 191.494C476.432 208.958 465.133 234.917 460.458 260.641C455.782 286.364 453.523 301.625 454.691 315.627C455.86 329.708 455.86 340.171 455.86 340.171C455.86 340.171 434.977 353.072 382.846 350.712C330.716 348.352 322.534 340.171 317.937 335.529C313.261 330.809 317.937 313.267 322.612 291.084C327.287 268.822 338.82 226.736 368.976 184.572C399.132 142.408 403.73 137.766 411.912 131.866C420.016 126.045 442.925 124 442.925 124C442.925 124 446.509 131.001 455.548 135.013C463.497 138.71 479.237 142.644 482.276 135.878Z" fill="#E84C4F"/>
<rect x="505" y="221" width="218" height="24" fill="#FFC263"/>
<rect x="505" y="232" width="218" height="8" fill="#FBA647"/>
<rect x="500" y="211" width="227" height="24" fill="#FFC263"/>
<rect x="507" y="187" width="218" height="24" fill="#FCA647"/>
<rect x="507" y="198" width="218" height="8" fill="#EF851B"/>
<path d="M453 174.766C453 174.766 466.161 171.435 474.387 163.108C482.613 154.781 487 139 487 139C487 139 483.71 160.333 481.516 179.841C479.323 199.271 470.548 221 470.548 221L453 174.766Z" fill="#C82C2F"/>
<rect x="502" y="177" width="227" height="24" fill="#FBA647"/>
<rect x="497" y="153" width="218" height="24" fill="#FFC263"/>
<rect x="498" y="164" width="218" height="8" fill="#FBA647"/>
<path d="M380.007 152.409C380.007 152.409 402.809 139.399 424.984 139.007C433.603 138.851 444.73 141.123 452.879 152.096C461.028 163.068 462.438 174.197 459.774 189.323C457.189 204.214 448.961 209.308 431.958 219.261C414.876 229.214 386.119 247.71 371.231 256.567C356.344 265.423 321.475 280 321.475 280C321.475 280 315.05 275.376 319.673 266.52C324.296 257.664 333.855 250.532 339.889 248.024C345.922 245.516 356.579 242.303 373.974 232.036C391.369 221.691 419.107 204.292 429.059 196.141C435.484 190.812 442.301 161.971 426.551 152.331C418.089 147.158 378.91 157.66 378.91 157.66C378.91 157.66 370.84 156.328 380.007 152.409Z" fill="#FFC648"/>
<path d="M389.933 170C389.933 170 385.803 185.621 394.92 216.784C403.258 245.357 410.427 265.373 420.869 284.134C434.506 308.704 455 335 455 335L454.065 284.134L389.933 170Z" fill="#C82C2F"/>
<path d="M353.889 316C353.889 316 362.513 316 376.042 305.676C389.571 295.352 393.369 289.396 396.059 280.184C398.116 273.116 396.613 267.715 393.369 270.971C387.989 276.372 374.46 291.619 364.728 299.164C354.997 306.788 346.294 315.444 353.889 316Z" fill="#C82C2F"/>
<path d="M481.922 143C481.139 143 474.012 142.922 470.723 140.332C470.331 140.018 469.861 139.705 469.313 139.234C465.398 136.331 458.114 130.917 452.006 122.129C451.458 121.345 450.91 120.56 450.361 119.776C443.705 110.125 433.681 95.4526 418.253 92.8634C401.494 90.0388 379.645 100.239 379.41 100.317L378 97.2572C378.94 96.7864 401.024 86.508 418.801 89.568C435.639 92.3926 446.133 107.771 453.102 117.892C453.651 118.677 454.199 119.54 454.747 120.246C460.542 128.563 467.59 133.742 471.349 136.566C471.976 137.037 472.446 137.351 472.837 137.665C474.873 139.234 480.277 139.626 482 139.626V143H481.922Z" fill="#E84C4F"/>
<path d="M402.287 154.347C421.406 146.04 439.193 153.72 451.103 171.587C463.013 189.453 470.771 202.54 477.274 217.977C483.856 233.415 489.733 250.733 495.14 268.522C500.468 286.388 500.468 296.497 493.964 301.277C485.424 307.468 482.368 308.722 476.099 310.211C468.342 312.013 461.603 312.326 446.95 292.971C432.063 273.302 411.22 235.296 402.914 219.78C394.608 204.342 389.828 185.849 389.201 178.718C388.575 171.587 388.575 160.302 402.287 154.347Z" fill="#E84C4F"/>
<path d="M508.068 661H320.246C309.506 661 285.676 643.978 284.735 643.238C283.951 642.662 283.794 641.593 284.265 640.771C284.813 639.949 285.832 639.784 286.616 640.278C286.851 640.442 310.525 657.382 320.246 657.382H508.068C518.024 657.382 541.149 641.758 541.384 641.675C542.168 641.182 543.187 641.347 543.735 642.169C544.206 642.991 544.049 644.06 543.265 644.636C542.246 645.376 519.043 661 508.068 661Z" fill="#E84C4F"/>
<path d="M508.068 665H320.246C309.506 665 285.676 647.978 284.735 647.238C283.951 646.662 283.794 645.593 284.265 644.771C284.813 643.949 285.832 643.784 286.616 644.278C286.851 644.442 310.525 661.382 320.246 661.382H508.068C518.024 661.382 541.149 645.758 541.384 645.675C542.168 645.182 543.187 645.347 543.735 646.169C544.206 646.991 544.049 648.06 543.265 648.636C542.246 649.376 519.043 665 508.068 665Z" fill="white"/>
<path d="M330.5 693C337.404 693 343 687.404 343 680.5C343 673.596 337.404 668 330.5 668C323.596 668 318 673.596 318 680.5C318 687.404 323.596 693 330.5 693Z" fill="white"/>
<path d="M330.5 687C334.09 687 337 684.09 337 680.5C337 676.91 334.09 674 330.5 674C326.91 674 324 676.91 324 680.5C324 684.09 326.91 687 330.5 687Z" fill="#FFA171"/>
<path d="M492.5 693C499.404 693 505 687.404 505 680.5C505 673.596 499.404 668 492.5 668C485.596 668 480 673.596 480 680.5C480 687.404 485.596 693 492.5 693Z" fill="white"/>
<path d="M492.5 687C496.09 687 499 684.09 499 680.5C499 676.91 496.09 674 492.5 674C488.91 674 486 676.91 486 680.5C486 684.09 488.91 687 492.5 687Z" fill="#FFA171"/>
<path d="M224.275 628.651C224.275 628.651 242.232 626.821 256.425 621.025C270.618 615.229 272.5 613.399 273.99 610.119C275.479 606.84 271.637 604.933 269.049 604.552C266.148 604.171 254.621 608.975 254.621 608.975C254.621 608.975 241.448 610.501 234.39 608.67C227.333 606.84 220.903 603.942 220.903 603.942L224.275 628.651Z" fill="#8A4140"/>
<path d="M233.768 616.004C238.204 620.038 244.255 621.571 247.32 621.571C250.385 621.571 256.516 621.41 256.516 621.41C256.516 621.41 248.449 624.96 240.544 626.251C232.558 627.542 226.265 629.639 226.265 629.639L218.925 608.258L226.588 605.918C226.588 605.999 228.766 611.486 233.768 616.004Z" fill="#6D3131"/>
<path d="M268.309 648.45C268.703 646.888 267.523 645.666 266.58 644.986C265.243 644.036 261.705 642.881 258.796 643.832C255.887 644.783 255.1 647.635 255.729 649.469C256.358 651.303 260.683 651.438 262.727 651.37C263.277 651.37 263.906 651.235 264.457 651.099C264.771 651.031 263.749 648.79 264.064 648.926C264.378 649.129 265.322 650.759 265.951 650.555C266.344 650.42 267.051 650.216 267.287 649.876C267.602 649.469 266.737 647.907 266.658 647.771C266.58 647.431 267.838 649.333 267.995 649.129C268.152 648.926 268.309 648.654 268.309 648.45Z" fill="#D7835A"/>
<path d="M274.269 607.937C273.945 606.308 272.244 605.53 271.03 605.176C269.329 604.68 265.441 604.822 263.092 606.662C260.744 608.574 261.23 611.618 262.687 613.104C264.064 614.662 268.276 613.317 270.22 612.609C270.706 612.396 271.273 612.113 271.759 611.759C272.002 611.547 270.058 609.777 270.382 609.848C270.787 609.919 272.406 611.193 272.892 610.768C273.216 610.485 273.783 610.06 273.864 609.636C273.945 609.14 272.406 607.937 272.325 607.795C272.083 607.441 274.188 608.857 274.188 608.715C274.35 608.503 274.35 608.22 274.269 607.937Z" fill="#D7835A"/>
<path d="M164.949 514.245C163.38 515.481 162.438 519.267 165.812 524.829C169.187 530.392 173.189 533.714 179.074 535.723C185.037 537.654 200.574 546.616 200.574 546.616L211.011 540.204C211.011 540.204 208.186 530.16 200.26 525.447C192.335 520.735 180.172 518.185 175.386 517.104C170.599 515.945 166.362 513.163 164.949 514.245Z" fill="#8A4140"/>
<path d="M178.026 528.66C183.161 529.878 190.271 531.989 196.038 533.044C201.805 534.181 204.57 534.749 206.545 535.886C208.52 537.022 210.021 538.402 210.021 538.402L200.857 545.628C200.857 545.628 187.427 540.107 184.82 538.402C182.213 536.697 180.791 536.291 178.5 535.236C176.129 534.181 171.863 533.044 169.414 529.959C166.965 526.793 164.516 522.896 164.516 522.896C164.516 522.896 170.52 526.874 178.026 528.66Z" fill="#6D3131"/>
<path d="M131.882 550.895C132.355 547.985 143.712 547.199 148.76 544.604C153.728 542.009 160.353 536.504 170.843 536.74C181.332 536.976 187.405 539.649 192.453 541.694C197.421 543.817 200.734 544.368 200.734 544.368C200.734 544.368 204.598 539.885 211.697 538.784C218.795 537.762 224.079 540.121 228.811 541.93C233.543 543.739 239.064 544.289 244.9 543.739C250.736 543.188 260.674 542.166 260.674 542.166L261.462 547.906L260.437 556.557C260.437 556.557 252.787 557.579 248.607 561.039C244.427 564.499 243.638 567.881 244.111 569.453C244.663 571.026 247.266 572.363 250.657 571.813C254.049 571.262 256.73 570.004 256.73 570.004C256.73 570.004 258.544 572.599 255.705 575.744C252.787 578.89 248.055 579.912 241.745 582.036C235.436 584.159 231.729 586.754 229.679 590.922C227.628 595.09 223.369 602.953 223.369 602.953L200.497 599.257C200.497 599.257 193.005 595.404 189.061 584.945C185.355 575.273 187.09 571.419 187.09 571.419L189.219 563.791L191.349 558.051C191.349 558.051 187.642 559.388 180.859 562.219C173.998 565.128 161.931 569.296 153.255 565.128C144.58 560.96 140.084 557.815 137.166 555.692C135.273 554.748 131.645 552.467 131.882 550.895Z" fill="#D7835A"/>
<path d="M29.2923 651.304C29.2923 651.304 38.4978 646.054 48.8637 634.849C59.1522 623.645 59.539 622.156 62.1692 621.764C64.722 621.372 72.1483 622.861 77.6406 618.003C83.133 613.145 85.3764 607.896 85.3764 607.896V639.629C85.3764 639.629 76.5576 640.413 72.8445 640.413C69.1313 640.413 69.1313 640.413 69.1313 640.413C69.1313 640.413 62.8654 645.27 56.9862 648.248C51.1071 651.225 46.3109 654.595 40.4318 656.475C34.4753 658.356 27.4357 657.259 29.2923 651.304Z" fill="#8A4140"/>
<path d="M187.01 571.276C187.01 571.276 182.146 575.606 181.048 575.606C179.95 575.606 160.889 574.819 139.946 581.196C119.002 587.573 101.431 595.052 97.6663 595.84C93.9012 596.627 82.3705 591.352 79.3113 582.298C76.3306 573.323 76.7228 570.646 80.4095 564.663C84.1746 558.679 81.5077 561.671 84.1746 558.679C86.7631 555.688 80.8017 554.192 74.8402 554.585C68.8788 554.979 65.5059 556.869 63.6233 560.175C61.7407 563.561 61.7407 566.946 61.7407 566.946C61.7407 566.946 50.916 569.938 51.622 579.306C52.4064 588.675 57.1912 591.667 57.1912 591.667C57.1912 591.667 53.4261 595.761 60.5641 603.712C67.7022 611.585 77.7425 610.877 80.7233 610.483C83.704 610.09 82.998 611.585 81.8214 618.356C80.7233 625.127 80.7233 634.889 80.7233 638.275C80.7233 641.66 78.1347 643.156 73.9774 643.864C69.8985 644.652 69.1141 644.652 64.2508 651.737C59.3875 658.902 49.2688 671.656 46.6802 674.648C44.0917 677.639 41.4248 679.529 43.6995 681.812C45.9743 684.095 48.955 684.804 53.0339 682.914C57.1128 681.025 57.1128 681.025 57.1128 681.025C57.1128 681.025 66.8394 675.041 72.8008 670.16C78.7623 665.279 78.3701 663.389 81.743 663.783C85.1159 664.177 93.3521 667.877 102.686 666.381C112.021 664.885 122.532 658.902 122.532 658.902C122.532 658.902 138.612 664.177 162.144 659.689C185.676 655.201 193.206 651.029 196.501 648.431C199.874 645.833 201.756 644.337 205.129 644.652C208.502 645.045 219.719 651.422 236.898 652.918C254.076 654.414 259.724 654.02 263.803 651.816C267.881 649.533 266.391 646.541 264.587 644.652C262.704 642.762 251.487 641.266 251.487 641.266C251.487 641.266 242.153 638.275 236.192 634.496C230.23 630.717 224.582 620.954 223.876 614.971C223.092 608.987 223.014 602.768 223.014 602.768L199.795 598.91C199.795 598.91 191.951 590.014 188.343 582.062C185.519 575.685 187.01 571.276 187.01 571.276Z" fill="#8A4140"/>
<path d="M43.085 679.916C43.9969 681.641 45.9866 682.708 47.8934 682.954C49.7173 683.283 53.6139 682.215 55.1891 679.423C56.7642 676.549 54.36 671.622 52.4532 670.391C50.5464 669.159 47.396 673.265 45.9037 674.661C44.3285 676.139 42.0901 678.027 43.085 679.916Z" fill="#D7835A"/>
<path d="M28.08 653.998C28.5687 655.857 30.2791 657.311 31.9896 657.958C33.7 658.604 37.691 658.524 39.7273 656.099C41.8449 653.675 40.6232 648.422 39.0757 646.886C37.4467 645.27 33.6185 648.503 31.8267 649.553C30.1162 650.685 27.5098 651.978 28.08 653.998Z" fill="#D7835A"/>
<path d="M141.851 552.73C141.851 552.73 150.222 553.299 158.828 550.05C167.433 546.8 174.005 545.744 181.281 547.369C188.557 548.994 194.581 551.674 195.128 552.811C195.676 553.868 191.999 555.248 188.635 555.492C185.271 555.736 177.917 558.985 173.77 560.366C169.624 561.747 163.6 563.616 157.341 561.422C151.082 559.229 146.936 556.305 145.606 555.736C144.198 555.167 138.408 552.73 141.851 552.73Z" fill="#FFC19C"/>
<path d="M256.516 542.557C256.516 543.483 256.97 544.95 259.011 546.803C261.052 548.733 260.145 549.196 261.279 547.73C262.413 546.34 263.698 543.947 263.396 542.634C263.094 541.399 262.035 540.55 260.901 540.704C259.767 540.936 256.516 540.936 256.516 542.557Z" fill="#8A4140"/>
<path d="M204.989 556.391C208.133 562.086 213.455 565.958 219.503 566.945C225.551 568.008 232.646 567.477 236.194 560.795C239.742 554.113 241.677 544.318 241.677 544.318H237.001C237.001 544.318 225.792 540.674 220.309 539.459C214.826 538.168 212.165 538.624 207.972 540.218C204.424 541.585 201.118 544.318 201.118 544.318C201.118 544.318 201.683 550.469 204.989 556.391Z" fill="#8A4140"/>
<path d="M291.001 533.841C290.839 533.596 290.92 533.759 290.92 533.841H291.001Z" fill="#99653F"/>
<path d="M290.517 533.922C290.436 533.677 290.759 533.84 290.517 533.514C290.275 533.432 290.194 533.595 290.517 533.922Z" fill="#99653F"/>
<path d="M290.759 534.004L290.597 533.841L290.759 534.167V534.004Z" fill="#99653F"/>
<path d="M290.92 534.167L290.839 534.086L290.92 534.331V534.167Z" fill="#99653F"/>
<path d="M290.194 534.004V533.922C290.436 534.086 290.436 534.249 290.597 534.331C290.678 534.249 290.275 533.841 290.436 533.841C290.275 533.677 290.275 534.004 290.033 533.677C289.791 533.677 290.114 533.841 290.194 534.004Z" fill="#99653F"/>
<path d="M286.567 540.617C286.487 540.617 286.487 540.617 286.487 540.617C286.487 540.617 286.567 540.699 286.567 540.617Z" fill="#99653F"/>
<path d="M279.555 543.475C279.555 543.475 279.555 543.393 279.474 543.393L279.555 543.475Z" fill="#99653F"/>
<path d="M288.824 534.657C288.744 534.575 288.744 534.657 288.824 534.657C288.824 534.739 288.905 534.739 288.824 534.657Z" fill="#99653F"/>
<path d="M288.179 535.228C288.099 535.147 288.099 535.147 288.179 535.228V535.228Z" fill="#99653F"/>
<path d="M288.824 534.738C288.663 534.657 288.341 534.249 288.663 534.738L288.744 534.82C288.663 534.738 288.744 534.983 288.744 534.983L288.824 535.065H288.905C288.985 535.065 288.824 534.82 288.824 534.738Z" fill="#99653F"/>
<path d="M287.454 539.311C287.534 539.393 287.534 539.311 287.454 539.311V539.311Z" fill="#99653F"/>
<path d="M287.534 538.658C287.534 538.658 287.454 538.658 287.534 538.658C287.534 538.74 287.534 538.74 287.534 538.658Z" fill="#99653F"/>
<path d="M273.025 546.986C273.025 546.904 273.106 546.986 273.187 547.067C273.025 546.741 273.025 547.149 272.945 546.822C272.945 546.822 272.945 546.904 272.945 546.986L273.187 547.231C273.106 546.986 273.106 547.067 273.025 546.986Z" fill="#99653F"/>
<path d="M278.748 543.23C278.668 543.148 278.668 543.067 278.507 543.067C278.668 543.312 278.91 543.557 279.071 543.802C279.071 543.802 279.071 543.802 279.151 543.802C278.99 543.638 278.829 543.393 278.748 543.23Z" fill="#99653F"/>
<path d="M279.152 543.72C279.152 543.72 279.152 543.802 279.152 543.72L279.232 543.802C279.232 543.802 279.232 543.802 279.313 543.802C279.232 543.802 279.232 543.802 279.152 543.72Z" fill="#99653F"/>
<path d="M282.859 538.739V538.657C282.779 538.657 282.779 538.739 282.859 538.739Z" fill="#99653F"/>
<path d="M279.796 547.394C279.555 547.067 279.796 547.394 279.635 547.312L279.716 547.476C279.796 547.557 279.796 547.476 279.796 547.394Z" fill="#99653F"/>
<path d="M279.555 543.638L279.716 543.475H279.635C279.716 543.72 279.393 543.475 279.555 543.638Z" fill="#99653F"/>
<path fill-rule="evenodd" clip-rule="evenodd" d="M288.018 535.718L288.018 535.718C288.018 535.718 288.018 535.664 287.932 535.644L287.928 535.643C287.911 535.637 287.891 535.637 287.857 535.637C287.887 535.637 287.912 535.64 287.932 535.644C287.954 535.653 287.974 535.674 288.018 535.718ZM288.035 538.092C287.981 538.022 287.937 537.967 287.937 538.086C288.011 538.136 288.003 538.133 287.957 538.116C287.854 538.077 287.559 537.965 287.615 538.249C287.776 538.413 287.857 538.413 287.937 538.413L287.776 538.249C287.867 538.295 287.906 538.264 287.952 538.228C287.988 538.199 288.028 538.168 288.099 538.168C288.077 538.146 288.055 538.118 288.035 538.092ZM286.809 536.127C286.648 536.045 286.648 536.127 286.648 536.127H286.809ZM281.247 540.862C281.288 540.944 281.247 540.944 281.217 540.944C281.187 540.944 281.167 540.944 281.247 541.025C281.408 541.107 281.489 541.189 281.489 541.189C281.489 541.107 281.408 540.944 281.247 540.862ZM279.555 544.128C279.635 544.21 279.796 544.373 279.877 544.536C279.796 544.618 279.716 544.536 279.393 544.046H279.474C279.474 544.046 279.474 544.128 279.555 544.128Z" fill="#99653F"/>
<path d="M279.393 544.128C279.393 544.128 279.474 544.21 279.555 544.21C279.474 544.128 279.474 544.128 279.393 544.128Z" fill="#99653F"/>
<path d="M290.92 535.147L291.081 535.31C291.081 535.065 290.92 534.902 290.759 534.657C290.839 534.902 290.759 534.902 290.678 534.983L290.92 535.147Z" fill="#99653F"/>
<path d="M289.63 533.84C289.55 533.759 289.388 533.677 289.388 533.677L289.469 533.84H289.63Z" fill="#99653F"/>
<path d="M288.099 534.085H288.26C288.179 534.004 287.937 533.922 288.099 534.085Z" fill="#99653F"/>
<path d="M290.356 535.963L290.275 535.8C290.114 535.718 290.114 535.8 290.194 535.963C290.275 535.8 290.356 536.045 290.356 535.963Z" fill="#99653F"/>
<path d="M287.857 534.249C288.018 534.494 287.696 534.249 287.857 534.494C287.776 534.412 288.018 534.494 287.857 534.249Z" fill="#99653F"/>
<path d="M290.033 536.617C290.275 536.862 290.114 536.617 290.194 536.617C290.194 536.617 289.872 536.453 290.033 536.617Z" fill="#99653F"/>
<path d="M288.018 535.392C287.857 535.228 287.937 535.228 288.018 535.228C288.018 535.228 288.099 535.31 288.018 535.392C288.018 535.228 288.099 535.228 288.018 535.065C287.857 534.983 287.696 534.983 287.534 534.738C287.696 534.983 287.857 535.228 288.018 535.392Z" fill="#99653F"/>
<path d="M289.953 536.78C290.033 536.78 290.194 536.943 290.275 536.861C290.194 536.78 289.953 536.535 289.953 536.698L289.791 536.453C289.55 536.371 290.033 536.698 289.953 536.78Z" fill="#99653F"/>
<path d="M287.373 535.065L287.454 535.147C287.373 534.902 287.534 534.902 287.293 534.657C287.293 534.739 287.293 534.902 287.373 535.065Z" fill="#99653F"/>
<path d="M289.388 536.535L289.63 536.862C289.711 536.862 289.55 536.78 289.469 536.698C289.55 536.698 289.55 536.698 289.55 536.698C289.55 536.78 289.308 536.372 289.388 536.535Z" fill="#99653F"/>
<path d="M289.469 537.025V537.188L289.791 537.433C289.791 537.352 289.711 537.352 289.469 537.025Z" fill="#99653F"/>
<path d="M289.147 536.943L289.388 537.433C289.308 537.188 289.308 537.188 289.147 536.943Z" fill="#99653F"/>
<path d="M286.084 536.29C286.164 536.453 286.406 536.535 286.245 536.372C286.164 536.29 285.922 536.208 286.084 536.29Z" fill="#99653F"/>
<path d="M288.421 538.413C288.341 538.331 288.341 538.658 288.421 538.739C288.421 538.658 288.582 538.576 288.421 538.413Z" fill="#99653F"/>
<path d="M287.051 541.107C287.131 541.107 287.131 541.026 286.97 540.862C286.97 540.944 286.97 541.026 287.051 541.271C287.051 541.189 287.131 541.271 287.051 541.107Z" fill="#99653F"/>
<path d="M286.487 541.434C286.406 541.352 286.487 541.352 286.406 541.189C286.325 541.189 286.406 541.352 286.487 541.434Z" fill="#99653F"/>
<path d="M280.199 540.454C280.119 540.454 280.119 540.535 280.28 540.699C280.361 540.617 280.28 540.535 280.199 540.454Z" fill="#99653F"/>
<path d="M280.28 540.78L280.199 540.699L280.038 540.617L280.28 540.78Z" fill="#99653F"/>
<path d="M279.796 540.781L279.716 540.699C279.716 540.699 279.716 540.781 279.796 540.781Z" fill="#99653F"/>
<path d="M279.796 540.699L279.716 540.617C279.716 540.617 279.716 540.617 279.796 540.699C279.716 540.699 279.716 540.699 279.796 540.699Z" fill="#99653F"/>
<path d="M279.635 540.862L279.958 541.107C279.877 540.944 279.796 541.025 279.555 540.699L279.635 540.862Z" fill="#99653F"/>
<path d="M279.555 541.107C279.393 541.026 279.716 541.597 279.393 541.271C279.393 541.597 279.877 541.76 279.877 542.087C280.199 542.087 279.393 541.352 279.716 541.434C279.393 541.271 279.555 541.189 279.555 541.107Z" fill="#99653F"/>
<path d="M280.038 541.597C279.877 541.434 279.796 541.434 279.877 541.597C279.958 541.597 280.199 541.842 280.038 541.597Z" fill="#99653F"/>
<path d="M279.313 541.515L279.152 541.434L279.232 541.515H279.313Z" fill="#99653F"/>
<path d="M279.071 541.597L278.91 541.352C279.071 541.434 278.99 541.515 279.071 541.597Z" fill="#99653F"/>
<path d="M278.668 541.597C278.587 541.597 278.91 542.087 278.91 541.842C278.829 541.76 278.587 541.679 278.668 541.597Z" fill="#99653F"/>
<path d="M278.668 542.822C278.668 542.822 278.668 542.74 278.587 542.659L278.668 542.822Z" fill="#99653F"/>
<path d="M279.635 543.883C279.877 544.128 279.716 543.801 279.796 543.801C279.716 543.801 279.716 543.801 279.635 543.883Z" fill="#99653F"/>
<path d="M278.265 542.495C278.184 542.332 278.265 542.413 278.345 542.413C278.184 542.25 278.104 542.332 278.265 542.495Z" fill="#99653F"/>
<path d="M278.184 542.74C278.023 542.658 278.023 542.577 277.942 542.495C277.781 542.413 277.701 542.495 277.862 542.658C277.942 542.74 278.265 543.066 278.345 543.23C278.345 543.066 277.942 542.495 278.345 542.822L278.023 542.25C277.942 542.332 278.265 542.74 278.184 542.74Z" fill="#99653F"/>
<path d="M279.151 543.475L278.99 543.393C279.151 543.557 279.151 543.638 279.151 543.638C279.474 543.965 279.151 543.475 279.151 543.475Z" fill="#99653F"/>
<path d="M277.701 543.312L277.62 543.23L277.701 543.475V543.312Z" fill="#99653F"/>
<path d="M277.217 543.475L277.378 543.638C277.378 543.557 277.539 543.72 277.378 543.475C277.459 543.557 277.378 543.557 277.217 543.475Z" fill="#99653F"/>
<path d="M279.796 547.802C279.716 547.721 279.635 547.639 279.555 547.557L279.796 547.802C279.716 547.721 279.716 547.802 279.796 547.802Z" fill="#99653F"/>
<path d="M279.313 547.476L279.474 547.802C279.635 547.802 279.393 547.557 279.474 547.394C279.393 547.312 279.474 547.557 279.393 547.557L279.313 547.476Z" fill="#99653F"/>
<path d="M277.539 548.701C277.378 548.537 277.378 548.537 277.378 548.374C277.378 548.537 277.298 548.619 277.217 548.701C277.298 548.782 277.459 549.027 277.459 548.946V548.782L277.539 548.946C277.701 548.946 277.378 548.619 277.539 548.701Z" fill="#99653F"/>
<path d="M271.816 550.415C271.736 550.333 271.655 550.252 271.575 550.17C271.655 550.252 271.816 550.333 271.816 550.415Z" fill="#99653F"/>
<path d="M299.277 553.485C299.201 553.164 299.201 553.405 299.277 553.485V553.485Z" fill="#99653F"/>
<path d="M298.741 553.325C298.741 553.084 298.971 553.325 298.894 553.003C298.741 552.843 298.664 553.003 298.741 553.325Z" fill="#99653F"/>
<path d="M298.971 553.566L298.894 553.325L298.971 553.646V553.566Z" fill="#99653F"/>
<path d="M299.124 553.726L299.047 553.646V553.887L299.124 553.726Z" fill="#99653F"/>
<path d="M298.435 553.325L298.511 553.245C298.664 553.485 298.588 553.646 298.664 553.726C298.741 553.646 298.511 553.164 298.664 553.245C298.588 553.004 298.435 553.325 298.358 552.923C298.205 552.843 298.435 553.164 298.435 553.325Z" fill="#99653F"/>
<path d="M294.376 557.26C294.376 557.26 294.299 557.26 294.376 557.26C294.376 557.26 294.376 557.34 294.376 557.26Z" fill="#99653F"/>
<path d="M293.15 558.063L293.074 557.982C293.074 558.063 293.074 558.063 293.15 558.063Z" fill="#99653F"/>
<path d="M294.912 556.216L294.988 556.296C294.988 556.296 294.988 556.216 294.912 556.216Z" fill="#99653F"/>
<path d="M293.763 558.384C293.686 558.384 293.686 558.384 293.763 558.384C293.686 558.384 293.686 558.464 293.763 558.384Z" fill="#99653F"/>
<path d="M297.056 553.405C296.979 553.245 296.75 552.763 296.903 553.325V553.405C296.826 553.325 296.826 553.485 296.826 553.566C296.826 553.646 296.903 553.646 296.903 553.726H296.979C297.056 553.807 297.056 553.566 297.056 553.405Z" fill="#99653F"/>
<path d="M294.299 557.18C294.376 557.26 294.376 557.26 294.299 557.18V557.18Z" fill="#99653F"/>
<path d="M296.214 556.136C296.137 556.136 296.137 556.136 296.214 556.136C296.214 556.216 296.214 556.216 296.214 556.136Z" fill="#99653F"/>
<path d="M279.058 558.946C279.058 558.866 279.135 559.026 279.211 559.026C279.135 558.625 279.058 559.107 279.058 558.705C278.982 558.785 278.982 558.785 279.058 558.946L279.135 559.187C279.135 559.026 279.058 559.107 279.058 558.946Z" fill="#99653F"/>
<path d="M285.338 557.661C285.262 557.501 285.262 557.501 285.185 557.42C285.262 557.661 285.415 557.983 285.415 558.304C285.415 558.304 285.415 558.304 285.491 558.304C285.415 558.063 285.415 557.822 285.338 557.661Z" fill="#99653F"/>
<path d="M285.568 558.223C285.568 558.303 285.568 558.303 285.645 558.303C285.645 558.303 285.645 558.303 285.721 558.303C285.645 558.303 285.568 558.223 285.568 558.223Z" fill="#99653F"/>
<path d="M280.13 558.705C280.13 558.705 280.207 558.705 280.13 558.705C280.13 558.625 280.13 558.625 280.13 558.705Z" fill="#99653F"/>
<path d="M290.47 555.011C290.47 555.011 290.47 554.931 290.47 554.851C290.393 554.931 290.47 554.931 290.47 555.011Z" fill="#99653F"/>
<path d="M284.879 561.837C284.802 561.436 284.879 561.837 284.726 561.677V561.918C284.879 561.918 284.879 561.837 284.879 561.837Z" fill="#99653F"/>
<path d="M285.874 558.304L286.104 558.223L286.028 558.143C286.028 558.384 285.874 558.063 285.874 558.304Z" fill="#99653F"/>
<path fill-rule="evenodd" clip-rule="evenodd" d="M294.682 554.047C294.682 553.967 294.759 553.887 294.835 554.047C294.806 554.047 294.788 554.036 294.772 554.026C294.747 554.009 294.729 553.998 294.682 554.047ZM296.061 554.128C296.061 554.047 295.984 553.967 295.984 553.967C295.984 554.047 296.061 554.128 296.061 554.128ZM295.238 556.204C295.21 556.144 295.193 556.108 295.141 556.216C295.197 556.303 295.172 556.285 295.118 556.245C295.022 556.176 294.835 556.04 294.835 556.296C294.9 556.364 294.937 556.417 294.965 556.456C295.002 556.51 295.021 556.537 295.065 556.537C295.065 556.456 295.065 556.376 294.988 556.296C295.065 556.336 295.103 556.316 295.141 556.296C295.18 556.276 295.218 556.256 295.295 556.296C295.269 556.269 295.252 556.233 295.238 556.204ZM288.402 556.376C288.402 556.448 288.386 556.439 288.369 556.43C288.348 556.418 288.325 556.404 288.325 556.537L288.478 556.697C288.478 556.617 288.478 556.456 288.402 556.376ZM285.798 558.946C285.817 559.026 285.836 559.107 285.874 559.187C285.814 559.25 285.801 559.214 285.685 558.879C285.655 558.79 285.616 558.68 285.568 558.544C285.568 558.464 285.645 558.544 285.645 558.544C285.645 558.585 285.664 558.605 285.683 558.625C285.702 558.645 285.721 558.665 285.721 558.705C285.76 558.785 285.779 558.866 285.798 558.946Z" fill="#99653F"/>
<path d="M285.645 558.625L285.721 558.705L285.645 558.625Z" fill="#99653F"/>
<path d="M298.741 554.61L298.818 554.77C298.894 554.529 298.818 554.369 298.741 554.047C298.741 554.288 298.664 554.208 298.511 554.369L298.741 554.61Z" fill="#99653F"/>
<path d="M298.052 552.923C298.052 552.843 297.899 552.682 297.899 552.682L297.975 552.843L298.052 552.923Z" fill="#99653F"/>
<path d="M296.597 552.602L296.75 552.682C296.75 552.602 296.52 552.361 296.597 552.602Z" fill="#99653F"/>
<path d="M297.975 555.252V555.092C297.899 554.931 297.822 555.011 297.899 555.172C297.899 555.011 297.975 555.252 297.975 555.252Z" fill="#99653F"/>
<path d="M296.367 552.682C296.443 553.004 296.214 552.602 296.29 552.923C296.29 552.843 296.443 553.004 296.367 552.682Z" fill="#99653F"/>
<path d="M297.439 555.654C297.592 555.975 297.516 555.654 297.592 555.734C297.592 555.734 297.439 555.413 297.439 555.654Z" fill="#99653F"/>
<path d="M296.137 553.806C296.06 553.565 296.137 553.565 296.137 553.646C296.214 553.646 296.214 553.806 296.137 553.806C296.214 553.646 296.214 553.646 296.29 553.565C296.137 553.405 296.06 553.405 295.984 553.084C295.984 553.244 295.984 553.646 296.137 553.806Z" fill="#99653F"/>
<path d="M297.363 555.734C297.439 555.814 297.516 555.975 297.592 555.975C297.516 555.814 297.439 555.573 297.363 555.654L297.286 555.413C297.133 555.252 297.439 555.734 297.363 555.734Z" fill="#99653F"/>
<path d="M295.678 553.325L295.754 553.405C295.754 553.164 295.907 553.245 295.831 552.923C295.678 552.923 295.601 553.084 295.678 553.325Z" fill="#99653F"/>
<path d="M296.903 555.332L297.056 555.734C297.133 555.734 296.98 555.653 296.98 555.493C297.056 555.573 297.056 555.573 297.056 555.493C296.98 555.573 296.903 555.172 296.903 555.332Z" fill="#99653F"/>
<path d="M296.826 555.814V555.975L297.056 556.376C297.056 556.216 296.903 556.216 296.826 555.814Z" fill="#99653F"/>
<path d="M296.597 555.654V556.216C296.673 555.895 296.673 555.975 296.597 555.654Z" fill="#99653F"/>
<path d="M294.146 553.887C294.222 554.047 294.299 554.208 294.222 554.047C294.222 553.967 293.993 553.806 294.146 553.887Z" fill="#99653F"/>
<path d="M295.524 556.698C295.448 556.617 295.371 556.858 295.371 557.019C295.371 556.939 295.601 556.939 295.524 556.698Z" fill="#99653F"/>
<path d="M293.38 558.625C293.457 558.625 293.457 558.544 293.457 558.384C293.457 558.464 293.38 558.544 293.38 558.785C293.38 558.705 293.38 558.866 293.38 558.625Z" fill="#99653F"/>
<path d="M292.767 558.785C292.767 558.705 292.844 558.705 292.767 558.545C292.767 558.464 292.767 558.705 292.767 558.785Z" fill="#99653F"/>
<path d="M287.559 555.654C287.483 555.573 287.483 555.654 287.559 555.894C287.636 555.814 287.559 555.734 287.559 555.654Z" fill="#99653F"/>
<path d="M287.559 555.975L287.483 555.814L287.406 555.654L287.559 555.975Z" fill="#99653F"/>
<path d="M287.1 555.734V555.653C287.023 555.653 287.023 555.734 287.1 555.734Z" fill="#99653F"/>
<path d="M287.1 555.654L287.023 555.493C287.1 555.573 287.023 555.573 287.1 555.654C287.1 555.654 287.1 555.573 287.1 555.654Z" fill="#99653F"/>
<path d="M286.947 555.734L287.1 556.055C287.1 555.895 286.947 555.895 286.87 555.493L286.947 555.734Z" fill="#99653F"/>
<path d="M286.717 555.895C286.64 555.814 286.717 556.377 286.564 555.975C286.487 556.296 286.87 556.617 286.717 556.858C287.023 557.019 286.564 556.055 286.793 556.216C286.564 556.055 286.717 556.055 286.717 555.895Z" fill="#99653F"/>
<path d="M287.023 556.617C286.947 556.376 286.87 556.457 286.87 556.537C286.947 556.537 287.1 556.858 287.023 556.617Z" fill="#99653F"/>
<path d="M286.487 556.296L286.334 556.136L286.411 556.296H286.487Z" fill="#99653F"/>
<path d="M286.181 556.296V556.055C286.181 556.135 286.104 556.135 286.181 556.296Z" fill="#99653F"/>
<path d="M285.798 556.055C285.721 555.975 285.874 556.537 285.951 556.376C285.874 556.296 285.798 556.135 285.798 556.055Z" fill="#99653F"/>
<path d="M285.415 557.18C285.491 557.18 285.491 557.099 285.415 557.019V557.18Z" fill="#99653F"/>
<path d="M285.951 558.545C286.104 558.866 286.028 558.464 286.104 558.545C286.028 558.545 286.028 558.464 285.951 558.545Z" fill="#99653F"/>
<path d="M285.185 556.778C285.185 556.617 285.262 556.698 285.262 556.698C285.185 556.537 285.109 556.617 285.185 556.778Z" fill="#99653F"/>
<path d="M285.032 556.938C284.955 556.778 284.955 556.778 284.879 556.698C284.726 556.537 284.726 556.617 284.726 556.858C284.802 557.019 284.955 557.34 284.955 557.581C285.032 557.42 284.879 556.778 285.109 557.26L284.955 556.617C284.955 556.457 285.109 556.938 285.032 556.938Z" fill="#99653F"/>
<path d="M285.645 557.983L285.492 557.822C285.568 557.983 285.568 558.063 285.492 558.143C285.721 558.545 285.645 557.983 285.645 557.983Z" fill="#99653F"/>
<path d="M284.572 557.42L284.496 557.581L284.572 557.42Z" fill="#99653F"/>
<path d="M284.419 557.34L284.343 557.179V557.501L284.419 557.34Z" fill="#99653F"/>
<path d="M283.96 557.26L284.036 557.42C284.036 557.34 284.189 557.501 284.113 557.26C284.113 557.42 284.036 557.42 283.96 557.26Z" fill="#99653F"/>
<path d="M284.726 562.158C284.726 561.998 284.649 561.917 284.572 561.837L284.726 562.158C284.726 562.078 284.726 562.158 284.726 562.158Z" fill="#99653F"/>
<path d="M284.419 561.676V562.078C284.572 562.078 284.496 561.837 284.496 561.757C284.419 561.676 284.419 561.917 284.343 561.837L284.419 561.676Z" fill="#99653F"/>
<path d="M282.505 562.158C282.428 561.917 282.428 561.998 282.428 561.837C282.351 561.998 282.275 561.998 282.198 562.078C282.275 562.239 282.275 562.48 282.275 562.399L282.351 562.239V562.399C282.581 562.48 282.351 562.078 282.505 562.158Z" fill="#99653F"/>
<path d="M276.914 561.596C276.914 561.516 276.837 561.355 276.761 561.275C276.761 561.516 276.914 561.596 276.914 561.596Z" fill="#99653F"/>
<path d="M302.987 572.551C303.065 572.314 303.143 572.63 303.221 572.314C303.143 572.076 303.065 572.156 302.987 572.551Z" fill="#99653F"/>
<path d="M303.143 572.867V572.63L303.065 572.947L303.143 572.867Z" fill="#99653F"/>
<path d="M303.221 573.026L303.143 572.947L303.065 573.105L303.221 573.026Z" fill="#99653F"/>
<path d="M302.753 572.472L302.831 572.393C302.909 572.63 302.753 572.788 302.831 572.946C302.909 572.946 302.909 572.393 302.987 572.472C302.987 572.235 302.753 572.472 302.831 572.077C302.675 571.919 302.753 572.314 302.753 572.472Z" fill="#99653F"/>
<path d="M295.972 574.686C295.972 574.607 295.972 574.607 295.894 574.607C295.972 574.686 295.972 574.686 295.972 574.686Z" fill="#99653F"/>
<path d="M298.388 573.737C298.388 573.816 298.388 573.816 298.466 573.816C298.388 573.737 298.388 573.737 298.388 573.737Z" fill="#99653F"/>
<path d="M294.413 575.239C294.335 575.318 294.335 575.318 294.413 575.239C294.335 575.318 294.413 575.318 294.413 575.239Z" fill="#99653F"/>
<path d="M301.428 571.919C301.35 571.919 301.35 571.919 301.428 571.919C301.35 572.077 301.35 572.077 301.428 571.919Z" fill="#99653F"/>
<path d="M301.35 571.998C301.35 571.84 301.35 571.365 301.272 571.919V571.998C301.272 571.84 301.194 572.077 301.116 572.077C301.116 572.156 301.116 572.156 301.116 572.235C301.116 572.235 301.194 572.235 301.194 572.314C301.272 572.393 301.272 572.077 301.35 571.998Z" fill="#99653F"/>
<path d="M297.453 574.369C297.453 574.449 297.531 574.369 297.453 574.369V574.369Z" fill="#99653F"/>
<path d="M297.921 573.974C297.921 573.974 297.843 573.895 297.921 573.974C297.843 573.974 297.921 573.974 297.921 573.974Z" fill="#99653F"/>
<path d="M282.566 570.021C282.566 569.942 282.644 570.1 282.644 570.179C282.722 569.784 282.488 570.179 282.644 569.863L282.566 569.942V570.258C282.566 570.179 282.488 570.179 282.566 570.021Z" fill="#99653F"/>
<path d="M288.879 571.286C288.879 571.128 288.879 571.128 288.879 571.049C288.802 571.286 288.879 571.681 288.802 571.919H288.879C288.802 571.681 288.879 571.444 288.879 571.286Z" fill="#99653F"/>
<path d="M294.647 570.811C294.647 570.811 294.647 570.732 294.725 570.732C294.647 570.732 294.647 570.811 294.647 570.811Z" fill="#99653F"/>
<path d="M286.931 574.923C287.009 574.528 286.931 574.923 286.853 574.686L286.775 574.923C286.853 575.002 286.931 574.923 286.931 574.923Z" fill="#99653F"/>
<path d="M285.45 575.002C285.45 574.923 285.372 574.923 285.45 575.002C285.372 574.923 285.372 574.923 285.45 575.002Z" fill="#99653F"/>
<path d="M289.191 572.076H289.425L289.347 571.997C289.269 572.235 289.191 571.839 289.191 572.076Z" fill="#99653F"/>
<path fill-rule="evenodd" clip-rule="evenodd" d="M292.153 571.602C292.153 571.57 292.166 571.523 292.182 571.469L292.182 571.469C292.204 571.392 292.231 571.3 292.231 571.207C292.231 571.286 292.211 571.266 292.192 571.247C292.173 571.227 292.153 571.207 292.153 571.286C292.075 571.523 292.153 571.602 292.153 571.602ZM298.934 571.602C299.012 571.523 299.09 571.523 299.09 571.681C299.051 571.681 299.031 571.662 299.012 571.642C298.992 571.622 298.973 571.602 298.934 571.602ZM298.712 573.843C298.726 573.751 298.732 573.705 298.622 573.816C298.622 573.92 298.578 573.843 298.527 573.756C298.463 573.643 298.388 573.514 298.388 573.737C298.388 573.974 298.466 574.054 298.466 574.054V573.816C298.513 573.911 298.56 573.921 298.607 573.93C298.638 573.937 298.669 573.943 298.7 573.974C298.7 573.928 298.707 573.882 298.712 573.843ZM288.819 572.788C288.81 572.841 288.802 572.894 288.802 572.947C288.724 572.947 288.724 572.867 288.724 572.314C288.724 572.235 288.802 572.314 288.802 572.314V572.472C288.854 572.578 288.836 572.683 288.819 572.788Z" fill="#99653F"/>
<path d="M288.802 572.314C288.802 572.314 288.802 572.393 288.879 572.472C288.879 572.393 288.802 572.314 288.802 572.314Z" fill="#99653F"/>
<path d="M302.519 573.737V573.974C302.597 573.816 302.675 573.579 302.675 573.263C302.597 573.5 302.519 573.421 302.363 573.421L302.519 573.737Z" fill="#99653F"/>
<path d="M302.519 571.919C302.519 571.84 302.519 571.682 302.441 571.682V571.84L302.519 571.919Z" fill="#99653F"/>
<path d="M301.272 571.049L301.35 571.207C301.35 571.128 301.272 570.811 301.272 571.049Z" fill="#99653F"/>
<path d="M301.584 573.974L301.662 573.816C301.584 573.658 301.584 573.658 301.506 573.895C301.584 573.737 301.584 573.974 301.584 573.974Z" fill="#99653F"/>
<path d="M300.96 571.049C300.882 571.365 300.882 570.89 300.804 571.207C300.882 571.128 300.96 571.365 300.96 571.049Z" fill="#99653F"/>
<path d="M300.96 574.133C300.96 574.449 301.038 574.133 301.116 574.212C301.038 574.291 300.96 573.974 300.96 574.133Z" fill="#99653F"/>
<path d="M300.415 571.998C300.415 571.761 300.493 571.761 300.493 571.84C300.493 571.84 300.493 571.998 300.415 571.998C300.571 571.84 300.571 571.919 300.648 571.84C300.571 571.681 300.493 571.602 300.493 571.286C300.415 571.444 300.337 571.761 300.415 571.998Z" fill="#99653F"/>
<path d="M300.804 574.212C300.882 574.291 300.882 574.528 300.96 574.528C300.96 574.37 300.882 574.053 300.804 574.212L300.882 573.895C300.804 573.658 300.882 574.212 300.804 574.212Z" fill="#99653F"/>
<path d="M300.103 571.286V571.444C300.181 571.207 300.259 571.365 300.337 570.97C300.259 570.97 300.181 571.128 300.103 571.286Z" fill="#99653F"/>
<path d="M300.571 573.658V574.053C300.649 574.132 300.571 573.895 300.571 573.816C300.571 573.895 300.649 573.895 300.649 573.816C300.493 573.895 300.649 573.579 300.571 573.658Z" fill="#99653F"/>
<path d="M300.259 574.132L300.181 574.29L300.259 574.686C300.337 574.528 300.259 574.449 300.259 574.132Z" fill="#99653F"/>
<path d="M300.181 573.816L300.025 574.291C300.103 574.054 300.103 574.133 300.181 573.816Z" fill="#99653F"/>
<path d="M298.466 571.286C298.466 571.444 298.544 571.681 298.466 571.444C298.544 571.365 298.388 571.128 298.466 571.286Z" fill="#99653F"/>
<path d="M298.7 574.37C298.7 574.212 298.544 574.449 298.466 574.607C298.544 574.528 298.778 574.607 298.7 574.37Z" fill="#99653F"/>
<path d="M295.972 575.319C296.05 575.398 296.128 575.239 296.128 575.081C296.05 575.16 295.972 575.239 295.894 575.398C295.972 575.398 295.972 575.477 295.972 575.319Z" fill="#99653F"/>
<path d="M295.427 575.239C295.427 575.16 295.504 575.16 295.504 575.002C295.504 574.923 295.427 575.081 295.427 575.239Z" fill="#99653F"/>
<path d="M291.685 570.337C291.607 570.258 291.607 570.337 291.607 570.574C291.685 570.495 291.685 570.416 291.685 570.337Z" fill="#99653F"/>
<path d="M291.218 570.258V570.179C291.218 570.179 291.14 570.179 291.218 570.258Z" fill="#99653F"/>
<path d="M291.062 570.179L291.14 570.574C291.218 570.416 291.062 570.416 291.14 570.021L291.062 570.179Z" fill="#99653F"/>
<path d="M290.828 570.258C290.75 570.1 290.672 570.732 290.594 570.258C290.36 570.495 290.594 570.97 290.36 571.128C290.594 571.365 290.516 570.337 290.672 570.574C290.594 570.337 290.75 570.337 290.828 570.258Z" fill="#99653F"/>
<path d="M290.828 570.97C290.828 570.733 290.75 570.733 290.75 570.891C290.75 570.891 290.75 571.207 290.828 570.97Z" fill="#99653F"/>
<path d="M290.438 570.416L290.36 570.258V570.416H290.438Z" fill="#99653F"/>
<path d="M290.205 570.337L290.282 570.1C290.205 570.179 290.127 570.179 290.205 570.337Z" fill="#99653F"/>
<path d="M289.893 570.021C289.815 569.942 289.737 570.495 289.893 570.416C289.893 570.258 289.815 570.1 289.893 570.021Z" fill="#99653F"/>
<path d="M289.113 570.89C289.113 570.89 289.191 570.811 289.191 570.732L289.113 570.89Z" fill="#99653F"/>
<path d="M289.113 572.314C289.113 572.63 289.191 572.314 289.269 572.393C289.191 572.314 289.191 572.314 289.113 572.314Z" fill="#99653F"/>
<path d="M289.035 570.416C289.035 570.258 289.113 570.337 289.113 570.416C289.113 570.179 289.035 570.258 289.035 570.416Z" fill="#99653F"/>
<path d="M288.88 570.574C288.88 570.416 288.88 570.416 288.88 570.258C288.802 570.1 288.724 570.1 288.724 570.337C288.724 570.495 288.724 570.891 288.724 571.049C288.88 570.891 288.958 570.258 288.958 570.812L289.035 570.179C288.88 570.021 288.958 570.574 288.88 570.574Z" fill="#99653F"/>
<path d="M289.035 571.681L288.957 571.444C288.957 571.681 288.88 571.681 288.88 571.761C288.957 572.235 289.035 571.761 289.035 571.681Z" fill="#99653F"/>
<path d="M288.178 570.811L288.1 570.89L288.178 570.811Z" fill="#99653F"/>
<path d="M288.1 570.654V570.495L288.022 570.733L288.1 570.654Z" fill="#99653F"/>
<path d="M288.022 570.495L288.1 570.416L288.022 570.495Z" fill="#99653F"/>
<path d="M287.71 570.416V570.574C287.71 570.495 287.788 570.733 287.788 570.495C287.788 570.574 287.71 570.574 287.71 570.416Z" fill="#99653F"/>
<path d="M286.697 575.16C286.697 575.002 286.697 574.923 286.697 574.844V575.16C286.697 575.081 286.619 575.081 286.697 575.16Z" fill="#99653F"/>
<path d="M286.541 574.607L286.463 575.002C286.541 575.081 286.619 574.765 286.697 574.686C286.697 574.607 286.619 574.844 286.541 574.765V574.607Z" fill="#99653F"/>
<path d="M284.593 574.291C284.593 574.053 284.593 574.053 284.671 573.974C284.593 574.132 284.515 574.053 284.359 574.132C284.359 574.291 284.281 574.528 284.359 574.449L284.515 574.291V574.449C284.515 574.607 284.515 574.132 284.593 574.291Z" fill="#99653F"/>
<path d="M279.527 571.681C279.527 571.602 279.527 571.444 279.527 571.365C279.449 571.444 279.527 571.602 279.527 571.681Z" fill="#99653F"/>
<path d="M188.832 566.813C188.832 566.813 182.596 564.394 176.754 565.876C170.912 567.359 168.386 572.12 169.886 579.535C171.386 587.027 176.359 592.413 182.438 596.705C189.779 601.856 202.805 606.773 209.83 608.256C216.856 609.739 221.356 611.222 225.697 607.71C230.039 604.198 231.934 601.544 231.776 598.188C231.618 594.832 229.487 592.803 229.487 592.803L225.145 600.842C225.145 600.842 217.567 602.715 201.699 596.159C185.832 589.603 180.938 581.564 179.596 578.208C178.254 574.852 179.201 572.432 181.333 572.198C183.385 572.042 185.517 572.745 185.517 572.745L187.964 571.184L188.832 566.813Z" fill="#FFC648"/>
<path d="M173.895 605.012C174.454 603.33 173.096 599.66 176.211 598.589C180.206 597.289 181.164 598.207 182.922 601.112C184.679 604.018 183.721 605.394 185.638 606.541C187.555 607.612 188.913 608.376 191.549 609.676C194.186 610.976 195.304 612.123 196.982 611.74C198.739 611.358 201.775 610.288 203.692 610.288C205.609 610.288 207.766 610.441 208.645 613.04C209.204 614.493 209.364 616.634 207.686 618.01C205.849 619.463 203.452 619.31 202.893 619.692C202.334 620.075 202.893 622.598 202.334 624.127C201.935 625.427 200.656 626.88 198.18 626.65C195.304 626.345 194.106 625.733 193.547 623.745C193.147 622.139 193.866 619.54 193.307 618.622C192.748 617.704 183.721 612.964 181.803 612.734C179.886 612.582 177.25 614.417 175.333 614.722C173.415 615.105 170.779 614.722 169.98 612.734C169.181 610.746 169.261 608.3 170.539 607.459C172.217 606.312 173.895 605.012 173.895 605.012Z" fill="white"/>
<path d="M196.093 607.583C196.888 605.899 196.263 603.935 194.697 603.196C193.131 602.456 191.217 603.222 190.422 604.905C189.627 606.588 190.252 608.552 191.818 609.292C193.384 610.031 195.298 609.266 196.093 607.583Z" fill="#FFC648"/>
<path d="M247.613 560.878C247.613 560.878 249.892 563.158 250.136 562.191C250.38 561.224 250.299 558.391 250.299 558.391C250.299 558.391 251.52 560.188 252.415 561.016C253.229 561.845 254.206 561.984 254.694 559.704C255.101 557.424 255.671 556.595 255.671 556.595C255.671 556.595 256.485 558.599 257.462 559.773C258.438 560.947 259.252 560.947 259.741 559.289C260.148 557.632 260.473 555.697 260.473 555.697L256.566 554.523L248.834 556.319L247.613 560.878Z" fill="white"/>
<path d="M250.581 572.659C250.581 572.659 250.831 571.027 251.081 570.083C251.415 568.795 252.082 569.31 253.083 570.598C254.085 571.886 254.168 572.058 254.168 572.058C254.168 572.058 254.502 571.629 254.752 569.739C255.002 567.85 255.837 566.39 256.671 568.194C257.422 569.568 257.505 571.199 257.505 571.199L254.919 574.291L250.581 572.659Z" fill="white"/>
<path d="M60.8221 642.414C63.3099 637.721 65.6423 632.948 69.3741 631.572C73.1059 630.278 79.0146 623.158 80.8027 619.275C82.5909 615.391 83.6793 611.265 83.6793 611.265L88.3441 610.86L84.69 640.391C84.69 640.391 76.9154 640.715 74.1943 640.715C71.862 640.715 69.2964 640.796 69.2964 640.796C69.2964 640.796 65.6423 643.547 64.2429 644.517C62.8435 645.488 59.6559 647.43 59.6559 647.43L60.8221 642.414Z" fill="#6D3131"/>
<path d="M123.957 657.854C123.957 657.854 127.853 654.849 131.126 645.678C132.841 640.823 133.698 634.581 133.698 634.581C133.698 634.581 133.931 646.757 144.529 650.61C155.127 654.463 176.012 651.997 184.506 649.454C193.389 646.757 198.377 645.37 202.818 644.214C204.611 643.752 197.519 648.298 188.09 652.46C178.661 656.621 167.362 658.085 167.362 658.085C167.362 658.085 145.231 663.171 123.957 657.854Z" fill="#6D3131"/>
<path d="M218.363 551.198C218.363 551.198 220.298 549.049 223.202 548.204C226.404 547.283 228.563 547.514 227.595 548.281C226.627 549.049 223.872 550.43 222.309 552.656C221.192 554.267 220.447 553.423 221.192 552.042C221.936 550.737 221.936 550.737 221.936 550.737C221.936 550.737 220.522 551.044 219.405 552.042C218.214 553.116 217.395 552.119 218.363 551.198Z" fill="#512020"/>
<path d="M504 168L505.415 177.58H507.067C507.067 177.58 507.303 184.23 510.134 191.435C512.965 198.56 518.469 202.439 522.008 204.815C525.546 207.19 533.41 211.227 547.171 210.99C560.932 210.752 573.042 208.852 580.12 203.627C587.197 198.402 609.53 177.58 609.53 177.58H612.832L617 168H504Z" fill="#EF851B"/>
<path d="M507 167.473C507 167.473 508.811 185.923 517.943 195.148C527.547 204.767 540.064 210.839 558.013 206.423C575.962 202.008 581.945 195.542 592.021 188.131C602.098 180.64 617.449 167.946 617.449 167.946L507 167.473Z" fill="#FFF498"/>
<path d="M527.311 192.625C533.294 197.198 541.56 200.746 549.432 200.037C557.304 199.327 568.64 196.094 577.772 188.919C586.904 181.744 606.585 167.946 606.585 167.946L513.298 167.473C513.298 167.473 515.03 183.242 527.311 192.625Z" fill="#FBE17B"/>
<path d="M535.97 180.325C544.551 181.034 548.959 175.121 550.062 173.308C551.321 171.336 552.187 167.709 552.187 167.709H522.43C522.43 167.709 523.847 179.3 535.97 180.325Z" fill="#C14423"/>
<path d="M571.16 167.946C571.16 167.946 573.6 177.171 584.936 177.092C594.855 177.092 598.477 167.709 598.477 167.709C598.477 167.709 571.632 167.946 571.16 167.946Z" fill="#C14423"/>
<path d="M563.051 193.887C569.051 193.887 573.915 189.015 573.915 183.006C573.915 176.996 569.051 172.125 563.051 172.125C557.051 172.125 552.187 176.996 552.187 183.006C552.187 189.015 557.051 193.887 563.051 193.887Z" fill="#C14423"/>
<rect x="493" y="143" width="227" height="24" fill="#FFC263"/>
<path d="M607.5 245V143" stroke="white" stroke-width="2" stroke-linecap="round" stroke-linejoin="round"/>
<path d="M538.5 176C539.881 176 541 174.881 541 173.5C541 172.119 539.881 171 538.5 171C537.119 171 536 172.119 536 173.5C536 174.881 537.119 176 538.5 176Z" fill="#D85A41"/>
<path d="M562 190C563.657 190 565 188.657 565 187C565 185.343 563.657 184 562 184C560.343 184 559 185.343 559 187C559 188.657 560.343 190 562 190Z" fill="#D85A41"/>
<path d="M560 182C561.105 182 562 181.105 562 180C562 178.895 561.105 178 560 178C558.895 178 558 178.895 558 180C558 181.105 558.895 182 560 182Z" fill="#D85A41"/>
<path d="M582 174C583.105 174 584 173.105 584 172C584 170.895 583.105 170 582 170C580.895 170 580 170.895 580 172C580 173.105 580.895 174 582 174Z" fill="#D85A41"/>
<path d="M588 172C589.105 172 590 171.105 590 170C590 168.895 589.105 168 588 168C586.895 168 586 168.895 586 170C586 171.105 586.895 172 588 172Z" fill="#D85A41"/>
<path d="M623.5 245V143" stroke="white" stroke-width="2" stroke-linecap="round" stroke-linejoin="round"/>
<path d="M502.984 293C502.984 293 561.648 262.558 567.279 259.741C572.911 256.924 577.135 256.611 583.94 256.376C590.745 256.063 608.5 255.515 612.958 255.28C617.495 254.967 648 243.698 648 243.698C648 243.698 612.646 244.011 608.656 244.011C605.841 244.011 603.963 244.324 609.048 240.098C614.132 235.873 619.451 231.099 616.635 227.108C613.819 223.117 603.65 231.021 599.114 233.29C594.577 235.56 589.493 234.386 584.722 236.42C579.95 238.377 570.486 243.933 570.486 243.933L547.803 243.777L490 263.575L502.984 293Z" fill="#FFA171"/>
<path d="M554 243L557.009 255.773C557.009 255.773 554.587 258.62 554.22 261.712C553.853 264.803 554.367 267 554.367 267L560.679 263.827L562 254.553L555.982 243.407L554 243Z" fill="#F37E4E"/>
<path d="M558.688 258L552 243L565.211 243.082L570 253.055L564.303 254.538L558.688 258Z" fill="#5E2D1E"/>
<path d="M512.698 255.121L524.179 251C524.179 251 527.608 258.758 528.804 267.323C530 275.889 530 278.96 530 278.96L506 291L512.698 255.121Z" fill="#F37E4E"/>
<path d="M515.242 250C515.242 250 519.503 259.845 518.951 272.502C518.398 285.159 516.11 295.316 516.11 295.316C516.11 295.316 494.807 303.754 483.13 308.286C471.452 312.818 461.195 312.818 452.989 299.301C444.705 285.784 450.464 271.095 459.854 266.642C469.085 262.11 515.242 250 515.242 250Z" fill="#E84C4F"/>
<path d="M570.626 268.524C576.178 266.302 579.296 261.041 577.591 256.773C575.885 252.505 570.002 250.846 564.45 253.068C558.898 255.29 555.78 260.551 557.485 264.819C559.191 269.087 565.074 270.746 570.626 268.524Z" fill="#5E2D1E"/>
<path d="M569.913 266.129C574.017 264.487 576.418 260.838 575.275 257.979C574.133 255.12 569.88 254.134 565.777 255.776C561.673 257.419 559.273 261.068 560.415 263.926C561.557 266.785 565.81 267.771 569.913 266.129Z" fill="#FBFFDD"/>
<path d="M603.974 250.976C608.76 251.464 648 244.231 648 244.231L604.931 244.393C604.931 244.393 604.134 243.58 606.048 242.199C607.962 240.817 612.03 237.485 613.625 235.534C615.22 233.583 616.496 231.389 616.655 230.251C616.815 229.113 615.938 227 615.938 227C615.938 227 615.698 231.389 610.913 235.371C606.207 239.354 602.778 242.361 600.465 244.881C598.152 247.4 598.072 250.407 603.974 250.976Z" fill="#F37E4E"/>
<path d="M153.426 438.375C153.426 438.375 149.281 435.571 152.487 427.859C155.694 420.07 164.765 414.228 164.765 414.228L159.056 408.931C159.056 408.931 149.985 408.541 143.259 417.032C136.533 425.445 139.27 440.089 139.27 440.089L153.426 438.375Z" fill="white"/>
<path d="M154.286 440.945C153.817 438.219 153.66 436.661 148.733 436.038C143.806 435.415 143.337 436.973 143.103 433.779C142.868 430.585 142.164 424.12 149.515 419.213C156.945 414.305 161.95 412.28 162.967 411.579C163.983 410.878 159.213 405.659 153.191 402.387C147.169 399.038 142.477 396.389 141.304 396.935C140.053 397.558 108.536 459.796 106.894 462.989C105.251 466.183 107.597 468.754 110.569 469.611C113.541 470.467 118.468 464.781 126.21 459.328C132.154 455.122 144.354 447.878 148.342 445.307C152.409 442.815 154.286 440.945 154.286 440.945Z" fill="#E84C4F"/>
<path d="M142.477 448.813C142.477 448.813 138.958 443.75 137.472 441.491C136.064 439.232 139.349 437.051 140.913 439.543C142.399 442.114 146.074 446.788 146.074 446.788L142.477 448.813Z" fill="white"/>
<path d="M135.282 453.564C135.282 453.564 132.388 449.669 130.903 447.488C129.495 445.229 132.779 443.048 134.344 445.541C135.829 448.112 138.488 451.461 138.488 451.461L135.282 453.564Z" fill="white"/>
<path d="M140.365 406.983L108.927 468.988L104.704 466.417L140.522 396.078L144.823 398.103L140.365 406.983Z" fill="white"/>
</svg>
