<svg width="586" height="848" viewBox="0 0 586 848" fill="none" xmlns="http://www.w3.org/2000/svg">
<path d="M98.5771 786.448C89.3899 782.795 86.5343 773.878 86.5343 773.878C86.5343 773.878 81.4441 813.199 81.4441 831.404C81.4441 849.61 94.8526 850.848 99.6945 842.365C103.916 834.934 121.235 800.629 125.642 791.959H123.656C112.544 792.021 104.412 789.854 98.5771 786.448Z" fill="#C1E5F2"/>
<path d="M89.3899 730.656C93.0524 723.473 98.7014 718.581 106.026 716.29C105.406 713.689 104.723 711.026 103.916 708.178L79.7681 633.313C69.7738 610.958 56.7999 594.239 38.7357 594.239C32.5281 594.239 25.7618 596.221 18.3126 600.617C-20.6092 623.467 13.719 675.978 29.7346 721.615C40.7842 753.072 55.0618 763.908 71.0774 763.908C75.3607 763.908 79.7681 763.103 84.2376 761.741C84.1755 760.503 84.1135 759.326 84.1135 758.088C84.1755 746.632 85.8516 737.591 89.3899 730.656Z" fill="#C1E5F2"/>
<path d="M209.135 526.31C201.065 526.31 192.374 526.681 183.125 527.61C144.948 531.263 114.779 544.886 94.9767 556.652C79.1473 566.064 67.9735 585.26 74.1812 602.537L83.6788 631.888L107.889 707.001L110.31 714.432C110.31 714.432 111.924 714.556 114.841 714.803C115.462 714.803 116.083 714.742 116.765 714.742C126.449 714.742 154.446 716.228 186.788 717.961C190.822 718.023 194.982 718.023 199.141 718.023C242.594 718.023 283.006 710.593 290.455 709.106V708.859L291.014 543.524V543.462C288.841 542.224 260.969 526.31 209.135 526.31Z" fill="#C1E5F2"/>
<path d="M461.227 792.021C465.138 800.01 482.209 834.872 486.492 842.427C491.334 850.91 504.742 849.734 504.742 831.466C504.742 813.261 499.838 773.94 499.838 773.94C499.838 773.94 496.921 785.52 484.816 787.935C479.229 790.473 471.966 792.021 462.592 792.021H461.227Z" fill="#C1E5F2"/>
<path d="M480.967 716.537C487.92 718.952 493.32 723.721 496.796 730.656C500.335 737.591 502.011 746.57 502.011 758.15C502.011 759.326 501.949 760.565 501.887 761.803C506.356 763.165 510.764 763.971 515.047 763.971C531.063 763.971 545.402 753.072 556.39 721.677C572.405 676.04 606.734 623.529 567.812 600.679C560.363 596.283 553.534 594.301 547.389 594.301C531.559 594.301 519.641 607.119 510.267 625.325L481.215 715.732L480.967 716.537Z" fill="#C1E5F2"/>
<path d="M479.291 720.315C478.67 720.129 477.987 719.943 477.305 719.757C476.622 719.572 475.939 719.448 475.256 719.324C474.263 719.138 473.207 719.014 472.09 718.952C460.544 719.819 432.113 721.677 399.523 722.049C360.105 724.154 315.968 726.507 297.47 726.507C297.47 726.507 294.242 726.507 288.593 726.507C270.094 726.507 225.958 724.154 186.539 722.049C154.88 720.377 126.263 718.829 116.641 718.829C115.959 718.829 115.338 718.829 114.655 718.891C113.289 718.952 112.048 719.076 110.868 719.324C110.185 719.448 109.503 719.572 108.82 719.757C108.137 719.943 107.454 720.129 106.833 720.315C90.5693 725.64 88.2104 744.527 88.2104 758.15C88.2104 758.893 88.2104 759.636 88.2725 760.441C88.3346 761.184 88.3346 761.865 88.3967 762.608C88.4588 763.289 88.5829 764.032 88.7071 764.714C90.7556 777.717 99.8808 787.873 123.532 787.873C146.935 787.873 256.499 787.873 288.593 787.873C294.18 787.873 297.47 787.873 297.47 787.873C329.563 787.873 439.128 787.873 462.53 787.873C486.181 787.873 495.245 777.717 497.355 764.714C497.479 764.032 497.541 763.289 497.666 762.608C497.728 761.927 497.79 761.184 497.79 760.441C497.852 759.698 497.852 758.955 497.852 758.15C497.914 744.589 495.555 725.64 479.291 720.315Z" fill="#C1E5F2"/>
<path d="M486.243 553.741C466.503 542.719 438.196 530.954 403.123 527.61C393.874 526.743 385.183 526.31 377.113 526.31C325.28 526.31 297.407 542.224 295.297 543.462C295.235 543.524 295.173 543.524 295.173 543.524L294.614 708.859C294.614 708.859 295.049 708.921 295.856 709.106C303.243 710.531 343.716 718.023 387.17 718.023C391.329 718.023 395.488 718.023 399.523 717.961C431.927 716.228 459.861 714.742 469.545 714.742C470.414 714.742 471.345 714.803 472.214 714.803C474.139 714.68 475.628 714.556 476.435 714.494C477.056 714.432 477.367 714.432 477.367 714.432L488.54 679.569C489.161 677.464 489.782 675.296 490.403 673.129C493.258 663.036 496.548 652.571 500.397 642.663L506.48 623.776L511.881 606.933C519.082 586.685 505.053 564.268 486.243 553.741Z" fill="#C1E5F2"/>
<path d="M490.403 673.129C489.782 675.358 489.161 677.464 488.54 679.569L500.397 642.663C496.548 652.571 493.258 663.036 490.403 673.129Z" fill="#C1E5F2"/>
<path d="M272.186 97.5731C272.805 92.0528 279.305 62.9009 289.952 40.9439C300.6 19.049 313.043 7.07812 313.043 7.07812L337.929 21.7781L348.143 42.1224C348.143 42.1224 360.895 56.4503 362.381 62.5288C363 65.0098 361.081 68.6693 361.081 68.6693C361.081 68.6693 353.652 71.2123 348.391 72.3908C331.491 76.2364 288.343 92.487 283.143 95.5882C273.733 101.233 272.186 97.5731 272.186 97.5731Z" fill="#ED931B"/>
<path d="M272.557 95.9608C273.176 90.4406 279.119 60.9785 289.767 39.0836C300.414 17.1887 312.857 5.21777 312.857 5.21777L337.743 19.9178L347.957 40.2621L357.181 61.1646L351.052 68.5456C351.052 68.5456 288.157 90.6887 282.957 93.7899C273.548 99.3102 272.557 95.9608 272.557 95.9608Z" fill="#FFC166"/>
<path d="M316.014 0.999824C327.033 1.12387 340.962 8.87704 350.433 24.8796C357.49 36.7884 360.4 49.8137 361.514 57.3808C361.886 59.9859 362.133 62.9631 362.133 62.9631C362.133 62.9631 359.162 62.9631 356.005 64.6378C353.343 66.0024 350.99 68.6074 350.99 68.6074C350.99 68.6074 350.619 66.9327 350.371 65.4441C349.195 58.5593 346.409 43.2391 336.133 28.2289C325.981 13.4049 307.162 9.74539 307.162 9.74539C307.162 9.74539 307.967 0.875774 316.014 0.999824Z" fill="#FBE17B"/>
<path d="M334.923 61.7752C339.522 55.6397 338.929 47.4136 333.599 43.4016C328.268 39.3897 320.218 41.1113 315.618 47.2468C311.018 53.3823 311.611 61.6085 316.942 65.6204C322.273 69.6323 330.323 67.9108 334.923 61.7752Z" fill="#C04120"/>
<path d="M332.002 58.0908C333.398 56.2282 333.222 53.7343 331.609 52.5204C329.996 51.3066 327.557 51.8324 326.161 53.695C324.764 55.5576 324.94 58.0515 326.553 59.2654C328.166 60.4793 330.605 59.9534 332.002 58.0908Z" fill="#D65941"/>
<path d="M323.803 51.0757C324.892 49.624 324.755 47.68 323.497 46.7336C322.239 45.7871 320.338 46.1968 319.249 47.6485C318.161 49.1002 318.298 51.0443 319.556 51.9907C320.813 52.9371 322.715 52.5274 323.803 51.0757Z" fill="#D65941"/>
<path d="M311.157 45.719C315.099 40.4599 314.572 33.3947 309.979 29.9382C305.387 26.4818 298.467 27.9431 294.525 33.2022C290.582 38.4612 291.109 45.5265 295.702 48.9829C300.295 52.4393 307.214 50.978 311.157 45.719Z" fill="#C04120"/>
<path d="M293.357 58.3114C298.681 62.3431 299.3 70.5924 294.719 76.7329C290.138 82.8734 282.029 84.6102 276.705 80.5785C276.395 80.3304 276.148 80.1443 275.838 79.8962C277.448 73.1355 279.738 65.0722 282.524 56.9469C286.238 55.5823 290.262 56.0165 293.357 58.3114Z" fill="#C04120"/>
<path d="M291.18 72.8374C292.268 71.3857 292.131 69.4417 290.873 68.4953C289.616 67.5489 287.714 67.9585 286.626 69.4102C285.537 70.8619 285.675 72.806 286.932 73.7524C288.19 74.6988 290.091 74.2892 291.18 72.8374Z" fill="#D65941"/>
<path d="M302.869 41.5799C303.752 40.4021 303.648 38.8302 302.636 38.069C301.625 37.3077 300.089 37.6454 299.206 38.8232C298.323 40.001 298.427 41.5729 299.439 42.3342C300.45 43.0954 301.986 42.7577 302.869 41.5799Z" fill="#D65941"/>
<path d="M321.739 59.5042C322.622 58.3264 322.518 56.7545 321.506 55.9933C320.495 55.232 318.959 55.5697 318.076 56.7475C317.193 57.9254 317.297 59.4973 318.309 60.2585C319.32 61.0197 320.856 60.682 321.739 59.5042Z" fill="#D65941"/>
<path d="M73.8334 505.922C72.4063 502.325 80.1622 503.689 89.7176 505.364C99.2108 507.039 103.802 507.163 106.408 507.225C109.014 507.287 114.102 511.257 118.694 515.723C123.285 520.251 130.11 525.151 130.11 525.151L126.015 539.728C126.015 539.728 116.274 542.581 109.325 544.256C102.437 545.992 90.276 540.596 84.0712 537.929C77.8044 535.262 76.7496 534.269 76.7496 534.269L70.1726 523.6L71.4136 520.375L79.5418 520.127L84.1333 519.693C84.1333 519.693 102.748 518.886 94.8054 515.971C86.7393 512.994 76.9978 513.8 73.8334 505.922Z" fill="#FFA171"/>
<path d="M84.0714 519.692C84.0714 519.692 97.5977 520.747 105.105 521.491C112.613 522.236 115.033 524.779 113.978 527.88C112.799 531.478 113.172 534.703 107.277 534.641C103.182 534.641 92.6339 530.981 87.9804 527.88C82.1479 524.034 84.0714 519.692 84.0714 519.692Z" fill="#F37E4E"/>
<path d="M111.124 532.966C110.566 534.517 108.828 535.261 107.277 534.703L52.9235 513.8C51.3723 513.242 50.6277 511.505 51.1862 509.954C51.7446 508.403 53.4819 507.659 55.0331 508.217L109.387 529.121C110.938 529.679 111.744 531.416 111.124 532.966Z" fill="#333333"/>
<path d="M71.7238 516.653C76.2533 518.142 72.5925 524.097 70.1726 527.88C67.7528 531.664 66.8221 534.145 62.851 531.54C58.88 528.935 62.3546 524.779 65.1468 521.305C67.9389 517.894 69.428 515.909 71.7238 516.653Z" fill="#FFA171"/>
<path d="M71.5377 535.51C75.3226 537.557 77.0599 534.579 79.1075 529.059C81.1551 523.539 80.9069 521.988 78.0527 520.747C75.1985 519.507 73.6473 523.414 72.2202 526.454C70.7311 529.493 67.939 533.587 71.5377 535.51Z" fill="#FFA171"/>
<path d="M80.0382 537.929C83.8231 539.976 85.5604 536.998 87.608 531.478C89.6555 525.957 89.4074 524.407 86.5532 523.166C83.699 521.926 82.1478 525.833 80.7207 528.873C79.2316 531.85 76.4394 536.006 80.0382 537.929Z" fill="#FFA171"/>
<path d="M271.082 328.895C271.082 328.895 273.316 346.945 271.951 350.915C270.648 354.884 243.719 368.965 243.719 368.965C243.719 368.965 243.719 389.248 274.557 394.086C305.395 398.924 337.597 379.572 337.597 379.572L344.236 362.824L337.597 361.087C337.597 361.087 317.742 353.148 313.771 351.411C309.8 349.674 308.931 348.744 308.497 343.037C308.063 337.331 307.628 325.855 307.628 325.855L271.082 328.895Z" fill="#FFA171"/>
<path d="M289.51 349.736C298.631 349.488 308.497 343.037 308.497 343.037L308.063 323.375L271.579 323.995V333.733L272.199 343.472C272.261 343.534 278.156 350.046 289.51 349.736Z" fill="#F37E4E"/>
<path d="M380.348 439.181C380.348 439.181 387.856 488.183 388.972 495.13C390.151 502.077 392.447 503.752 394.743 505.488C397.039 507.225 446.056 526.826 450.089 528.563C454.122 530.3 453.564 538.363 451.268 540.658C448.972 542.953 453.564 545.248 435.694 542.395C417.824 539.542 382.085 530.3 374.019 527.384C365.953 524.531 363.037 522.794 361.92 519.321C360.741 515.847 347.028 443.771 347.028 443.771L380.348 439.181Z" fill="#FFA171"/>
<path d="M199.294 439.987C199.294 439.987 189.18 488.493 187.691 495.378C186.139 502.201 183.782 503.813 181.362 505.426C178.942 507.039 128.994 523.973 124.837 525.523C120.741 527.012 120.866 535.138 123.037 537.557C125.209 539.976 120.493 542.023 138.487 540.1C156.481 538.177 192.716 530.858 200.907 528.439C209.097 526.019 212.075 524.407 213.44 520.995C214.805 517.584 232.303 446.376 232.303 446.376L199.294 439.987Z" fill="#FFA171"/>
<path d="M212.82 465.729C205.746 463.247 195.385 460.022 195.385 460.022L189.428 487.624C189.428 487.624 195.695 493.641 204.878 496.556C214.061 499.472 218.838 499.72 218.838 499.72L225.664 472.738L212.82 465.729Z" fill="#F37E4E"/>
<path d="M506.614 528.625C501.775 528.935 490.544 539.852 490.544 539.852L463.74 536.13L472.86 547.915L484.401 549.528C484.401 549.528 487.938 549.528 491.785 547.915C495.632 546.302 508.165 532.47 509.468 530.858C510.834 529.307 506.614 528.625 506.614 528.625Z" fill="#F37E4E"/>
<path d="M365.519 464.116C372.716 462.007 383.202 459.34 383.202 459.34L387.732 487.252C387.732 487.252 381.155 492.959 371.847 495.378C362.54 497.797 357.763 497.797 357.763 497.797L352.365 470.505L365.519 464.116Z" fill="#F37E4E"/>
<path d="M515.921 540.41C511.33 538.859 496.811 544.752 496.811 544.752L471.309 542.829L477.452 545.496L479.996 551.017C479.996 551.017 490.792 552.753 494.949 552.691C499.107 552.691 515.983 544.628 517.783 543.635C519.582 542.643 515.921 540.41 515.921 540.41Z" fill="#F37E4E"/>
<path d="M246.822 365.677C246.822 365.677 245.829 363.755 238.135 367.104C230.379 370.516 224.423 373.617 224.423 373.617C224.423 373.617 214.247 383.293 207.98 397.312C205.374 403.142 201.403 417.036 196.501 427.705C189.614 442.778 181.858 454.377 181.858 454.377C181.858 454.377 182.851 466.473 200.721 476.583C218.59 486.756 229.635 486.135 229.635 486.135L232.117 461.634C232.117 461.634 234.04 485.825 232.613 508.031C231.186 530.237 230.689 533.649 228.766 540.906C226.843 548.163 221.01 564.104 221.01 564.104L287.711 581.038L321.527 577.192L368.435 561.747C368.435 561.747 355.839 537.122 351.992 516.777C348.145 496.494 344.236 460.208 344.236 460.208L349.572 481.98C349.572 481.98 369.428 481.98 382.023 474.722C394.619 467.465 399.521 457.851 399.521 457.851C399.521 457.851 392.447 441.227 387.483 423.549C382.458 405.685 379.603 386.767 378.611 383.852C376.687 378.021 348.456 361.77 346.532 361.149C344.609 360.529 344.174 362.886 344.174 362.886C344.174 362.886 333.192 386.829 287.959 388.69C252.282 390.116 246.822 365.677 246.822 365.677Z" fill="#E84C4F"/>
<path d="M487.008 519.011C488.745 522.484 476.087 528.005 473.853 528.997C471.62 529.989 465.787 536.378 465.787 536.378L480.865 542.147L485.705 534.766C485.705 534.766 485.642 528.749 486.325 525.151C487.628 518.39 490.172 520.313 490.172 520.313L493.088 537.681C493.088 537.681 488.559 547.667 487.318 550.521C486.015 553.436 481.547 553.436 476.708 553.746C471.868 554.056 449.717 546.365 445.87 545.372C442.023 544.38 433.957 542.147 431.723 540.844C429.49 539.542 431.413 530.858 435.88 529.927C440.41 528.935 445.188 527.012 445.188 527.012C445.188 527.012 453.254 522.174 461.258 521.554C469.324 520.933 477.328 519.941 480.865 519.011C484.464 518.018 486.387 517.708 487.008 519.011Z" fill="#FFA171"/>
<path d="M130.483 548.784C146.429 540.782 175.777 545.434 200.1 550.831C224.423 556.227 230.503 558.956 239.934 560.941C249.366 562.988 269.655 568.385 298.693 566.338C327.732 564.291 357.452 557.53 373.709 552.816C389.965 548.102 423.285 539.976 435.632 542.333C447.979 544.69 457.473 544.69 462.871 564.291C468.269 583.892 295.281 623.031 295.281 623.031C295.281 623.031 160.824 592.638 143.264 584.512C125.767 576.448 117.018 555.545 130.483 548.784Z" fill="#EDA320"/>
<path d="M163.74 638.6C164.237 640.213 164.981 642.135 166.594 642.632C166.967 642.756 170.379 642.322 170.628 642.632C170.938 643.004 168.084 643.934 168.146 645.609C168.27 648.4 179.562 654.293 182.913 655.906C187.691 658.325 200.907 655.906 214.681 652.308C228.456 648.71 234.474 647.532 238.632 645.733C242.851 643.934 246.387 640.337 251.786 638.538C257.184 636.739 279.955 631.963 279.955 631.963L270.958 607.4L242.23 620.55C242.23 620.55 229.635 618.751 218.9 621.17C210.4 623.031 199.107 624.768 190.731 625.388C182.292 626.008 160.762 628.427 163.74 638.6Z" fill="#FFA171"/>
<path d="M244.836 634.258C244.836 634.258 254.329 646.353 258.487 652.618C262.644 658.883 265.56 662.791 270.152 655.285C274.743 647.78 253.895 625.884 253.895 625.884L244.836 634.258Z" fill="#EDA320"/>
<path d="M222.499 628.552C230.565 630.847 234.784 633.514 232.116 638.538C229.448 643.562 202.21 655.038 202.21 655.038C202.21 655.038 221.568 651.006 227.091 649.269C232.675 647.47 236.212 646.54 240.058 644.989C243.905 643.438 246.884 640.151 249.614 639.407C252.344 638.662 264.009 635.871 264.009 635.871L262.085 620.116C262.085 620.116 225.105 619.247 218.838 621.232C212.571 623.217 198.735 625.078 198.735 625.078C198.735 625.078 217.163 627.001 222.499 628.552Z" fill="#F37E4E"/>
<path d="M408.952 638.6C408.455 640.399 406.656 641.701 404.546 642.135C402.375 642.57 398.838 640.461 396.79 640.895C395.115 641.205 403.057 643.066 403.492 643.934C405.787 648.524 392.881 654.417 389.779 655.968C385.001 658.387 371.785 655.968 358.011 652.37C344.236 648.772 338.218 647.594 334.06 645.795C329.841 643.996 326.304 640.399 320.906 638.6C315.508 636.801 292.737 632.025 292.737 632.025L301.734 607.462L330.462 620.612C330.462 620.612 343.057 618.813 353.791 621.232C362.292 623.093 373.585 624.83 381.961 625.45C390.337 626.07 411.992 628.427 408.952 638.6Z" fill="#FFA171"/>
<path d="M320.969 638.6C320.969 638.6 328.29 644.183 334.123 645.795C339.955 647.408 348.828 650.075 348.828 650.075C348.828 650.075 345.353 641.64 356.149 634.754C366.884 627.869 382.085 625.45 382.085 625.45L335.798 617.449L320.969 638.6Z" fill="#F37E4E"/>
<path d="M117.639 563.112C122.168 548.784 136.812 540.348 167.339 554.118C197.866 567.889 321.217 600.825 321.217 600.825C321.217 600.825 328.972 611.618 315.818 627.187C302.664 642.756 302.044 643.376 288.89 640.337C275.736 637.36 263.14 624.148 239.81 622.969C216.48 621.791 183.099 627.249 150.772 609.261C118.383 591.335 113.42 576.324 117.639 563.112Z" fill="#FFC648"/>
<path d="M283.616 595.987C283.616 595.987 267.918 587.117 246.822 595.987C225.664 604.857 201.837 611.68 184.092 611.68C166.346 611.68 149.221 604.423 142.458 600.329C135.695 596.235 120.369 584.574 120.369 584.574C120.369 584.574 126.388 595.056 140.597 603.678C154.805 612.3 169.076 618.317 180.307 619.806C191.538 621.294 203.513 623.899 214.061 623.527C224.609 623.155 239.935 622.411 248.931 624.272C257.928 626.132 274.433 629.916 274.433 629.916L283.616 595.987Z" fill="#EDA320"/>
<path d="M261.899 653.363C258.176 641.702 260.162 636.801 249.242 627.063C244.774 623.093 240.369 622.783 237.39 622.907C233.482 623.031 242.044 619.62 255.136 611.68C269.903 602.686 290.751 588.73 310.42 581.1C347.525 566.71 415.218 544.566 427.814 544.008C440.41 543.387 451.02 537.557 462.623 559.763C474.226 581.969 445.187 600.887 430.792 606.904C421.361 610.812 393.998 622.287 358.631 625.698C342.499 627.249 325.56 638.6 319.976 640.461C303.781 645.857 270.214 658.821 267.235 659.442C264.257 659.938 263.947 659.752 261.899 653.363Z" fill="#FFC648"/>
<path d="M179.686 286.964L124.03 306.007C119.625 307.495 114.661 304.704 112.985 299.804L112.241 297.695C111.434 295.338 110.504 293.539 112.551 292.795L160.266 276.481L163.244 276.233C163.988 276.171 164.733 275.923 165.353 275.551L168.828 273.504L180.555 269.534C182.665 268.79 183.037 270.837 183.844 273.194L184.588 275.303C186.326 280.265 184.092 285.475 179.686 286.964Z" fill="#F49D3D"/>
<path d="M178.508 270.589L168.27 274.124C168.27 274.124 168.27 274.124 168.208 274.124L166.036 275.613C165.229 276.171 164.299 276.482 163.368 276.482L161.072 276.544C161.072 276.544 161.072 276.544 161.01 276.544L149.842 280.389L147.484 281.568C146.677 282.064 145.56 282.374 144.568 282.436L142.086 283.056L134.082 285.786L133.585 286.22C132.717 287.026 130.607 287.647 129.428 287.398L115.095 292.299C111.993 293.353 108.394 291.058 107.091 287.212C105.788 283.367 107.215 279.335 110.317 278.28L173.73 256.571C176.522 255.64 179.749 257.687 180.927 261.161L181.424 262.649C182.603 266.061 181.3 269.658 178.508 270.589Z" fill="#75342C"/>
<path d="M176.15 254.71L106.967 278.342C106.16 278.59 105.353 278.218 105.043 277.412L102.189 269.038C101.941 268.232 102.313 267.425 103.12 267.115L172.303 243.483C173.109 243.235 173.916 243.607 174.226 244.413L177.08 252.787C177.329 253.593 176.894 254.4 176.15 254.71Z" fill="#EF0000"/>
<path d="M146.119 270.961C141.155 273.504 128.249 281.692 122.479 285.475C120.803 286.592 117.887 288.577 114.599 286.282C113.916 285.786 113.358 285.475 113.358 285.475C111.248 284.111 108.89 282.622 108.456 282.56C107.215 282.436 106.098 282.56 105.54 280.513C105.167 279.025 105.602 277.846 106.47 277.536L176.274 253.655C177.142 253.345 178.135 253.965 178.445 255.02C178.569 255.392 179.81 258.866 179.438 258.617C174.723 255.702 153.068 267.425 146.119 270.961Z" fill="#FFBB12"/>
<path d="M130.048 267.426L117.887 271.581C117.515 271.706 117.143 271.519 117.018 271.147L115.343 266.247C115.219 265.875 115.405 265.503 115.778 265.379L127.939 261.223C128.311 261.099 128.683 261.285 128.808 261.657L130.483 266.557C130.545 266.929 130.359 267.302 130.048 267.426Z" fill="#FF979B"/>
<path d="M103.368 271.457C103.368 271.457 103.058 273.504 105.726 271.953C108.456 270.403 109.138 268.852 111.124 269.162C113.171 269.41 117.205 271.767 121.672 267.798C126.139 263.828 126.698 262.525 128.931 263.021C131.165 263.518 134.268 264.758 136.439 262.897C138.611 261.036 138.363 259.362 140.907 259.424C143.451 259.548 145.995 261.161 151.393 260.044C156.729 258.866 163.43 256.757 166.594 253.407C169.759 250.058 171.434 249.313 173.171 249.685C174.909 250.058 175.653 249.996 175.653 249.996L173.854 244.661L166.098 248.135L101.196 267.177L103.368 271.457Z" fill="#C10017"/>
<path d="M99.7072 260.416C98.6524 262.525 97.4114 266.557 99.0247 268.914C100.638 271.271 101.941 271.085 103.058 270.713C104.175 270.341 106.098 269.038 107.277 267.86C108.456 266.681 110.752 266.433 112.737 267.115C114.723 267.798 119.19 268.666 123.285 263.89C127.38 259.114 129.366 260.416 130.979 260.85C132.592 261.285 136.005 261.285 136.998 258.928C137.99 256.571 139.976 256.695 142.706 257.129C166.16 260.54 164.299 246.894 171.62 247.204C174.847 247.328 178.011 248.383 177.701 244.661C177.391 241.002 174.971 239.637 172.675 239.079C170.379 238.458 168.704 236.846 168.704 236.846L99.7072 260.416Z" fill="#71BC06"/>
<path d="M100.886 259.362C100.886 259.362 100.824 260.23 99.5212 263.394C97.8459 267.364 100.142 269.348 103.12 268.294C106.098 267.239 107.029 264.324 108.766 263.022C110.442 261.719 112.737 263.332 114.723 264.014C116.708 264.758 119.5 264.944 122.417 259.3C125.333 253.593 128.187 256.881 130.669 257.439C133.213 257.997 134.888 256.695 135.819 253.779C136.75 250.864 140.783 251.795 144.94 252.105C149.531 252.415 153.254 254.71 159.211 250.74C163.616 247.825 163.988 244.413 166.843 243.669C169.697 242.925 172.613 245.22 173.916 242.863C175.219 240.505 170.566 238.148 170.566 238.148L100.886 259.362Z" fill="#6B9E1A"/>
<path d="M125.457 217.927L124.216 218.361C105.478 224.75 92.7579 244.041 98.3422 260.416C98.6524 261.409 99.7072 261.967 100.638 261.657C100.638 261.657 107.153 260.23 119.252 256.136C131.91 251.794 145.871 246.212 145.871 246.212L150.834 244.475C151.703 244.103 156.729 242.49 156.729 242.49C156.729 242.49 159.955 241.994 163.678 240.691C167.587 239.327 170.193 237.838 170.193 237.838C171.124 237.528 171.62 236.412 171.248 235.357C165.788 219.044 143.823 211.662 125.457 217.927Z" fill="#F49D3D"/>
<path d="M111.248 281.071C114.475 283.863 116.398 285.351 118.383 284.917C120.369 284.483 125.581 280.389 129.738 277.35C133.895 274.31 139.107 269.038 127.38 272.822C115.715 276.481 107.401 277.722 111.248 281.071Z" fill="#FFE576"/>
<path d="M122.913 220.719C114.661 222.765 106.47 229.092 101.445 239.389C97.7838 246.956 99.1488 258.928 100.204 259.796C100.638 260.168 110.131 257.997 121.114 253.903C136.501 248.197 148.663 244.413 150.338 243.235C152.075 242.18 142.396 215.818 122.913 220.719Z" fill="#FFAE4D"/>
<path d="M160.203 291.74L147.67 296.02C147.67 296.02 144.443 296.579 140.224 298.067C137.804 298.874 134.578 300.486 134.578 300.486L124.092 304.084C119.935 305.511 115.343 302.967 113.792 298.501L112.675 295.214C112.489 294.718 112.737 294.16 113.234 293.973C113.234 293.973 128.001 290.004 138.983 286.22C150.958 282.126 161.444 277.474 161.444 277.474C161.941 277.288 162.437 277.598 162.623 278.094L164.237 282.746C165.415 286.53 163.616 290.562 160.203 291.74Z" fill="#FFAE4D"/>
<path d="M126.76 285.289C127.194 286.902 130.731 285.786 132.468 284.297C134.206 282.808 137.804 282.994 139.045 282.932C140.286 282.87 142.272 282.002 143.575 280.513C144.878 279.025 146.987 278.963 148.353 279.211C149.718 279.459 156.046 276.605 154.371 276.109C152.572 275.613 146.677 274.559 145.312 275.179C143.947 275.737 141.9 275.055 140.472 276.792C139.107 278.528 137.184 279.087 136.067 279.087C134.95 279.087 126.76 285.289 126.76 285.289Z" fill="#8E4640"/>
<path d="M109.945 236.101C110.193 236.97 109.573 237.9 108.518 238.148C107.463 238.396 106.47 237.962 106.222 237.094C105.974 236.225 106.595 235.295 107.649 235.047C108.704 234.737 109.759 235.233 109.945 236.101Z" fill="white"/>
<path d="M122.975 235.667C123.285 236.473 122.727 237.466 121.734 237.9C120.741 238.272 119.687 237.9 119.376 237.094C119.066 236.287 119.624 235.295 120.617 234.861C121.61 234.488 122.665 234.861 122.975 235.667Z" fill="white"/>
<path d="M153.502 224.937C153.751 225.805 153.13 226.735 152.075 227.046C151.021 227.356 150.028 226.859 149.78 226.053C149.531 225.185 150.152 224.254 151.207 223.944C152.199 223.634 153.254 224.068 153.502 224.937Z" fill="white"/>
<path d="M137.184 220.78C137.37 221.649 136.688 222.517 135.695 222.765C134.64 223.013 133.647 222.455 133.461 221.587C133.275 220.718 133.957 219.85 134.95 219.602C135.943 219.416 136.998 219.912 137.184 220.78Z" fill="white"/>
<path d="M118.942 224.812C118.632 224.006 119.19 223.014 120.183 222.579C121.176 222.207 122.23 222.579 122.541 223.386C122.851 224.192 122.293 225.185 121.3 225.619C120.307 226.053 119.252 225.681 118.942 224.812Z" fill="white"/>
<path d="M143.016 232.318C143.265 233.186 142.644 234.117 141.589 234.427C140.534 234.737 139.542 234.241 139.294 233.434C139.045 232.566 139.666 231.636 140.721 231.326C141.713 231.015 142.768 231.45 143.016 232.318Z" fill="white"/>
<path d="M146.181 115.023C146.181 115.023 156.108 119.365 167.277 116.76C178.383 114.093 180.617 113.782 181.858 115.147C183.099 116.512 183.037 119.179 178.88 122.963C174.785 126.746 165.105 125.506 156.419 122.528C147.732 119.551 137.432 112.976 137.432 112.976L146.181 115.023Z" fill="#75AA00"/>
<path d="M137.246 116.511C137.246 116.511 150.338 130.716 160.638 138.159C170.938 145.602 182.478 143.432 184.96 135.182C187.504 126.932 183.533 126.312 172.551 125.443C161.63 124.513 136.936 113.41 137.246 116.511Z" fill="#638E10"/>
<path d="M134.888 119.551C134.888 119.551 146.057 126.188 149.097 139.524C152.075 152.86 151.517 155.899 159.459 155.341C167.401 154.783 174.598 150.689 168.27 143.804C161.941 136.919 132.158 111.115 132.158 111.115L134.888 119.551Z" fill="#75AA00"/>
<path d="M73.2129 73.2164C70.3588 79.2331 82.1478 99.9504 97.3494 115.271C112.613 130.53 131.475 142.439 145.126 124.203C158.776 105.967 143.513 90.7083 130.11 88.4132C116.708 86.1182 95.8603 78.2407 90.0898 76.814C84.2574 75.3874 75.1364 69.1846 73.2129 73.2164Z" fill="#E63C00"/>
<path d="M78.6732 86.118C89.5935 99.7641 105.726 113.348 116.956 119.055C127.194 124.265 140.659 122.776 149.035 117.132C154.743 102.121 141.713 90.3359 130.111 88.351C116.708 86.056 95.8603 78.1784 90.0899 76.7518C85.6845 75.6973 79.3557 71.8516 75.7569 71.7896C75.6328 73.8985 73.0269 79.0468 78.6732 86.118Z" fill="#FF5E17"/>
<path d="M128.311 88.9715C130.917 89.9639 132.654 91.4526 129.676 97.4073C126.698 103.424 121.734 109.193 123.347 102.68C124.961 96.1667 125.581 92.383 125.643 90.8323C125.705 89.2816 126.512 88.2892 128.311 88.9715Z" fill="#E63C00"/>
<path d="M107.401 93.4372C104.112 97.7792 99.3968 102.183 101.817 103.486C104.174 104.788 106.718 102.803 109.014 97.6551C111.31 92.5689 112.489 88.7852 111.62 88.7852C110.689 88.7852 107.401 93.4372 107.401 93.4372Z" fill="#E63C00"/>
<path d="M140.472 111.487C138.487 116.387 135.012 121.598 137.804 122.466C140.597 123.334 142.52 120.853 143.327 115.395C144.133 109.936 144.195 105.967 143.327 106.153C142.396 106.277 140.472 111.487 140.472 111.487Z" fill="#E63C00"/>
<path d="M85.5603 81.8379C83.2645 84.6912 79.7899 87.2343 81.7134 88.9091C83.6368 90.5838 85.4983 89.4673 86.9874 85.7457C88.5386 82.024 89.2211 79.1087 88.5386 78.9226C87.8561 78.7365 85.5603 81.8379 85.5603 81.8379Z" fill="#E63C00"/>
<path fill-rule="evenodd" clip-rule="evenodd" d="M410.627 268.418C412.613 245.468 433.895 228.534 458.217 230.643C482.54 232.69 500.658 253.035 498.672 275.986C496.687 298.936 475.405 315.87 451.082 313.761C426.759 311.652 408.642 291.369 410.627 268.418ZM435.508 270.093C434.764 278.219 443.016 285.6 453.812 286.53C464.608 287.461 473.978 281.63 474.66 273.442C475.405 265.317 467.152 257.936 456.356 257.005C445.56 256.075 436.191 261.967 435.508 270.093Z" fill="#F49D3D"/>
<path fill-rule="evenodd" clip-rule="evenodd" d="M468.145 232.442C479.872 234.923 488.186 245.406 492.53 252.849C496.57 259.715 496.315 265.024 495.96 272.422C495.934 272.977 495.906 273.544 495.88 274.125C495.618 281.149 492.962 283.123 488.588 286.375C487.786 286.97 486.927 287.609 486.015 288.329C482.299 291.293 480.321 294.483 478.331 297.692C477.198 299.519 476.062 301.353 474.598 303.154C470.966 307.623 467.383 306.306 462.854 304.64C462.355 304.457 461.844 304.269 461.32 304.084C456.046 302.223 452.075 301.603 447.421 302.533C446.457 302.726 445.576 302.959 444.721 303.184C441.448 304.048 438.56 304.811 432.902 302.843C426.617 300.639 425.672 296.034 424.886 292.207C424.787 291.727 424.691 291.259 424.588 290.81C423.657 286.84 422.106 282.188 419.624 280.327C418.85 279.747 418.015 279.438 417.176 279.128C415.327 278.443 413.459 277.752 412.178 274.125C410.628 269.583 414.741 263.246 417.498 259C417.941 258.317 418.349 257.688 418.693 257.129C419.698 255.497 420.082 253.682 420.497 251.725C421.106 248.848 421.781 245.664 424.588 242.304C437.556 226.859 456.418 229.961 468.145 232.442ZM472.709 276.357C473.289 275.425 473.9 274.445 474.66 273.442C477.825 269.348 478.011 267.674 476.459 262.153C475.207 257.459 473.033 256.931 469.791 256.144C469.177 255.996 468.526 255.838 467.835 255.64C465.416 254.949 464.922 253.682 464.369 252.265C463.929 251.138 463.453 249.917 461.94 248.817C458.59 246.336 454.246 247.266 451.454 250.678C449.111 253.607 446.721 253.107 442.951 252.318C442.329 252.188 441.671 252.05 440.968 251.919C436.005 250.988 433.833 253.407 433.833 261.161C433.833 266.062 435.649 270.904 437.488 275.804L437.556 275.985C439.014 279.873 441.577 280.715 444.856 281.792C445.763 282.09 446.724 282.406 447.731 282.808C452.385 284.669 458.528 284.359 464.732 282.808C469.418 281.638 470.919 279.229 472.709 276.357Z" fill="#9B5033"/>
<path d="M443.885 241.374C446.043 241.374 447.794 240.402 447.794 239.203C447.794 238.004 446.043 237.032 443.885 237.032C441.726 237.032 439.976 238.004 439.976 239.203C439.976 240.402 441.726 241.374 443.885 241.374Z" fill="#FFA1B3"/>
<path d="M471.097 291.297C473.182 290.736 474.619 289.343 474.307 288.185C473.996 287.027 472.053 286.543 469.968 287.104C467.884 287.665 466.447 289.058 466.758 290.216C467.07 291.374 469.013 291.858 471.097 291.297Z" fill="#FFA1B3"/>
<path d="M475.685 248.462C476.533 247.614 475.983 245.689 474.457 244.163C472.93 242.637 471.005 242.088 470.157 242.935C469.309 243.783 469.859 245.708 471.385 247.234C472.912 248.76 474.837 249.309 475.685 248.462Z" fill="#FFA1B3"/>
<path d="M429.964 272.166C430.281 271.01 428.851 269.61 426.769 269.039C424.687 268.469 422.742 268.944 422.425 270.1C422.107 271.256 423.538 272.656 425.62 273.227C427.702 273.797 429.647 273.323 429.964 272.166Z" fill="#FFA1B3"/>
<path d="M452.137 290.376C454.296 290.376 456.046 289.404 456.046 288.205C456.046 287.006 454.296 286.034 452.137 286.034C449.978 286.034 448.228 287.006 448.228 288.205C448.228 289.404 449.978 290.376 452.137 290.376Z" fill="#FFA1B3"/>
<path d="M479.934 256.881C482.093 256.881 483.843 255.909 483.843 254.71C483.843 253.511 482.093 252.539 479.934 252.539C477.775 252.539 476.025 253.511 476.025 254.71C476.025 255.909 477.775 256.881 479.934 256.881Z" fill="#FFA1B3"/>
<path d="M437.245 287.461C439.404 287.461 441.154 286.489 441.154 285.29C441.154 284.091 439.404 283.119 437.245 283.119C435.087 283.119 433.336 284.091 433.336 285.29C433.336 286.489 435.087 287.461 437.245 287.461Z" fill="#FFA1B3"/>
<path d="M464.112 127.243C464.112 127.243 464.857 129.228 464.608 131.709C464.36 133.942 462.623 136.423 463.119 139.09C463.74 142.564 463.988 150.317 467.835 154.101C471.682 157.884 478.693 163.715 478.693 163.715L491.785 162.909C491.785 162.909 490.482 159.745 491.723 156.334C492.964 152.86 497.121 146.471 497.121 146.471C497.121 146.471 496.128 143.742 497.618 141.571C499.107 139.338 502.085 136.857 502.085 136.857L517.101 116.388C517.101 116.388 516.356 114.155 519.334 112.666C522.312 111.178 523.553 109.441 523.553 109.441L529.696 101.315C529.696 101.315 529.448 99.8264 531.682 99.0821C533.915 98.3378 535.901 98.3378 535.901 98.3378L530.441 80.8459C530.441 80.8459 528.455 81.8384 526.718 81.094C524.981 80.3497 520.823 78.1167 520.823 78.1167L502.333 83.265C502.333 83.265 499.851 84.7537 497.183 85.2499C494.453 85.7461 490.296 85.0018 490.296 85.0018L464.112 127.243Z" fill="#C66D1E"/>
<path d="M499.975 123.955C505.498 117.69 507.855 112.17 508.91 108.758C509.965 105.347 509.407 102.741 509.407 102.741H509.469C504.877 96.1045 498.921 87.9788 494.143 84.6293C486.139 78.9848 477.018 81.0317 463.678 95.8564C455.239 105.223 454.308 113.224 458.528 122.094C461.94 129.227 471.371 133.383 480.989 136.671C483.409 135.926 489.055 134.066 491.847 132.019C495.508 129.475 499.975 123.955 499.975 123.955Z" fill="#F49D3D"/>
<path d="M523.305 101.377C528.021 96.9111 529.013 90.7083 529.075 90.15C528.641 88.7234 528.083 87.2347 527.4 85.56C523.181 74.7671 519.83 76.1318 511.454 77.5584C500.658 79.4192 501.154 84.1333 502.519 88.7854C503.76 92.9413 506.49 97.4693 512.012 103.362C515.115 104.106 520.079 104.478 523.305 101.377Z" fill="#F49D3D"/>
<path d="M486.077 149.945C486.325 143.928 484.215 140.765 484.215 140.765L483.967 140.517C478.445 138.966 472.116 136.981 468.331 135.244C463.181 132.887 462.685 133.818 462.25 138.966C461.754 144.114 464.608 150.193 466.47 154.411C468.331 158.629 473.977 158.629 481.919 158.629C481.919 158.691 485.828 155.961 486.077 149.945Z" fill="#F49D3D"/>
<path d="M482.788 160.118C480.368 160.242 477.949 160.242 476.708 160.242C474.412 160.242 474.66 161.854 477.142 165.08C479.003 167.499 479.872 170.29 483.161 171.779C484.091 170.724 484.898 169.484 485.084 168.057C485.394 165.142 483.843 161.916 482.788 160.118Z" fill="#F49D3D"/>
<path d="M538.01 91.1423C541.361 90.1499 544.153 88.165 545.766 86.8624C544.96 84.8775 542.354 84.0091 539.686 83.2648C535.715 82.2103 528.393 78.4266 528.827 81.7761C529.013 83.3268 529.944 87.4206 530.689 90.8322C532.24 91.5145 534.846 92.1347 538.01 91.1423Z" fill="#F49D3D"/>
<path d="M509.158 129.662C515.735 121.66 519.024 115.581 516.17 112.294C515.053 110.991 512.571 107.146 509.469 102.742H509.406C509.406 102.742 509.903 105.347 508.91 108.758C507.855 112.17 505.498 117.69 499.975 123.955C499.975 123.955 495.508 129.476 491.847 132.081C489.055 134.066 483.409 135.927 480.989 136.733C483.347 137.539 485.766 138.284 488.062 139.028C499.727 142.75 502.581 137.601 509.158 129.662Z" fill="#DD8A37"/>
<path d="M527.897 106.215C531.061 101.873 531.557 97.8413 529.075 90.2119C529.013 90.7702 528.083 96.9109 523.305 101.439C520.017 104.54 515.115 104.106 512.074 103.486C512.757 104.23 513.502 104.975 514.308 105.781C521.32 112.79 524.174 111.363 527.897 106.215Z" fill="#DD8A37"/>
<path d="M495.073 152.178C498.796 146.533 497.866 144.176 494.143 143.246C492.467 142.812 488.496 141.819 483.967 140.517L484.215 140.765C484.215 140.765 486.325 143.928 486.077 149.945C485.828 155.962 481.919 158.753 481.919 158.753C489.924 158.691 491.289 157.76 495.073 152.178Z" fill="#DD8A37"/>
<path d="M491.785 162.971C492.716 159.683 490.606 158.877 488.31 159.559C487.193 159.869 485.022 160.055 482.788 160.117C483.843 161.916 485.394 165.204 485.022 168.057C484.836 169.484 484.091 170.786 483.098 171.779C484.153 172.275 485.456 172.647 487.069 172.833C491.971 173.329 490.854 166.196 491.785 162.971Z" fill="#DD8A37"/>
<path d="M535.901 98.4C539.065 97.3455 543.036 95.9188 545.332 90.8946C546.076 89.2198 546.139 87.9173 545.766 86.9248C544.153 88.2274 541.361 90.1503 538.01 91.2047C534.846 92.1351 532.24 91.5769 530.689 90.9566C531.061 92.5073 531.371 93.8719 531.557 94.8644C532.178 97.9658 532.798 99.4544 535.901 98.4Z" fill="#DD8A37"/>
<path d="M288.207 335.47C300.245 335.47 309.304 334.664 315.074 328.337C320.844 322.01 322.768 319.033 324.381 309.17C325.994 299.308 329.283 286.716 329.283 286.716L324.071 259.052L282.189 236.35L255.633 252.787L247.132 274.435C247.132 274.435 251.972 297.509 254.764 311.155C257.556 324.801 260.286 326.228 264.443 330.322C268.6 334.416 278.9 335.47 288.207 335.47Z" fill="#FFA171"/>
<path d="M282.189 241.436C282.189 241.436 271.082 246.212 261.589 253.593C252.096 260.975 249.428 270.465 249.428 278.963C249.428 287.398 253.151 300.052 254.702 311.155C256.315 322.258 255.26 327.53 251.537 333.299C247.814 339.13 245.146 342.045 246.263 338.509C247.38 334.974 249.552 330.012 248.993 322.63C248.435 315.249 244.092 301.541 242.975 291.926C241.858 282.312 239.686 269.472 244.34 254.958C248.993 240.443 263.512 230.333 270.09 227.293C276.667 224.254 280.203 220.718 295.281 223.448C310.358 226.177 316.935 230.271 328.166 233.868C339.397 237.404 340.762 247.266 341.878 254.71C342.995 262.153 343.802 268.976 341.63 283.491C339.459 298.005 336.17 306.503 332.571 312.272C329.035 318.04 327.67 322.692 330.089 329.515C332.571 336.338 335.55 342.417 331.703 338.571C327.856 334.726 326.429 332.058 323.512 326.538C321.03 321.886 324.071 312.52 325.312 302.595C326.553 292.547 326.242 286.53 326.242 279.707C326.242 272.884 323.761 262.711 314.764 257.811C305.705 252.787 284.919 247.142 282.189 241.436Z" fill="#5E2D1E"/>
<path d="M275.053 228.658C275.053 228.658 270.834 224.192 268.663 218.113C263.575 203.847 262.706 177.857 302.292 180.214C339.831 182.385 334.867 211.29 326.243 226.549C321.713 234.551 314.267 239.513 314.267 239.513L275.053 228.658Z" fill="#5E2D1E"/>
<path d="M338.218 291.741C338.218 298.626 332.881 304.27 327.545 304.27C322.147 304.27 317.804 298.688 317.804 291.803C317.804 284.917 322.147 279.335 327.545 279.335C332.881 279.335 338.218 284.855 338.218 291.741Z" fill="#FFA171"/>
<path d="M251.126 308.127C256.747 306.882 260.12 300.532 258.659 293.943C257.199 287.355 251.459 283.023 245.839 284.267C240.218 285.512 236.845 291.863 238.306 298.451C239.766 305.04 245.506 309.372 251.126 308.127Z" fill="#FFA171"/>
<path d="M262.954 265.937C263.823 266.123 269.283 263.642 271.392 263.207C273.564 262.773 274.681 261.905 273.812 260.602C272.944 259.3 270.772 260.168 269.097 261.036C267.421 261.905 261.651 265.626 262.954 265.937Z" fill="#AF4C31"/>
<path d="M262.396 282.56C263.326 283.305 266.553 282.25 269.841 281.258C273.13 280.265 275.426 280.141 276.418 279.831C277.411 279.521 276.853 277.102 275.86 276.792C274.867 276.482 271.579 277.102 268.104 278.653C264.691 280.265 261.651 282.002 262.396 282.56Z" fill="#5E2D1E"/>
<path d="M306.015 265.937C305.146 266.123 299.686 263.642 297.577 263.207C295.405 262.773 294.288 261.905 295.157 260.602C296.025 259.3 298.197 260.168 299.872 261.036C301.548 261.905 307.318 265.626 306.015 265.937Z" fill="#AF4C31"/>
<path d="M309.428 279.397C308.621 280.327 305.27 279.955 301.858 279.645C298.445 279.335 296.149 279.645 295.095 279.583C294.04 279.521 294.102 276.978 295.033 276.544C295.963 276.047 299.314 275.985 302.975 276.792C306.698 277.598 309.986 278.653 309.428 279.397Z" fill="#5E2D1E"/>
<path d="M283.74 290.438C286.656 290.748 290.813 294.222 291.186 296.021C291.496 297.323 290.751 299.184 285.726 299.432C280.7 299.742 277.411 298.564 277.97 296.269C278.59 294.036 282.251 290.314 283.74 290.438Z" fill="#F37E4E"/>
<path d="M283.616 310.597C275.55 310.597 270.028 307.434 269.717 307.247C269.035 306.875 268.849 306.007 269.221 305.387C269.593 304.704 270.462 304.518 271.082 304.89C271.144 304.952 278.528 309.17 288.332 307.434C299.128 305.573 302.478 301.169 302.478 301.107C302.913 300.486 303.781 300.362 304.402 300.797C305.022 301.231 305.146 302.099 304.712 302.719C304.588 302.968 300.803 308.054 288.766 310.163C287.029 310.473 285.229 310.597 283.616 310.597Z" fill="#AF4C31"/>
<path d="M287.555 318.543C290.45 318.221 292.699 317.077 292.578 315.988C292.457 314.898 290.012 314.275 287.117 314.597C284.222 314.918 281.973 316.062 282.094 317.152C282.215 318.241 284.66 318.864 287.555 318.543Z" fill="#F37E4E"/>
<path d="M249.924 290.438L252.778 301.479C252.778 301.479 246.449 303.712 244.588 297.819C242.727 291.865 249.924 290.438 249.924 290.438Z" fill="#F37E4E"/>
<path d="M326.677 287.088L326.056 298.501C326.056 298.501 332.385 299.246 333.006 293.043C333.688 286.84 326.677 287.088 326.677 287.088Z" fill="#F37E4E"/>
<path d="M312.158 234.427C300.307 234.427 288.828 228.844 288.207 228.534L289.448 226.053C289.634 226.177 309.676 235.915 323.14 229.402C328.91 226.611 332.757 221.153 334.495 213.213C336.791 202.544 335.55 194.853 330.71 190.263C321.527 181.517 302.168 186.665 301.982 186.727L301.61 186.851L301.237 186.727C301.051 186.665 280.7 180.772 270.09 188.588C265.994 191.627 263.823 196.403 263.699 202.792C263.512 213.647 268.414 221.711 278.342 226.673C285.85 230.457 293.481 231.015 293.543 231.015L293.357 233.806C293.047 233.806 260.41 231.325 260.906 202.792C261.031 195.473 263.575 189.953 268.414 186.417C279.397 178.353 298.569 183.254 301.61 184.06C304.588 183.316 322.892 179.16 332.571 188.34C338.156 193.612 339.707 202.234 337.163 213.833C335.239 222.703 330.896 228.782 324.319 231.945C320.534 233.744 316.315 234.427 312.158 234.427Z" fill="#5E2D1E"/>
<path d="M181.858 454.377C181.858 454.377 182.541 466.659 199.356 476.521C217.101 486.942 229.635 486.136 229.635 486.136L230.689 476.832C230.689 476.832 216.543 477.886 202.954 468.272C189.366 458.657 186.077 446.748 186.077 446.748L181.858 454.377Z" fill="#FFF8D4"/>
<path d="M246.822 365.678C246.822 365.678 246.511 364.251 242.851 365.306C240.617 365.926 238.135 367.104 238.135 367.104C238.135 367.104 242.23 379.51 255.694 388.69C269.159 397.87 287.215 396.94 297.949 395.761C309.428 394.459 324.257 391.171 334.681 383.852C345.105 376.533 352.116 363.941 352.116 363.941C352.116 363.941 348.704 361.832 346.47 361.088C345.105 360.653 344.795 361.026 344.112 362.824C343.43 364.623 337.163 372.687 326.615 378.89C316.687 384.782 303.967 387.636 290.007 388.318C275.177 389.062 263.574 385.092 257.866 380.813C252.344 376.595 247.814 369.71 246.822 365.678Z" fill="#FFF8D4"/>
<path d="M347.587 474.413C347.587 474.413 361.61 475.281 374.205 469.14C388.724 462.069 396.48 450.16 396.48 450.16L399.521 457.789C399.521 457.789 394.247 468.458 382.023 474.661C369.862 480.863 367.07 480.243 361.796 481.174C356.522 482.104 349.572 481.856 349.572 481.856L347.587 474.413Z" fill="#FFF8D4"/>
<path d="M307.256 218.982C307.256 218.982 312.592 218.796 322.768 223.634C328.29 226.239 330.772 229.216 330.772 229.713L333.316 236.35C333.316 236.35 325.064 233.124 316.935 230.705C308.807 228.286 301.982 228.286 301.982 228.286L307.256 218.982Z" fill="#FFC648"/>
<path d="M315.198 224.068C314.826 227.231 314.453 230.085 314.453 230.085L307.876 228.782L307.69 222.207L307.256 218.982C307.256 218.982 308.807 218.671 311.041 219.416C313.274 220.16 314.64 220.346 314.64 220.346C314.64 220.346 315.384 222.393 315.198 224.068Z" fill="#EDA320"/>
<path d="M288.145 216.253C293.73 211.29 300.555 206.328 305.581 208.809C310.544 211.29 310.544 214.392 309.304 225.619C308.063 236.784 305.581 243.049 300.617 236.164C295.653 229.341 286.284 224.378 286.284 224.378L288.145 216.253Z" fill="#FFC648"/>
<path d="M268.352 210.422C262.334 211.787 266.305 220.967 266.739 227.852C267.173 234.737 267.173 240.444 271.206 237.156C275.24 233.931 286.284 224.316 286.284 224.316L288.145 216.253C288.145 216.253 277.287 208.375 268.352 210.422Z" fill="#FFC648"/>
<path d="M288.704 218.92C288.704 218.92 292.613 216.563 295.033 215.88C299.624 214.516 299.686 218.175 300.058 221.401C300.431 224.688 297.142 226.983 293.667 225.247C290.193 223.51 287.711 221.773 287.711 221.773L288.704 218.92Z" fill="#EDA320"/>
<path d="M283.678 217.99C283.678 217.99 281.01 215.881 278.528 215.508C276.046 215.136 273.75 218.548 273.936 221.401C274.123 224.254 275.612 229.093 278.528 227.356C281.382 225.619 285.415 222.766 285.415 222.766L283.678 217.99Z" fill="#EDA320"/>
<path d="M291.62 220.346C291.62 223.386 291 225.309 286.966 225.867C282.747 226.425 281.941 223.448 282.375 220.16C282.747 217.121 282.003 214.516 286.966 214.764C292.551 215.012 291.62 217.245 291.62 220.346Z" fill="#FFC648"/>
<path d="M240.989 72.038C240.679 71.976 240.431 71.8519 240.121 71.7899C238.756 71.4798 237.453 71.2317 236.026 71.0456C234.661 70.9835 233.233 70.9215 231.868 70.9215C231.186 70.9215 230.441 70.9215 229.759 70.8595C229.014 70.8595 228.332 70.9215 227.587 70.9835C226.098 71.0456 224.609 71.1076 223.058 71.1076C220.886 71.1696 218.59 71.4798 216.357 71.914C214.123 72.5342 211.889 73.0305 209.842 73.7128C211.083 73.3406 212.323 73.1545 213.626 72.8444C214.867 72.5963 216.17 72.2861 217.411 72.1C218.714 71.914 219.955 71.7279 221.258 71.5418C221.879 71.4798 222.561 71.3557 223.182 71.2937L225.105 71.1696C226.408 71.1076 227.649 71.0456 228.952 71.0456C230.255 71.0456 231.496 71.1696 232.737 71.2937C233.978 71.4177 235.219 71.5418 236.46 71.7279C237.701 72.038 238.88 72.2861 240.059 72.6583C239.066 73.3406 237.887 73.8368 236.584 73.7748C235.033 73.5887 233.42 73.5887 231.868 73.4647C231.062 73.4647 230.317 73.4026 229.511 73.4026C228.704 73.4647 227.959 73.4647 227.153 73.5267C227.153 73.2165 227.091 72.5963 227.029 72.2861C225.912 72.5342 224.795 72.7203 223.74 72.8444C222.623 72.9684 221.569 73.2165 220.452 73.3406C219.335 73.5267 218.28 73.6507 217.163 73.7748C216.108 73.9609 214.992 74.147 213.937 74.333C209.593 75.0774 205.312 76.38 201.403 78.7991C201.775 78.8611 201.713 79.1092 201.713 79.3573H201.651H201.713C201.713 79.5434 201.837 79.6674 202.334 79.4193C201.837 79.6054 201.713 79.4814 201.713 79.3573C209.78 75.6977 218.032 73.7748 226.781 73.5267C220.017 73.8989 213.378 75.3255 207.049 77.6826C200.721 80.0396 194.578 83.079 188.683 86.8627C188.187 87.1728 187.194 87.7931 186.698 88.1653C184.216 88.7235 182.044 89.902 180.245 91.3907C179.749 89.84 175.778 88.9716 180.121 86.3664C179.935 86.1183 179.562 85.6221 179.376 85.374C176.832 86.3044 174.599 86.3044 173.172 85.6841C171.807 85.0018 171.62 83.203 173.42 80.97C177.701 76.0078 185.333 72.5963 191.91 68.8126C196.75 66.1454 201.9 63.8503 207.422 62.8579C214.992 61.6173 223.182 59.9426 230.814 60.873C232.179 60.9971 234.04 60.811 235.777 60.6869C237.515 60.6249 239.004 60.749 239.686 61.2452C240.617 61.7414 240.617 62.4237 240.431 63.168C238.259 62.982 236.026 62.7338 233.854 62.8579H230.565H228.952L227.339 62.982C224.671 63.106 222.003 63.106 219.335 63.4162C218.032 63.5402 216.667 63.6643 215.302 63.7883C213.999 63.9744 212.634 64.1605 211.269 64.3466C212.572 64.2225 213.937 64.0364 215.24 63.9124C216.605 63.8503 217.908 63.7263 219.273 63.6022C221.941 63.2301 224.671 63.2301 227.339 62.982L228.952 62.9199L230.565 62.982L233.792 63.106C234.847 63.168 235.964 63.168 237.018 63.2921C238.073 63.4162 239.128 63.6022 240.245 63.7263C240.059 64.3466 239.873 65.0289 240.059 65.6492C240.059 65.6492 241.362 65.7112 241.982 65.7732C244.464 67.51 243.471 69.6189 242.168 71.1076C241.734 71.4177 241.362 71.7279 240.989 72.038Z" fill="#E5F8FF"/>
<path d="M517.907 262.029C518.279 261.533 518.589 261.099 518.962 260.602C522.126 256.198 524.98 251.608 527.648 246.708C529.013 244.289 530.192 241.746 531.495 239.141C532.054 237.838 532.674 236.536 533.295 235.171C533.915 233.806 534.536 232.504 535.032 231.077C538.321 223.324 540.74 213.895 541.919 205.584C539.003 225.371 530.006 244.909 518.652 260.292C519.52 258.556 520.513 256.447 521.94 254.152C523.739 251.484 525.291 248.631 526.842 245.902C527.648 244.537 528.331 243.111 529.013 241.684C529.696 240.257 530.503 238.893 531.061 237.404C531.185 237.466 531.371 237.528 531.495 237.59C535.032 229.34 537.886 221.153 539.872 212.717C541.795 204.281 542.788 195.597 542.168 186.665C542.105 187.286 541.981 186.913 541.919 186.789V186.665V186.789C541.857 186.665 541.795 186.727 541.857 187.844C541.795 186.727 541.857 186.665 541.919 186.789C542.54 204.343 538.693 220.781 531.371 236.784C537.018 224.378 540.554 211.228 541.547 197.83C542.54 184.432 540.802 170.786 536.335 157.636C535.963 156.52 535.156 154.287 534.66 153.17C533.233 148.642 531.247 144.3 528.765 140.268C529.324 140.579 529.262 139.586 529.634 139.524C530.006 139.462 530.937 140.33 533.109 144.672C533.233 144.61 533.419 144.486 533.543 144.424C531.619 139.958 530.192 136.857 530.068 135.74C529.944 134.624 531.557 135.554 534.287 139.834C537.328 144.61 540.058 150.689 542.168 157.264C544.277 163.839 545.766 170.91 546.697 177.733C547.317 182.695 547.566 187.72 547.504 192.744C547.379 195.225 547.379 197.768 547.007 200.249C546.883 201.49 546.697 202.73 546.573 203.971C546.387 205.212 546.139 206.452 545.952 207.693C544.711 214.454 542.85 221.401 540.492 228.162C538.072 234.861 535.032 241.374 531.744 247.328C530.503 249.437 528.951 252.477 527.4 255.144C525.787 257.811 524.36 260.168 523.553 261.099C522.374 262.463 522.126 262.401 522.064 261.967C526.532 255.268 530.627 248.321 534.039 241.064C538.321 232.256 541.733 223.014 543.967 213.399C541.671 222.765 538.321 232.07 534.039 241.064C530.627 248.259 526.47 255.082 522.064 261.595C522.002 261.223 521.94 260.851 521.444 261.099C521.444 261.099 520.079 263.084 519.396 264.138C516.108 267.798 516.108 266.247 516.976 263.952C517.349 263.394 517.597 262.711 517.907 262.029Z" fill="#E5F8FF"/>
<path d="M255.26 42.0164C254.764 41.8923 254.267 41.8303 253.771 41.7062C244.588 40.1555 235.281 40.1555 224.981 40.8999C217.784 41.3341 209.655 43.0708 202.706 45.1178C210.958 42.8227 219.645 41.272 228.332 40.7138C237.018 40.0935 245.643 40.6518 253.709 42.0164C252.034 42.0784 250.048 42.2025 247.752 41.9543C242.292 41.4581 236.832 41.21 231.434 41.5202C231.434 41.3961 231.434 41.148 231.434 41.0239C223.74 41.6442 216.356 42.5126 209.097 44.1253C201.837 45.738 194.702 48.0331 187.753 51.3826C188.311 51.2585 188.001 51.4446 187.939 51.5687L187.815 51.6307L187.939 51.5687C187.877 51.6927 187.939 51.6927 188.807 51.3206C187.939 51.6927 187.877 51.6927 187.939 51.5687C201.775 45.4899 215.798 42.2025 230.876 41.5202C225.043 41.8303 219.273 42.5126 213.564 43.6291C207.918 44.7456 202.334 46.2963 196.874 48.2192C185.953 52.0649 175.467 57.3993 165.664 64.2844C164.795 64.8426 163.182 66.0832 162.375 66.6414C158.9 68.8124 155.612 71.2935 152.634 74.0848C152.758 73.5265 151.889 73.7126 151.765 73.3404C151.641 73.0303 152.137 72.0378 155.364 69.4327C155.302 69.3086 155.116 69.1225 155.054 69.0605C151.641 71.5416 149.221 73.1543 148.228 73.3404C147.236 73.5885 147.732 72.0378 150.772 68.9985C157.597 62.1134 168.518 55.1663 178.88 49.7078C186.45 45.738 194.454 42.5126 202.706 40.4037C214.123 37.5504 226.904 35.6895 238.631 36.3098C240.741 36.3098 243.657 36.4339 246.325 36.4959C248.993 36.682 251.351 36.8681 252.406 37.1782C253.895 37.4883 253.895 37.7985 253.647 38.0466C246.76 37.2402 239.81 36.9301 232.985 37.1162C224.609 37.3023 216.17 38.2947 207.918 40.0315C216.046 38.4808 224.423 37.4263 232.985 37.1162C239.81 36.9921 246.636 37.3643 253.399 38.2327C253.151 38.4808 252.84 38.6669 253.213 38.977C253.213 38.977 255.26 39.2872 256.315 39.4112C260.41 40.5897 259.169 41.3341 257.06 41.6442C256.501 41.9543 255.881 41.9543 255.26 42.0164Z" fill="#E5F8FF"/>
<path d="M450.151 87.6688C449.903 87.4207 449.655 87.1105 449.469 86.8624C447.235 84.5674 444.877 82.2724 442.271 80.3495C439.665 78.3646 436.997 76.2556 434.143 74.1467C432.219 72.534 430.048 70.9833 427.69 69.7427C425.394 68.4401 423.036 67.1376 420.803 66.1451C431.041 71.8517 441.527 78.7368 448.91 87.6067C447.545 87.4827 446.118 87.1105 444.877 86.1181C444.195 85.4978 443.512 84.8155 442.767 84.1952C442.023 83.5749 441.34 83.0167 440.596 82.3964C439.107 81.2179 437.68 80.1014 436.19 78.9228C436.377 78.6747 436.687 78.1785 436.873 77.9304C434.577 76.6278 432.344 75.3252 430.234 73.8366C429.179 73.0922 428.124 72.4099 427.007 71.7276L423.781 69.6807C422.726 68.9364 421.609 68.3161 420.492 67.7578C419.376 67.1376 418.259 66.5793 417.08 66.0211C414.784 64.9666 412.302 64.0982 409.82 63.4779C410.131 63.726 409.82 63.9121 409.696 64.0982H409.634H409.696C409.572 64.2222 409.572 64.3463 410.131 64.5944C409.572 64.3463 409.572 64.2222 409.696 64.0982C419.252 67.5097 427.628 72.472 435.818 78.7368C429.303 74.0847 422.54 70.1149 415.405 66.9515C408.269 63.8501 400.823 61.493 393.254 60.3145C392.633 60.1904 391.33 60.0044 390.648 59.9423C388.166 58.7018 385.498 58.3296 383.14 58.4537C383.388 57.6473 382.83 56.5308 382.83 55.6004C382.83 54.732 383.512 53.9877 386.304 54.2978C386.304 53.9877 386.304 53.3674 386.304 53.0572C383.45 52.2509 381.341 50.9483 380.286 49.7077C379.293 48.4672 380.596 46.6684 383.947 45.924C387.793 45.1797 392.075 45.4898 396.418 46.3582C398.59 46.6684 400.761 47.3507 402.933 47.8469C405.043 48.4672 407.214 49.0254 409.324 49.5217C412.302 50.39 415.343 51.2584 418.197 52.499C421.113 53.6155 423.843 55.0421 426.449 56.7169C428.248 57.8334 430.048 59.0739 431.909 60.1904C433.771 61.369 435.632 62.4855 437.369 63.7881C439.169 65.0286 440.906 66.3312 442.643 67.5718C444.319 68.9364 445.932 70.363 447.421 71.7896C449.717 73.7125 454.37 76.2556 454.991 77.9304C455.549 78.9228 455.177 79.4811 454.556 79.9773C452.695 78.4266 450.834 76.8759 448.91 75.3252C446.987 73.8986 445.001 72.4099 443.078 70.9833C438.424 67.3236 433.584 63.8501 428.621 60.4386C433.398 63.9741 438.238 67.3857 443.078 70.9833L448.662 75.5113C450.461 77.062 452.261 78.7368 453.998 80.2875C453.44 80.6596 452.943 81.0938 452.757 81.7141C452.757 81.7141 453.874 82.6445 454.494 83.0787C455.797 86.1181 453.812 87.2966 451.702 87.6067C451.33 87.6688 450.772 87.6688 450.151 87.6688Z" fill="#E5F8FF"/>
<path d="M502.954 226.425C503.14 226.239 503.388 225.991 503.574 225.805C504.443 224.812 505.311 223.758 506.118 222.641C506.925 221.587 507.545 220.346 508.228 219.168C508.91 217.989 509.593 216.749 510.275 215.508C510.896 214.206 511.516 212.903 512.199 211.6C514.37 207.941 515.363 203.289 516.232 199.195C515.549 201.552 514.991 203.971 514.06 206.328C513.626 207.507 513.254 208.685 512.757 209.864C512.199 210.98 511.702 212.097 511.144 213.275C510.151 215.57 508.786 217.679 507.421 219.726C506.118 221.773 504.443 223.634 502.767 225.309C502.643 224.13 502.705 222.89 503.388 221.773C504.381 220.532 505.063 219.168 505.932 217.865C506.676 216.563 507.545 215.26 508.166 213.895C508.476 214.02 509.034 214.268 509.282 214.392C509.841 212.283 510.772 210.298 511.516 208.375C511.888 207.383 512.261 206.39 512.633 205.398C513.005 204.405 513.44 203.475 513.75 202.42C514.06 201.428 514.37 200.373 514.681 199.381C514.805 198.885 514.991 198.389 515.115 197.83L515.363 196.28C515.549 195.225 515.673 194.171 515.735 193.116C515.797 192.062 515.673 190.945 515.611 189.891C515.425 190.201 515.177 190.015 514.991 189.891V189.829V189.891C514.805 189.829 514.681 189.829 514.619 190.387C514.681 189.891 514.805 189.829 514.991 189.891C514.681 198.264 512.385 206.08 508.414 213.523C514.184 201.738 515.797 188.65 513.75 175.872C513.626 175.314 513.44 174.26 513.316 173.701C513.75 171.406 513.502 169.049 512.757 167.064C514.37 167.064 516.604 163.715 517.473 168.491C517.783 168.429 518.341 168.243 518.652 168.119C518.714 165.514 519.458 163.467 520.451 162.226C521.506 161.048 523.367 161.544 524.856 164.087C526.47 166.94 527.338 170.6 527.897 174.384C528.083 176.307 528.331 178.229 528.393 180.152C528.455 181.145 528.517 182.075 528.641 183.068C528.703 183.998 528.703 184.991 528.827 185.921C529.076 188.712 528.889 191.441 528.765 194.171C528.579 195.535 528.393 196.9 528.145 198.264C528.021 198.947 527.897 199.629 527.711 200.311C527.524 200.994 527.276 201.614 527.09 202.296C526.408 204.095 525.911 205.956 525.229 207.693C524.546 209.492 523.864 211.29 523.181 213.151C521.568 216.625 520.017 220.222 517.659 223.076C516.914 224.192 516.294 225.867 515.549 227.356C514.743 228.782 513.998 230.085 513.254 230.395C512.385 230.953 511.826 230.643 511.268 230.147L513.005 227.48L513.874 226.115C514.122 225.681 514.37 225.185 514.619 224.75C515.611 222.89 516.604 221.029 517.597 219.168C518.714 216.873 519.893 214.516 521.071 212.159C521.568 210.98 522.064 209.74 522.623 208.561C523.119 207.321 523.74 206.142 524.112 204.901C523.677 206.142 523.057 207.259 522.499 208.499C521.94 209.678 521.444 210.856 520.947 212.097C519.831 214.454 518.714 216.811 517.597 219.23L514.37 224.626L513.564 225.991L512.633 227.293C512.013 228.162 511.392 228.968 510.834 229.837C510.399 229.402 509.903 228.906 509.22 228.782C509.22 228.782 508.538 229.837 508.228 230.395C505.622 231.697 504.133 229.899 503.45 228.038C503.202 227.418 503.078 226.921 502.954 226.425Z" fill="#E5F8FF"/>
<path d="M89.7176 207.383C89.5935 207.135 89.4694 206.824 89.4074 206.576C87.2978 201.738 84.4436 197.21 83.0785 191.441C82.334 187.348 81.031 182.882 80.7828 178.664C80.8448 183.564 81.8376 188.588 83.3888 193.302C84.94 198.078 86.8634 202.544 88.6008 207.073C87.4219 206.7 86.3671 206.018 85.6225 204.84C84.1334 201.924 82.8924 198.885 81.7135 195.908C82.0237 195.783 82.5822 195.535 82.8304 195.411C80.6587 191.442 79.728 186.913 79.4177 182.509C79.1075 178.043 79.2316 173.702 79.1696 168.987C78.9834 169.298 78.7352 169.049 78.5491 168.987V168.925V168.987C78.3629 168.925 78.2388 168.925 78.1768 169.484C78.2388 168.925 78.425 168.863 78.5491 168.987C77.5563 178.23 78.6732 186.975 81.5894 195.535C79.1696 188.96 77.6804 181.951 77.6804 174.756C77.7425 167.623 79.3557 160.366 82.6442 153.791C82.8924 153.232 83.5129 152.116 83.8231 151.558C85.8707 149.821 87.4839 147.96 89.0971 145.975C89.4694 146.719 90.7104 147.092 91.3309 147.712C91.9513 148.332 92.0754 149.139 90.5242 150.813C90.7724 150.999 91.2688 151.372 91.517 151.496C93.3784 150.131 95.5501 149.945 96.729 150.813C97.9699 151.62 98.7765 152.736 98.1561 154.535C97.4736 156.458 96.2326 158.505 95.0537 160.676C93.8748 162.847 92.882 165.328 92.5718 167.809C92.0754 171.407 92.0754 174.818 91.7652 178.416C91.517 180.897 91.8272 183.564 92.3857 186.231C93.0061 188.898 93.8128 191.504 94.4332 194.171C94.7435 195.101 95.5501 196.218 96.2326 197.272C96.9772 198.265 97.5356 199.257 97.4115 199.939C97.4736 200.808 96.9151 201.18 96.2326 201.49C94.4332 198.575 92.82 195.659 91.579 192.558C90.276 188.712 89.5315 184.742 89.5935 180.897C89.2833 184.742 90.0899 188.712 91.579 192.558C92.6339 195.659 94.0609 198.699 95.6742 201.738C95.0537 201.986 94.4332 202.234 94.0609 202.793C94.0609 202.793 94.6814 203.661 94.9917 204.095C94.9296 206.762 92.882 207.631 90.9586 207.569C90.7104 207.507 90.214 207.445 89.7176 207.383Z" fill="#E5F8FF"/>
<path d="M223.492 334.912C223.306 334.85 223.12 334.788 222.933 334.726C219.583 333.919 216.232 334.292 212.572 333.547C210.028 332.803 207.049 332.865 204.381 332.493C210.524 333.919 216.977 333.795 222.996 335.718C222.437 336.463 221.755 337.083 220.886 337.145C218.838 336.897 216.853 336.711 214.805 336.525C214.805 336.214 214.805 335.594 214.805 335.284C211.951 335.718 209.221 335.16 206.491 334.54C203.761 333.919 201.093 333.237 197.99 333.299C198.177 333.485 197.99 333.733 197.866 333.919H197.804H197.866C197.804 334.105 197.804 334.23 198.115 334.292C197.742 334.23 197.742 334.043 197.866 333.919C203.761 335.036 208.973 335.78 214.557 336.525C210.214 336.152 205.932 335.78 201.465 335.098C196.998 334.292 192.406 333.299 187.566 330.508C187.132 330.26 186.325 329.763 185.891 329.453C184.774 327.468 183.471 326.042 181.982 323.747C182.789 323.623 183.595 322.63 184.402 322.196C185.209 321.762 185.891 321.886 186.822 323.313C187.07 323.127 187.504 322.692 187.691 322.444C187.194 320.831 188.125 319.219 189.614 318.598C189.924 318.412 190.172 318.226 190.545 318.102C190.669 318.04 190.855 317.978 190.979 317.916C191.103 317.854 191.227 317.792 191.351 317.73C191.91 317.544 192.406 317.42 192.654 317.234C193.213 316.986 193.957 317.73 195.074 318.412C196.129 319.095 197.618 319.901 199.231 320.087C201.527 320.459 203.947 320.645 206.367 321.638C209.717 323.064 213.75 322.94 217.473 324.181C218.838 324.491 221.196 323.499 221.941 324.367C222.437 324.801 222.499 325.484 222.437 326.166C220.141 326.166 217.846 326.166 215.674 325.98C212.944 325.608 210.214 325.049 207.67 324.119C210.152 325.235 212.882 325.732 215.674 325.98C217.908 326.29 220.141 326.538 222.437 326.724C222.375 327.344 222.313 328.027 222.499 328.647C222.499 328.647 223.182 328.585 223.554 328.585C225.043 330.074 224.857 332.245 224.174 333.857C223.926 334.23 223.74 334.54 223.492 334.912Z" fill="#E5F8FF"/>
<path d="M408.765 331.996C408.579 332.058 408.393 332.121 408.269 332.183C405.229 333.361 402.871 335.47 399.52 336.711C397.101 337.393 394.743 338.944 392.385 339.812C398.217 338.137 403.181 334.664 408.89 332.927C408.89 333.857 408.703 334.726 408.083 335.222C406.222 336.214 404.546 337.145 402.933 338.013C402.747 337.765 402.437 337.207 402.251 336.959C400.203 338.82 397.659 339.75 395.115 340.556C392.509 341.363 389.965 342.045 387.297 343.41C387.545 343.534 387.483 343.782 387.483 344.03H387.421H387.483C387.483 344.216 387.545 344.34 387.918 344.278C387.545 344.34 387.483 344.216 387.483 344.03C393.067 342.417 397.783 340.432 402.685 338.137C399.024 340.122 395.239 341.983 391.082 343.472C386.925 344.898 382.271 345.891 377.059 345.27C376.625 345.208 375.694 345.084 375.26 344.96C374.453 344.34 373.647 343.782 372.778 343.286C371.537 342.603 370.792 342.169 369.986 341.735C370.606 341.177 370.855 339.998 371.413 339.254C371.909 338.509 372.592 338.261 373.833 339.068C373.957 338.757 374.143 338.199 374.267 337.889C373.212 336.649 373.336 334.912 374.329 333.733C375.012 332.493 376.066 331.624 376.439 331.066C377.059 330.694 377.99 330.942 379.045 331.128C380.162 331.314 381.465 331.438 382.706 330.942C384.567 330.384 386.304 329.515 388.538 329.329C391.64 329.081 394.495 327.158 397.907 326.352C399.086 325.918 400.203 323.933 401.258 324.305C401.878 324.367 402.313 324.925 402.685 325.546C401.01 326.724 399.334 327.903 397.597 328.833C395.363 329.888 393.067 330.694 390.71 331.066C393.13 330.942 395.425 330.012 397.597 328.833C399.396 328.027 401.196 327.034 402.995 326.042C403.305 326.6 403.678 327.158 404.174 327.53C404.174 327.53 404.67 327.158 404.919 326.91C406.904 327.282 408.083 329.143 408.517 330.818C408.641 331.19 408.703 331.562 408.765 331.996Z" fill="#E5F8FF"/>
<path d="M324.257 438.188C327.889 438.188 330.834 435.244 330.834 431.613C330.834 427.982 327.889 425.038 324.257 425.038C320.625 425.038 317.68 427.982 317.68 431.613C317.68 435.244 320.625 438.188 324.257 438.188Z" fill="#FFC648"/>
<path d="M229.138 424.108C221.196 429.69 230.69 476.832 230.69 476.832L232.117 461.635C232.117 461.635 233.171 470.009 233.171 473.916C233.171 477.824 233.171 477.824 233.171 477.824C233.171 477.824 238.88 468.458 236.77 455.184C234.723 441.91 229.138 424.108 229.138 424.108Z" fill="#C82C2F"/>
<path d="M347.587 474.412C347.587 474.412 348.517 455.742 347.028 443.833C345.477 431.923 342.871 422.495 340.513 441.042C338.156 459.588 342.561 483.717 343.181 494.075C343.802 504.434 345.539 521.181 343.74 532.967C342.003 544.752 331.082 555.359 327.235 558.026C323.388 560.693 308.373 565.655 308.373 565.655L347.835 562.12L365.518 555.049C365.518 555.049 353.047 529.555 349.634 505.302C346.098 480.553 344.05 456.735 344.05 456.735L347.587 474.412Z" fill="#C82C2F"/>
<path d="M318.34 292.077C318.897 289.534 315.902 286.718 311.65 285.787C307.399 284.856 303.501 286.164 302.944 288.707C302.386 291.251 305.381 294.067 309.633 294.997C313.884 295.928 317.782 294.621 318.34 292.077Z" fill="#FF8080"/>
<path d="M264.286 298.084C268.467 296.874 271.268 293.866 270.544 291.365C269.82 288.864 265.844 287.817 261.663 289.027C257.483 290.237 254.681 293.245 255.405 295.746C256.129 298.247 260.105 299.294 264.286 298.084Z" fill="#FF8080"/>
</svg>
